<?xml version="1.0" standalone="no"?>
<!DOCTYPE svg PUBLIC "-//W3C//DTD SVG 1.1//EN" "http://www.w3.org/Graphics/SVG/1.1/DTD/svg11.dtd" >
<svg xmlns="http://www.w3.org/2000/svg" xmlns:xlink="http://www.w3.org/1999/xlink" version="1.1">
<metadata>
Created by FontForge 20160405 at Wed Jun 21 16:31:08 2017
 By www-data
Typeface (c) WildOnes Design. 2017. All Rights Reserved
</metadata>
<defs>
<font id="Monly" horiz-adv-x="655" >
  <font-face 
    font-family="Monly"
    font-weight="500"
    font-stretch="normal"
    units-per-em="2048"
    panose-1="2 11 8 6 3 5 4 2 2 4"
    ascent="1638"
    descent="-410"
    x-height="1457"
    cap-height="1460"
    bbox="-80 -496 1093 1805"
    underline-thickness="102"
    underline-position="-205"
    unicode-range="U+0020-2248"
  />
<missing-glyph horiz-adv-x="1199" 
 />
    <glyph glyph-name=".notdef" horiz-adv-x="1199" 
 />
    <glyph glyph-name="null" horiz-adv-x="0" 
 />
    <glyph glyph-name="nonmarkingreturn" horiz-adv-x="1044" 
 />
    <glyph glyph-name="space" unicode=" " horiz-adv-x="300" 
 />
    <glyph glyph-name="exclam" unicode="!" horiz-adv-x="296" 
d="M130 222v16v8v32v62q1 40 1 80q0 103 1 201v235q1 647 -5 754l42 2q5 -108 4 -741q0 -109 -1 -233v-202q-1 -38 -1 -82v-35v-15v-15v-67h-41zM107 7q-17 17 -17 41q0 25 17 42q17 18 41 18t41 -18q17 -17 17 -42q0 -24 -17 -41t-41 -17t-41 17z" />
    <glyph glyph-name="quotedbl" unicode="&#x22;" horiz-adv-x="276" 
d="M30 1180v2v2l1 3v9l1 12q1 15 2 31q0 20 1 40q4 114 -4 194l41 3q8 -83 5 -197q-2 -37 -4 -72q-1 -12 -1 -22q-1 -7 -1 -9zM196 1180v2l1 2v3v9l1 12q1 15 2 31q1 20 1 40q4 114 -4 194l41 3q8 -82 4 -197q0 -20 -1 -40l-2 -32l-1 -12v-5v-5q-1 -8 -1 -9z" />
    <glyph glyph-name="numbersign" unicode="#" horiz-adv-x="1023" 
d="M391 854l9 86l10 84q125 4 251 6l-9 -85l-10 -86q-12 -101 -21 -172l-125 -3l-126 -3zM993 693h-33q-32 -1 -73 -1q-112 -2 -225 -4q10 74 21 172l10 86l10 84q103 2 204 4q36 0 62 1h24v41q-11 0 -90 -1q-89 -2 -195 -4q49 424 54 540l-40 1q-5 -100 -56 -542
q-85 -1 -251 -4q51 443 55 545l-40 1q-6 -113 -57 -547q-281 -9 -343 -17l6 -41q62 8 333 16q-7 -62 -20 -170l-20 -173q-251 -8 -299 -16l6 -40q52 8 288 14q-29 -237 -61 -499q-10 -86 -19 -160q-4 -27 -6 -46q-2 -16 -2 -17l41 -6v5q1 6 2 13q3 21 6 46q9 77 20 162
q32 267 61 504q52 1 124 3l127 3q-29 -238 -61 -505q-11 -84 -20 -162q-3 -25 -6 -45q-1 -8 -1 -13l-1 -5l41 -6q0 2 2 18q2 19 6 47q9 75 20 163q32 267 62 509q114 2 233 3q41 1 73 1h20h8v42z" />
    <glyph glyph-name="dollar" unicode="$" horiz-adv-x="510" 
d="M267 25q2 339 2 735l1 -3l2 -4q2 -5 3 -7q171 -367 100 -598q-25 -79 -108 -123zM205 1450l8 8l13 13q1 -131 1 -236q1 -136 1 -263q-119 342 -38 460q6 9 15 18zM267 1493q4 3 7 5l9 3q8 2 14 2q30 -1 58 -23q24 -19 40 -46l36 20q-21 36 -53 60q-38 29 -80 30
q-5 0 -15 -3l-8 -2l-9 -3q0 75 -2 123l-42 -2q3 -40 3 -136q-40 -23 -68 -66q-64 -92 -27 -286q14 -76 43 -166q23 -70 55 -148q0 -214 -1 -481q0 -95 -1 -206v-88v-20l-1 -19v-39l-3 -1h-2q-78 -9 -125 68l-35 -21q54 -89 144 -89l10 1l10 1h1v-101h41v11v25q0 43 1 85
q112 44 147 155q36 118 10 282q-27 164 -112 346q-10 20 -22 50l-21 52q0 462 -2 627z" />
    <glyph glyph-name="percent" unicode="%" horiz-adv-x="992" 
d="M168 -35q1 2 86 228q49 128 88 233q55 145 103 271q282 749 323 874l39 -13q-42 -128 -323 -875q-91 -241 -191 -504q-35 -93 -62 -164q-24 -62 -25 -65zM140 1399q-35 -95 -38 -263q-2 -122 21 -217q23 -96 63 -137q22 -23 49 -23q34 0 59 26q80 82 74 365
q-9 344 -132 344q-60 0 -96 -95zM157 754q-51 51 -76 168q-21 98 -20 214q1 67 8 126q8 74 25 130q45 143 142 143q106 0 147 -156q15 -55 21 -128q2 -26 3 -56q1 -11 1 -24v-10l1 -10q1 -50 -1 -97q-3 -61 -11 -112q-21 -131 -74 -186q-38 -38 -88 -38q-43 0 -78 36z
M663 670q-36 -96 -38 -264q-2 -120 21 -217q23 -96 63 -136q22 -23 49 -23q34 0 58 26q80 81 74 365q-7 344 -131 344q-61 0 -96 -95zM679 24q-51 52 -75 168q-21 98 -19 215q0 67 7 125q8 75 25 130q44 144 142 144q105 0 147 -157q14 -55 21 -127q2 -27 3 -57q0 -11 1 -23
v-11v-9q1 -50 -1 -98q-3 -60 -11 -111q-20 -132 -73 -186q-38 -38 -88 -38q-44 0 -79 35z" />
    <glyph glyph-name="ampersand" unicode="&#x26;" horiz-adv-x="721" 
d="M238 23q-25 5 -50 28q-37 37 -59 108q-24 77 -22 168q5 226 157 425l2 4l3 3l6 -19l7 -20q53 -151 202 -415q-73 -183 -179 -264q-34 -25 -67 -18zM314 1483v0q44 0 72 -64q16 -37 24 -80q11 -60 7 -125q-12 -174 -134 -363q-113 375 -48 551q32 81 79 81zM597 649
q-26 -80 -40 -124q-30 -102 -53 -170q-138 249 -183 379l-11 34l-11 33q144 208 159 405q5 72 -7 139q-10 50 -28 91q-39 92 -110 89q-77 -3 -116 -109q-73 -198 56 -608l-22 -31q-159 -209 -166 -447q-5 -207 95 -307q41 -43 92 -43q41 0 78 29q108 82 180 251
q47 -83 99 -169q9 -15 18 -29q7 -12 14 -23q3 -4 5 -9l3 -4l2 -3q4 -7 5 -8l35 22q0 1 -1 2q-2 2 -3 5q-5 7 -10 16q-17 27 -36 58q-58 97 -111 190q16 44 35 102l32 103q13 43 39 124z" />
    <glyph glyph-name="quotesingle" unicode="'" horiz-adv-x="110" 
d="M30 1176v2v2l1 3v9l1 12q1 15 1 31l2 40q3 114 -4 194l41 3q8 -83 4 -197q-1 -37 -3 -72q-1 -12 -1 -22q-1 -7 -1 -9z" />
    <glyph glyph-name="parenleft" unicode="(" horiz-adv-x="381" 
d="M344 -150l-1 1l-1 2q-2 4 -4 9q-7 15 -14 32q-24 55 -46 119q-71 202 -106 419q-112 690 172 1268l37 -18q-279 -567 -169 -1243q35 -212 104 -411q22 -62 45 -116q8 -17 14 -32l4 -8l1 -2l1 -1z" />
    <glyph glyph-name="parenright" unicode=")" horiz-adv-x="381" 
d="M60 -131l1 1l1 2l4 8q6 15 14 32q23 54 45 116q69 199 104 411q109 676 -169 1243l37 18q284 -578 172 -1268q-35 -217 -106 -419q-23 -64 -46 -119q-7 -17 -14 -32q-2 -5 -4 -9l-1 -2l-1 -1z" />
    <glyph glyph-name="asterisk" unicode="*" 
d="M625 1224q-6 0 -86 5l-19 2l-20 1q-26 2 -44 3q-54 4 -97 7q81 159 106 218l-37 16q-25 -56 -104 -213q-98 170 -127 214l-34 -23q28 -42 123 -208q-208 11 -256 11l1 -42q62 1 263 -11q-23 -45 -49 -95q-20 -40 -42 -81q-8 -17 -17 -33q-6 -12 -13 -25q-2 -4 -5 -9
l-2 -4l-1 -3q-3 -6 -3 -7l37 -19q1 4 41 81q11 21 19 36q11 22 21 41q25 48 46 89q22 -39 48 -87q10 -18 22 -40l10 -18l10 -17q39 -72 40 -73l36 20q-3 7 -43 78q-42 77 -91 162q47 -2 99 -6q40 -2 84 -5q15 -2 33 -3l13 -1l12 -1q22 -1 23 -1z" />
    <glyph glyph-name="plus" unicode="+" horiz-adv-x="606" 
d="M573 665l-5 -1h-7h-9q-12 -1 -24 -1q-16 -1 -32 -1q-40 -2 -80 -3q-50 -1 -96 -2q2 209 -5 278l-41 -3q6 -52 6 -276q-170 0 -245 9l-5 -41q90 -9 227 -9h22q-1 -53 -2 -111q0 -47 -1 -96q-1 -19 -1 -38q-1 -14 -1 -29v-11l-1 -8v-8l42 -1q0 3 1 31v14v16q1 20 1 38
q1 50 2 95q1 58 1 109q46 0 95 2q38 1 80 2q15 1 31 2h14l11 1q23 1 25 1z" />
    <glyph glyph-name="comma" unicode="," horiz-adv-x="215" 
d="M30 -167h1l2 2l5 5q8 8 16 18q24 30 39 65q47 109 -6 224l37 17q61 -132 4 -259q-18 -40 -45 -75q-9 -11 -18 -21q-3 -2 -5 -5l-2 -1v-1z" />
    <glyph glyph-name="hyphen" unicode="-" horiz-adv-x="603" 
d="M206 604h-61q-67 1 -115 2l1 41q132 -3 349 -2q37 0 76 1h61h23h17l16 1v-41h-15h-11q-15 -1 -30 -1h-38q-50 0 -98 -1h-115h-60z" />
    <glyph glyph-name="period" unicode="." horiz-adv-x="176" 
d="M47 17q-17 17 -17 41q0 25 17 42q17 18 41 18t41 -18q17 -17 17 -42q0 -24 -17 -41t-41 -17t-41 17z" />
    <glyph glyph-name="slash" unicode="/" horiz-adv-x="484" 
d="M30 -51l40 -9l384 1619l-39 10z" />
    <glyph glyph-name="zero" unicode="0" horiz-adv-x="533" 
d="M150 1244q-44 -181 -47 -494q-2 -251 32 -441t91 -248q20 -19 41 -19q28 0 51 23q121 122 112 712q-5 362 -58 525q-40 123 -104 123q-74 0 -118 -181zM197 32q-71 73 -107 299q-30 189 -28 420q3 301 42 480q52 235 164 235q116 0 165 -233q34 -162 38 -455
q2 -101 -2 -195q-4 -119 -15 -217q-30 -252 -106 -330q-38 -36 -81 -36q-38 0 -70 32z" />
    <glyph glyph-name="one" unicode="1" horiz-adv-x="393" 
d="M239 -19l3 185q2 101 4 191q2 120 4 229q5 279 8 476q3 248 3 355q-15 -13 -46 -49q-12 -14 -26 -32l-13 -15l-11 -14q-54 -68 -76 -89l-29 30q24 22 73 85q67 83 95 109q32 30 54 22q8 -3 14 -11q7 -10 7 -27q0 -188 -12 -832q-2 -110 -4 -231q-2 -92 -4 -195
q-3 -187 -3 -188z" />
    <glyph glyph-name="two" unicode="2" horiz-adv-x="501" 
d="M85 12q-11 4 -15 10l-3 5l-2 5q-5 18 57 156q11 25 18 40q10 23 19 44q23 51 42 96q50 119 85 221q96 277 98 462q3 182 -27 285q-12 40 -28 66q-13 21 -27 32q-24 19 -52 12q-42 -11 -78 -77q-33 -63 -39 -131l-41 4q7 75 44 145q43 83 104 99q48 11 88 -20
q101 -80 97 -415q-2 -191 -100 -473q-35 -103 -86 -224q-19 -45 -42 -98q-8 -20 -19 -44l-9 -21l-9 -20q-46 -102 -53 -125q62 -16 329 11l5 -40q-159 -17 -250 -17q-76 0 -106 12z" />
    <glyph glyph-name="three" unicode="3" horiz-adv-x="466" 
d="M30 111l33 25q37 -49 74 -73q47 -32 88 -18q61 23 98 137t31 260q-7 145 -51 237q-16 34 -38 61q-8 11 -18 22l-9 9l-8 7l-16 17q-8 10 -12 19q-10 21 3 43q16 27 49 75q84 122 94 198q16 122 -9 202q-9 30 -24 52q-10 17 -23 27q-33 29 -67 21q-42 -11 -77 -77
q-34 -63 -40 -131l-41 4q7 75 44 145q43 83 104 99q56 13 104 -30q17 -15 30 -36q18 -26 29 -61q28 -89 11 -221q-11 -85 -101 -215l-24 -35q-14 -21 -24 -38q-3 -6 19 -29l9 -8l9 -10q11 -12 20 -23q24 -31 42 -67q48 -100 55 -255q6 -151 -32 -273q-43 -135 -123 -164
q-18 -7 -40 -7q-84 0 -169 111z" />
    <glyph glyph-name="four" unicode="4" horiz-adv-x="485" 
d="M453 432q-11 -1 -30 -2l-33 -2l-36 -3l-39 -2q9 262 9 418h-42q0 -187 -7 -421q-145 -7 -168 18q-5 4 -4 11q24 188 65 620q7 74 14 153q5 61 11 126q2 24 5 49q1 10 2 21v9l1 8q3 32 3 33l-41 4q0 -1 -3 -33v-9l-1 -9q-1 -11 -2 -20q-2 -25 -4 -49q-6 -65 -12 -126
q-7 -79 -14 -153q-41 -431 -65 -619q-2 -26 15 -44q33 -34 143 -34q8 0 26 1l14 1l13 1q-2 -70 -5 -147q-2 -59 -4 -123q-1 -23 -2 -48q0 -9 -1 -20v-8v-8q-1 -32 -1 -33l41 -2q0 1 1 33q1 20 1 37q1 25 2 49q2 63 5 124q2 78 4 149l20 1l19 1q24 1 41 3l17 1l15 1
q17 2 29 2z" />
    <glyph glyph-name="five" unicode="5" horiz-adv-x="506" 
d="M60 117l33 24q40 -53 78 -78q50 -34 91 -15q83 37 112 224q31 203 -25 463q-10 50 -58 60q-32 7 -103 -6q-49 -9 -61 2q-9 7 -9 18q-8 198 -7 431v80q1 32 1 62v23q1 8 1 17v6v9l1 20h310v-42h-270v-15v-10l-1 -10v-50q-1 -71 -1 -138q0 -199 6 -366l11 1l12 2l12 2l13 3
q16 2 29 3q36 3 63 -2q75 -14 91 -92q57 -261 24 -474q-32 -212 -134 -259q-25 -10 -48 -10q-84 0 -171 117z" />
    <glyph glyph-name="six" unicode="6" horiz-adv-x="464" 
d="M102 606q2 -113 10 -211q22 -271 86 -337q18 -17 37 -17q49 1 83 136q45 171 26 372q-20 208 -96 254q-57 33 -144 -45q-3 -65 -2 -152zM233 0q-35 0 -64 30q-82 83 -102 417q-7 104 -6 222v41q1 15 1 30v12q1 4 1 9v3v4l3 53l2 53q12 296 36 403q39 176 142 193
q48 8 80 -21q38 -35 47 -117q3 -27 3 -56q-1 -10 -1 -20v-6l-1 -4l-40 3q1 16 0 37q0 25 -3 48q-8 62 -33 84q-17 16 -44 12q-82 -14 -114 -183q-20 -102 -32 -375v-29l-2 -30q92 66 163 25q93 -56 115 -285q20 -209 -26 -386q-43 -164 -122 -167h-3z" />
    <glyph glyph-name="seven" unicode="7" horiz-adv-x="428" 
d="M123 -4q1 2 8 49q7 54 18 127q30 202 59 400q87 605 113 802q4 33 -12 48q-25 22 -99 15q-27 -3 -63 -10l-30 -6l-14 -3l-13 -3l-21 -4l-9 40l21 4l33 8l35 7q40 7 71 9q81 5 116 -27q32 -29 25 -84q-25 -198 -113 -802q-29 -202 -58 -400q-11 -75 -19 -127
q-7 -47 -7 -49z" />
    <glyph glyph-name="eight" unicode="8" horiz-adv-x="492" 
d="M248 1437l-10 -1q-35 -10 -56 -56q-36 -82 -19 -238q16 -147 66 -265q21 71 38 145q21 90 32 165q29 193 -15 239l-4 4l-6 4q-8 3 -18 3h-8zM115 337q-12 -161 38 -242q32 -51 82 -54q62 -2 92 48q58 94 15 330q-36 198 -107 353q-105 -243 -120 -435zM234 0
q-71 3 -115 73q-59 94 -44 271q17 210 137 475q-64 122 -87 295q-24 183 20 282q28 65 84 79q30 7 53 -1q18 -6 32 -20q63 -67 18 -325q-16 -87 -42 -188q-10 -37 -20 -72q-4 -14 -8 -27q-3 -11 -6 -20q78 -148 122 -371q54 -270 -15 -383q-43 -68 -124 -68h-5z" />
    <glyph glyph-name="nine" unicode="9" horiz-adv-x="501" 
d="M199 1432q-64 -57 -80 -213q-17 -162 39 -275q62 -127 194 -109l1 79l2 80q6 196 -1 278q-12 130 -60 163q-25 16 -48 16q-24 0 -47 -19zM130 46q-18 17 -31 40q-11 19 -16 37l39 10l1 -1l1 -4l4 -10q8 -18 20 -32q37 -44 99 -44q38 0 64 26q47 49 54 203q5 91 -6 321
q-4 61 -5 94q-2 36 -2 107q-156 -17 -231 133q-61 122 -44 295q16 172 95 241q67 59 145 6q61 -41 76 -174q10 -84 3 -302q-3 -99 -3 -151q-1 -85 2 -153l2 -47l2 -47q12 -245 6 -340q-9 -157 -64 -215q-37 -39 -94 -39q-69 0 -117 46z" />
    <glyph glyph-name="colon" unicode=":" horiz-adv-x="178" 
d="M47 660q-17 18 -17 41q0 25 17 42q17 18 42 18q24 0 42 -18q17 -17 17 -42q0 -23 -17 -41q-18 -17 -42 -17t-42 17zM47 97q-17 18 -17 42q0 25 17 42t42 17q24 0 42 -17q17 -17 17 -42q0 -24 -17 -42q-18 -17 -42 -17t-42 17z" />
    <glyph glyph-name="semicolon" unicode=";" horiz-adv-x="215" 
d="M30 -99h1l2 2l5 5q8 8 16 18q24 30 39 65q47 109 -6 224l37 17q61 -132 4 -259q-18 -40 -45 -75q-9 -11 -18 -21q-3 -2 -5 -5l-2 -1v-1zM51 656q-17 17 -17 42q0 24 17 41t41 17q25 0 42 -17q18 -17 18 -41q0 -25 -18 -42q-17 -18 -42 -18q-24 0 -41 18z" />
    <glyph glyph-name="less" unicode="&#x3c;" horiz-adv-x="392" 
d="M330 300l-3 3q-2 3 -6 7q-11 12 -24 26q-39 44 -77 89q-121 139 -184 223l-2 4l-2 4q-2 5 -2 13q2 21 23 60q62 109 279 353l30 -28q-285 -322 -291 -383q63 -84 182 -221q37 -44 75 -87q13 -14 23 -25q4 -5 7 -8l2 -2z" />
    <glyph glyph-name="equal" unicode="=" horiz-adv-x="603" 
d="M205 550h-60q-68 1 -115 2l1 41q132 -3 349 -2q37 0 76 1h61h23l17 1h16v-41h-7h-19q-15 0 -30 -1h-38q-50 0 -98 -1h-115h-61zM205 749h-60q-68 1 -115 2l1 41q132 -3 349 -2q37 1 76 1h61h23q9 1 17 1h16v-41h-7h-8h-11q-15 0 -30 -1h-38q-50 0 -98 -1h-115h-61z" />
    <glyph glyph-name="greater" unicode="&#x3e;" horiz-adv-x="393" 
d="M32 328l2 2q3 3 7 8q10 11 23 25q38 43 76 87q118 137 181 221q-5 61 -291 383l31 28q216 -244 278 -353q21 -39 23 -60q1 -8 -1 -13l-3 -4l-2 -4q-63 -84 -184 -223q-38 -45 -77 -89q-13 -14 -24 -26q-3 -4 -6 -7q-2 -3 -3 -3z" />
    <glyph glyph-name="question" unicode="?" horiz-adv-x="522" 
d="M203 -3q-17 18 -17 41q0 25 17 43q17 17 41 17q25 0 42 -17q17 -18 17 -43q0 -23 -17 -41q-17 -17 -42 -17q-24 0 -41 17zM224 250v9v11q0 12 -1 22v16l-1 16v34q-1 40 -1 74q0 89 3 159q8 188 40 249q96 183 126 328q31 146 -11 220q-39 67 -136 72q-78 4 -127 -59
q-39 -51 -45 -120l-41 3q7 84 57 146q61 77 158 71q120 -6 169 -93q48 -85 18 -239q-29 -153 -131 -347q-29 -55 -36 -247q-3 -67 -3 -155q0 -32 1 -69v-31l1 -14v-13q0 -11 1 -23v-20h-41z" />
    <glyph glyph-name="at" unicode="@" horiz-adv-x="963" 
d="M326 398q-51 188 -19 432q33 254 129 324q29 20 62 20q40 0 87 -31q32 -21 41 -116q6 -57 5 -202v-79l1 -79q2 -90 11 -157q-74 -151 -139 -214q-25 -24 -47 -34q-18 -7 -34 -6q-61 6 -97 142zM263 83q-123 183 -142 568q-20 401 100 645q90 183 240 192q119 7 201 -69
q184 -168 197 -740q3 -157 -30 -270q-28 -96 -59 -104q-9 -2 -20 10q-4 5 -8 11l-3 5l-2 4q-45 83 -58 227q-6 57 -7 131v66v65v19v6l-1 7v18q0 23 -1 46v56q-2 158 -2 232h-41v-75q-2 4 -5 11l-3 13q-5 16 -11 20q-61 41 -117 38q-42 -1 -79 -28q-115 -83 -148 -357
q-31 -249 22 -443q44 -163 134 -172q107 -10 235 229q16 -74 46 -129q19 -35 44 -46q10 -5 20 -5q8 0 15 2q55 14 89 133t31 281q-13 588 -211 769q-95 89 -230 80q-174 -11 -276 -215q-123 -251 -102 -666q21 -398 149 -587q89 -134 220 -141h13q125 0 270 112q46 36 89 79
q13 14 26 27q4 5 7 9l3 3l1 1l-31 27l-1 -1l-2 -2q-3 -3 -7 -8q-11 -12 -24 -25q-42 -42 -86 -77q-141 -110 -256 -104q-110 6 -189 122z" />
    <glyph glyph-name="A" unicode="A" horiz-adv-x="588" 
d="M213 1060q50 316 86 349q40 -25 91 -319q50 -290 75 -637q-95 8 -328 0q37 354 76 607zM522 0q6 355 -54 841q-64 519 -139 595q-16 16 -31 16l-6 -1l-6 -1q-8 -2 -14 -9q-18 -19 -36 -75q-49 -154 -104 -603q-28 -226 -51 -487q-21 -232 -21 -281h41q0 79 33 417
q238 8 334 0q16 -240 13 -412h41z" />
    <glyph glyph-name="B" unicode="B" horiz-adv-x="592" 
d="M136 826q14 2 29 5q20 3 38 9q48 14 86 38q107 68 121 201q9 89 -34 201q-43 96 -107 128q-55 28 -107 -17q-19 -57 -26 -565zM189 38q21 -5 45 -7q60 -4 107 18q76 35 91 131q56 349 -80 503q-49 54 -121 80q-26 10 -55 15q-20 4 -40 6q-1 -23 -1 -66q-2 -288 6 -481
q7 -161 18 -188q11 -6 30 -11zM181 -2q-30 8 -46 17q-19 12 -27 93q-18 185 -13 716q5 566 36 595q74 67 157 26q74 -38 124 -145q49 -124 39 -225q-12 -112 -83 -185q-54 -55 -138 -83q92 -30 152 -98q150 -166 91 -536q-20 -117 -116 -161q-46 -22 -106 -22q-36 0 -70 8z
" />
    <glyph glyph-name="C" unicode="C" horiz-adv-x="594" 
d="M224 24q-73 62 -101 253q-20 136 -26 483q-7 361 37 520q44 160 158 185q84 19 150 -29q75 -55 83 -168l-40 -4q-8 95 -67 138q-51 38 -117 23q-95 -21 -133 -173q-37 -153 -30 -491q6 -332 24 -464q25 -188 89 -241q37 -32 96 -23q134 21 146 132l41 -4
q-17 -143 -182 -169l-31 -2q-56 0 -97 34z" />
    <glyph glyph-name="D" unicode="D" horiz-adv-x="596" 
d="M139 1039q1 -128 3 -327q2 -120 5 -287q4 -347 2 -377l1 -3q0 -2 1 -4q5 -6 18 -8q57 -12 137 39q93 61 133 173q57 160 53 495q-5 292 -53 436q-30 91 -105 171q-75 81 -136 88q-34 4 -51 -24q-9 -33 -8 -372zM160 -7q-54 10 -51 58q2 33 -3 373q-16 970 5 1006
q32 51 92 45q73 -8 157 -95t118 -191q49 -148 54 -448q4 -345 -55 -510q-41 -117 -137 -184q-79 -57 -155 -57q-13 0 -25 3z" />
    <glyph glyph-name="E" unicode="E" horiz-adv-x="506" 
d="M444 36q-93 -5 -179 -4q-90 1 -112 8q-13 68 -19 734l7 1h7h19q26 1 50 1q69 1 111 -3l2 42q-42 3 -111 2q-24 0 -50 -1h-20l-8 -1h-7q-1 160 -2 367q-1 139 -1 241q15 7 80 8q26 0 59 -1q25 0 56 -2q73 -1 108 -1v40q-53 0 -107 3q-201 6 -227 -19q-10 -10 -10 -23v-38
v-60q0 -84 1 -170q1 -289 3 -495q7 -627 25 -650q19 -25 170 -25q58 0 157 5z" />
    <glyph glyph-name="F" unicode="F" horiz-adv-x="486" 
d="M424 1436l2 41h-5l-5 1h-14h-35q-49 1 -90 0q-122 -4 -151 -20q-24 -14 -29 -216q-7 -247 2 -917q3 -284 2 -325h41q2 90 -3 326q0 40 -1 106v57l-1 59q-1 149 -1 249q12 1 37 3q29 2 59 4q79 7 123 12l-4 41q-41 -5 -119 -11q-25 -2 -58 -5l-12 -1l-11 -1q-11 -1 -16 -1
q-2 533 16 586q53 21 273 12z" />
    <glyph glyph-name="G" unicode="G" horiz-adv-x="638" 
d="M578 -30q0 42 -2 163l-2 50l-1 49q-1 57 -1 89q0 30 -1 56q-1 23 -2 27l-2 22l-22 -3q-133 -23 -185 -31l6 -41q23 4 81 13l23 4l22 4q24 4 37 6q0 -3 2 -80q-4 -94 -24 -156q-27 -79 -80 -90q-127 -35 -191 17q-66 52 -87 217q-18 136 -9 440q21 614 184 682
q101 42 176 -108l36 18q-92 184 -228 127q-96 -39 -147 -215q-51 -175 -62 -503q-9 -319 11 -460q25 -169 101 -230q48 -40 124 -40q47 0 102 15q61 14 98 99q2 -86 2 -141h41z" />
    <glyph glyph-name="H" unicode="H" horiz-adv-x="536" 
d="M405 1464q-4 -91 -4 -592q-19 0 -47 1q-33 1 -67 1q-90 1 -151 -2l-1 89l-1 88q-3 350 -3 413l-40 1q-1 -64 2 -414q5 -381 5 -643q1 -332 -7 -400l40 -6q11 95 6 831q60 3 150 2q34 0 68 -1q28 0 46 -1q0 -133 1 -317q1 -122 1 -254q1 -51 1 -103v-81l1 -73h41l-1 57v63
q0 41 -1 82q0 105 -1 206q0 128 -1 273q-2 640 4 778z" />
    <glyph glyph-name="I" unicode="I" horiz-adv-x="359" 
d="M191 126q2 70 3 148q4 226 8 417q9 605 4 737q42 1 86 0h15q6 -1 11 -1h8h2l1 42h-9h-9h-13q-36 1 -72 1q-114 -2 -196 -13l6 -41q50 7 129 10q5 -129 -5 -746q-3 -186 -7 -418q-1 -70 -3 -145v-26l-1 -11v-11v-28q-70 -3 -119 -10l6 -41q79 11 193 12q36 1 71 0h12h9
l5 -1h2l1 41h-4h-9q-6 0 -13 1h-17q-50 0 -97 -1q1 28 2 84z" />
    <glyph glyph-name="J" unicode="J" horiz-adv-x="440" 
d="M379 1417l1 41h-11h-12q-8 1 -15 1h-86q-135 -1 -217 -12l6 -41q66 10 172 11q2 -25 7 -85q2 -28 4 -49q2 -28 4 -55q5 -66 9 -126q11 -160 17 -336q15 -376 -12 -563q-14 -101 -70 -136q-45 -30 -144 -25l-2 -41q11 -1 32 -1q92 0 143 36q66 47 82 161q27 191 12 569
q-6 177 -17 337q-4 61 -9 128q-2 26 -5 55q-1 21 -4 49q-4 56 -6 83q42 1 86 0h14q6 0 12 -1h4h3h2z" />
    <glyph glyph-name="K" unicode="K" horiz-adv-x="558" 
d="M490 -40l38 15l-333 852q88 164 184 341q117 216 148 273l-36 20q-30 -55 -157 -291q-39 -71 -103 -190l-12 -23l-12 -21q-14 -26 -22 -42q-24 -44 -38 -70q-4 545 -16 639l-41 -5q15 -117 15 -711q2 -630 -15 -740l41 -5q17 120 16 736q3 6 23 41z" />
    <glyph glyph-name="L" unicode="L" horiz-adv-x="424" 
d="M115 8l-2 1l-2 3q-3 4 -5 11q-5 18 -8 65q-8 125 -2 474q4 283 3 583q-1 263 -3 320l41 2q2 -63 3 -319q1 -302 -3 -587q-8 -453 6 -522q22 -6 108 -8q80 -1 171 3l2 -41l-13 -1h-15q-19 -1 -33 -1q-42 -1 -74 -1q-149 0 -174 18z" />
    <glyph glyph-name="M" unicode="M" horiz-adv-x="741" 
d="M608 -10q1 404 -1 771q-2 430 -8 587q-20 -60 -55 -177q-82 -264 -110 -339q-27 -70 -47 -74q-24 -6 -47 47q-25 60 -101 302q-15 47 -25 80q-15 46 -27 82q-29 92 -47 135q-7 -118 0 -526q3 -151 8 -336q4 -145 8 -291q1 -40 2 -88q1 -17 1 -39l1 -18v-16q2 -71 2 -88
h-41q0 25 -7 248q-24 846 -18 1075q3 103 12 134q6 19 21 20q23 2 47 -54q26 -62 103 -306l6 -21l7 -22l14 -44q16 -52 28 -88q32 -97 47 -131q19 40 58 160q15 46 34 107q13 42 32 103q61 200 77 240q14 34 30 34h8l7 -7l1 -1q1 -2 2 -5q2 -6 4 -23q5 -44 8 -164
q9 -335 7 -1267h-41z" />
    <glyph glyph-name="N" unicode="N" horiz-adv-x="656" 
d="M519 -10q-23 0 -57 114q-40 134 -161 630q-54 224 -87 356q-48 191 -73 267q-9 -126 -3 -536q2 -144 6 -335q1 -66 3 -162l1 -34v-33q1 -39 2 -60q1 -51 3 -110q0 -20 1 -47v-20v-19l-40 -1q-1 27 -2 86l-1 25l-1 27q-1 32 -1 58q-19 807 -12 1059q4 178 30 187l8 4
l10 -5q30 -15 196 -697q59 -246 95 -386q52 -206 78 -285q10 137 4 594q-5 374 -17 800l41 2v-18v-9l1 -10q0 -14 1 -27l2 -72q1 -46 2 -103q3 -119 5 -230q3 -140 5 -263q8 -500 -3 -650q-4 -63 -13 -83q-5 -12 -18 -14h-5z" />
    <glyph glyph-name="O" unicode="O" horiz-adv-x="558" 
d="M154 1247q-47 -175 -50 -484q-3 -279 32 -464q35 -184 95 -245q23 -23 49 -23q32 0 60 28q59 60 90 240q30 182 25 490q-5 354 -62 513q-43 120 -112 120q-80 0 -127 -175zM202 25q-73 75 -111 295q-31 182 -29 443q4 296 45 470q55 230 174 230q122 0 175 -228
q36 -158 41 -445q1 -138 -2 -227q-5 -115 -17 -209q-31 -244 -109 -324q-39 -40 -89 -40q-43 0 -78 35z" />
    <glyph glyph-name="P" unicode="P" horiz-adv-x="428" 
d="M133 1184q0 -75 3 -181l2 -92l2 -44l1 -43q16 7 29 14q18 9 34 19q41 25 71 59q83 91 83 236q0 109 -42 177q-16 26 -38 45q-17 15 -36 24q-29 14 -59 15q-24 1 -38 -8q-13 -25 -12 -221zM111 -8q7 194 -9 754l-2 60q-10 363 -7 488q4 125 26 143t62 17q40 0 78 -19
q24 -11 44 -28q26 -22 45 -53q50 -78 50 -202q0 -269 -256 -371l1 -34q8 -307 10 -435q4 -204 -1 -322z" />
    <glyph glyph-name="Q" unicode="Q" horiz-adv-x="568" 
d="M136 293q-35 185 -32 474q3 311 49 485q47 175 128 175q69 0 112 -120q56 -159 62 -513q5 -318 -25 -500q-31 -181 -90 -241q-27 -27 -61 -27q-25 0 -48 23q-60 60 -95 244zM351 4v5l8 7q7 6 10 9q78 80 109 323q12 94 17 209q3 89 2 237q-5 288 -41 445
q-53 229 -175 229q-119 0 -174 -230q-41 -174 -45 -470q-2 -272 29 -454q38 -220 111 -294q35 -36 77 -36q7 0 18 2l10 3l7 1q5 -136 63 -199q49 -51 131 -51v41q-64 0 -102 38q-53 58 -55 185z" />
    <glyph glyph-name="R" unicode="R" horiz-adv-x="536" 
d="M147 1422q25 -1 59 -13q43 -15 78 -41q82 -64 97 -170q21 -179 -81 -278q-37 -36 -87 -62q-20 -10 -41 -18q-17 -7 -34 -12q-10 529 9 594zM476 17l-3 6q-2 6 -6 15q-11 26 -23 58q-39 96 -76 194q-116 308 -166 519q103 43 162 121q77 104 58 274q-17 123 -113 197
q-46 34 -101 51q-47 14 -75 10q-16 -3 -24 -29q-9 -34 -13 -126q-6 -204 10 -859q9 -371 9 -460h41q0 136 -9 461q-1 31 -2 75l-1 39l-1 39q-3 124 -4 184l6 1l6 3q8 3 12 4q51 -211 167 -520q20 -53 42 -107q16 -44 34 -87q6 -16 13 -33q5 -12 10 -25l9 -22z" />
    <glyph glyph-name="S" unicode="S" horiz-adv-x="510" 
d="M60 78l34 23q49 -69 129 -59q50 7 92 42q42 36 60 87q34 116 7 253q-26 138 -108 290q-13 25 -26 52q-18 36 -33 71q-41 93 -66 175q-69 263 8 362q35 45 77 65q31 14 64 13q42 -2 79 -27q32 -21 53 -52l-34 -23q-16 24 -40 41q-29 19 -59 21q-59 1 -108 -63
q-57 -74 -11 -287q39 -151 132 -328q87 -161 113 -307q27 -145 -10 -270q-21 -62 -72 -104q-51 -43 -113 -51q-8 -2 -24 -2q-90 0 -144 78z" />
    <glyph glyph-name="T" unicode="T" horiz-adv-x="484" 
d="M476 1464q-2 0 -7 -1q-6 0 -14 -1q-22 -1 -46 -3q-73 -4 -138 -9q-205 -15 -266 -25l6 -41q51 8 212 20v-243v-386v-774l41 -1q1 208 0 783v204v95v88v238q70 5 148 11q27 1 48 3q18 1 19 1z" />
    <glyph glyph-name="U" unicode="U" horiz-adv-x="625" 
d="M311 -10q-64 3 -113 61q-49 57 -74 158q-34 135 -33 705q0 171 4 366q1 62 3 122v21q0 8 1 16v18h42q0 -2 -1 -13q0 -14 -1 -34q-1 -53 -2 -117q-4 -191 -5 -365q-1 -577 32 -709q45 -182 150 -188q55 -3 100 41q34 32 54 85q26 69 26 168q-1 129 -5 330q-4 190 -10 389
q-2 78 -5 160q-2 64 -5 130q0 24 -1 50q-1 10 -1 21v9l-1 8q-1 34 -1 35h41q0 -1 1 -34v-8l1 -9v-21q1 -26 2 -50q3 -66 5 -130q2 -83 5 -160q6 -200 10 -390q4 -200 5 -330q0 -109 -30 -186q-23 -60 -62 -97q-55 -52 -123 -52h-9z" />
    <glyph glyph-name="V" unicode="V" horiz-adv-x="570" 
d="M281 -10q-28 4 -46 103q-17 98 -58 500l-7 58l-6 59l-13 118q-15 134 -28 232q-32 254 -63 379l40 9q31 -128 64 -381q13 -101 28 -233q9 -82 26 -236q20 -213 33 -324q19 -157 32 -214q31 116 91 601q50 380 96 809l40 -5q-22 -208 -44 -398q-31 -265 -58 -468
q-73 -575 -109 -603q-7 -6 -16 -6h-2z" />
    <glyph glyph-name="W" unicode="W" horiz-adv-x="751" 
d="M117 -4q-22 18 -25 173q-2 140 10 587l3 93l2 93q3 106 4 203q4 200 3 323h40q3 -213 -11 -713l-3 -105l-2 -105q-3 -116 -4 -199q-3 -211 4 -283q18 58 50 211q12 59 28 138l13 69q5 25 13 67q65 336 89 422q22 77 47 77t49 -86q27 -97 100 -462l10 -53l11 -54
q13 -61 22 -106q25 -118 39 -176q10 147 9 578q0 353 -7 780h42v-17v-9v-10q0 -13 1 -26v-69q1 -44 1 -88q2 -115 3 -242q1 -136 1 -254q2 -464 -8 -629q-3 -62 -9 -86q-2 -10 -4 -14l-2 -4l-3 -2l-16 -8q-22 1 -41 67q-22 81 -89 413q-35 178 -58 284q-33 157 -51 210
q-15 -48 -44 -187q-11 -50 -26 -128l-13 -65l-13 -64q-65 -339 -92 -442q-26 -101 -51 -107l-6 -1q-9 0 -16 6z" />
    <glyph glyph-name="X" unicode="X" horiz-adv-x="525" 
d="M424 1468q-16 -109 -136 -598q-108 491 -153 602l-38 -15q42 -106 169 -696q-156 -615 -206 -746l38 -15q48 123 187 670q47 -218 97 -458q17 -83 30 -149q12 -56 12 -59l41 8q-1 3 -5 25l-2 11l-3 12l-6 30q-18 86 -35 172q-57 274 -106 498q137 567 157 702z" />
    <glyph glyph-name="Y" unicode="Y" horiz-adv-x="483" 
d="M384 1473q-22 -81 -68 -298q-18 -84 -39 -187q-17 -79 -34 -168l-2 18q-1 11 -1 16q-24 178 -53 317q-40 188 -89 305l-38 -17q48 -114 87 -298q30 -141 52 -312q16 -123 21 -501q1 -115 1 -242v-106h41v74v162q-2 263 -9 426q0 3 6 33l2 7l1 8l4 18q5 22 8 42
q12 56 22 107q14 67 26 127q72 350 101 458z" />
    <glyph glyph-name="Z" unicode="Z" horiz-adv-x="507" 
d="M72 5q-12 8 -12 36q1 40 23 142q49 240 249 982q61 236 68 262q-21 3 -81 1q-22 -1 -51 -3q-20 -1 -47 -3q-99 -5 -124 -5l1 41q25 0 120 5q196 13 217 -6q8 -9 8 -20q0 -10 -71 -282q-21 -77 -38 -139q-23 -84 -44 -160q-52 -203 -90 -350q-103 -411 -100 -469
q65 -18 343 6l4 -41l-20 -2q-13 -1 -25 -1q-31 -3 -60 -4q-80 -5 -139 -5q-106 0 -131 15z" />
    <glyph glyph-name="bracketleft" unicode="[" horiz-adv-x="377" 
d="M102 -36q-7 6 -10 14q-2 6 -2 12q0 32 3 348l1 34v35l1 73q1 87 1 152q2 179 3 308q3 192 5 376q2 159 2 170q0 12 8 20q20 19 172 15q53 -3 83 -2l1 -41q-23 0 -86 1l-18 1l-19 1q-22 1 -40 1q-46 0 -60 -4q-1 -27 -2 -189l-1 -37v-40q-1 -48 -1 -84q-1 -104 -2 -188
q-1 -133 -3 -303q-2 -127 -3 -291q-4 -335 -4 -353q37 -26 241 -3l5 -41q-26 -3 -62 -6q-45 -3 -84 -3q-102 0 -129 24z" />
    <glyph glyph-name="backslash" unicode="\" horiz-adv-x="484" 
d="M30 1539l385 -1619l39 9l-384 1620z" />
    <glyph glyph-name="bracketright" unicode="]" horiz-adv-x="377" 
d="M146 -60q-39 0 -84 3q-36 3 -62 6l5 41q204 -23 241 3q0 18 -4 353q-2 164 -3 291q-2 170 -3 303q-1 84 -2 188q-1 36 -1 84l-1 40v37q-1 162 -2 189q-15 4 -61 4q-17 0 -39 -1l-20 -1l-17 -1q-63 -1 -86 -1l1 41q30 -1 83 2q152 4 171 -15q9 -8 9 -20q0 -11 2 -170
q2 -184 4 -376q1 -129 3 -308q1 -65 2 -152l1 -73v-35v-34q4 -316 4 -348q0 -6 -3 -12q-3 -8 -9 -14q-27 -24 -129 -24z" />
    <glyph glyph-name="asciicircum" unicode="^" horiz-adv-x="642" 
d="M30 1180q29 35 67 77q48 54 90 97q117 118 156 120q14 0 23 -9q63 -65 160 -180q32 -38 61 -74q11 -13 18 -22l7 -9l-31 -26q-1 0 -7 8l-4 5l-4 5l-10 12l-26 32q-16 20 -32 39q-42 49 -78 90q-44 51 -79 87q-27 -10 -108 -90q-85 -84 -171 -188z" />
    <glyph glyph-name="underscore" unicode="_" horiz-adv-x="639" 
d="M30 -19q76 4 327 3h170q74 -1 82 -1l-1 -41h-13h-8h-24h-31q-39 1 -78 1h-92q-257 1 -330 -3z" />
    <glyph glyph-name="grave" unicode="`" horiz-adv-x="284" 
d="M219 1203l-72 118q-36 59 -62 102q-34 57 -55 91l35 22q41 -69 117 -194q71 -116 72 -118z" />
    <glyph glyph-name="a" unicode="a" horiz-adv-x="588" 
d="M213 1060q50 316 86 349q40 -25 91 -319q50 -290 75 -637q-95 8 -328 0q37 354 76 607zM522 0q6 355 -54 841q-64 519 -139 595q-16 16 -31 16l-6 -1l-6 -1q-8 -2 -14 -9q-18 -19 -36 -75q-49 -154 -104 -603q-28 -226 -51 -487q-21 -232 -21 -281h41q0 79 33 417
q238 8 334 0q16 -240 13 -412h41z" />
    <glyph glyph-name="b" unicode="b" horiz-adv-x="592" 
d="M136 826q14 2 29 5q20 3 38 9q48 14 86 38q107 68 121 201q9 89 -34 201q-43 96 -107 128q-55 28 -107 -17q-19 -57 -26 -565zM189 38q21 -5 45 -7q60 -4 107 18q76 35 91 131q56 349 -80 503q-49 54 -121 80q-26 10 -55 15q-20 4 -40 6q-1 -23 -1 -66q-2 -288 6 -481
q7 -161 18 -188q11 -6 30 -11zM181 -2q-30 8 -46 17q-19 12 -27 93q-18 185 -13 716q5 566 36 595q74 67 157 26q74 -38 124 -145q49 -124 39 -225q-12 -112 -83 -185q-54 -55 -138 -83q92 -30 152 -98q150 -166 91 -536q-20 -117 -116 -161q-46 -22 -106 -22q-36 0 -70 8z
" />
    <glyph glyph-name="c" unicode="c" horiz-adv-x="594" 
d="M224 24q-73 62 -101 253q-20 136 -26 483q-7 361 37 520q44 160 158 185q84 19 150 -29q75 -55 83 -168l-40 -4q-8 95 -67 138q-51 38 -117 23q-95 -21 -133 -173q-37 -153 -30 -491q6 -332 24 -464q25 -188 89 -241q37 -32 96 -23q134 21 146 132l41 -4
q-17 -143 -182 -169l-31 -2q-56 0 -97 34z" />
    <glyph glyph-name="d" unicode="d" horiz-adv-x="596" 
d="M139 1039q1 -128 3 -327q2 -120 5 -287q4 -347 2 -377l1 -3q0 -2 1 -4q5 -6 18 -8q57 -12 137 39q93 61 133 173q57 160 53 495q-5 292 -53 436q-30 91 -105 171q-75 81 -136 88q-34 4 -51 -24q-9 -33 -8 -372zM160 -7q-54 10 -51 58q2 33 -3 373q-16 970 5 1006
q32 51 92 45q73 -8 157 -95t118 -191q49 -148 54 -448q4 -345 -55 -510q-41 -117 -137 -184q-79 -57 -155 -57q-13 0 -25 3z" />
    <glyph glyph-name="e" unicode="e" horiz-adv-x="506" 
d="M444 36q-93 -5 -179 -4q-90 1 -112 8q-13 68 -19 734l7 1h7h19q26 1 50 1q69 1 111 -3l2 42q-42 3 -111 2q-24 0 -50 -1h-20l-8 -1h-7q-1 160 -2 367q-1 139 -1 241q15 7 80 8q26 0 59 -1q25 0 56 -2q73 -1 108 -1v40q-53 0 -107 3q-201 6 -227 -19q-10 -10 -10 -23v-38
v-60q0 -84 1 -170q1 -289 3 -495q7 -627 25 -650q19 -25 170 -25q58 0 157 5z" />
    <glyph glyph-name="f" unicode="f" horiz-adv-x="486" 
d="M424 1436l2 41h-5l-5 1h-14h-35q-49 1 -90 0q-122 -4 -151 -20q-24 -14 -29 -216q-7 -247 2 -917q3 -284 2 -325h41q2 90 -3 326q0 40 -1 106v57l-1 59q-1 149 -1 249q12 1 37 3q29 2 59 4q79 7 123 12l-4 41q-41 -5 -119 -11q-25 -2 -58 -5l-12 -1l-11 -1q-11 -1 -16 -1
q-2 533 16 586q53 21 273 12z" />
    <glyph glyph-name="g" unicode="g" horiz-adv-x="638" 
d="M578 -30q0 42 -2 163l-2 50l-1 49q-1 57 -1 89q0 30 -1 56q-1 23 -2 27l-2 22l-22 -3q-133 -23 -185 -31l6 -41q23 4 81 13l23 4l22 4q24 4 37 6q0 -3 2 -80q-4 -94 -24 -156q-27 -79 -80 -90q-127 -35 -191 17q-66 52 -87 217q-18 136 -9 440q21 614 184 682
q101 42 176 -108l36 18q-92 184 -228 127q-96 -39 -147 -215q-51 -175 -62 -503q-9 -319 11 -460q25 -169 101 -230q48 -40 124 -40q47 0 102 15q61 14 98 99q2 -86 2 -141h41z" />
    <glyph glyph-name="h" unicode="h" horiz-adv-x="536" 
d="M405 1464q-4 -91 -4 -592q-19 0 -47 1q-33 1 -67 1q-90 1 -151 -2l-1 89l-1 88q-3 350 -3 413l-40 1q-1 -64 2 -414q5 -381 5 -643q1 -332 -7 -400l40 -6q11 95 6 831q60 3 150 2q34 0 68 -1q28 0 46 -1q0 -133 1 -317q1 -122 1 -254q1 -51 1 -103v-81l1 -73h41l-1 57v63
q0 41 -1 82q0 105 -1 206q0 128 -1 273q-2 640 4 778z" />
    <glyph glyph-name="i" unicode="i" horiz-adv-x="359" 
d="M191 126q2 70 3 148q4 226 8 417q9 605 4 737q42 1 86 0h15q6 -1 11 -1h8h2l1 42h-9h-9h-13q-36 1 -72 1q-114 -2 -196 -13l6 -41q50 7 129 10q5 -129 -5 -746q-3 -186 -7 -418q-1 -70 -3 -145v-26l-1 -11v-11v-28q-70 -3 -119 -10l6 -41q79 11 193 12q36 1 71 0h12h9
l5 -1h2l1 41h-4h-9q-6 0 -13 1h-17q-50 0 -97 -1q1 28 2 84z" />
    <glyph glyph-name="j" unicode="j" horiz-adv-x="440" 
d="M379 1417l1 41h-11h-12q-8 1 -15 1h-86q-135 -1 -217 -12l6 -41q66 10 172 11q2 -25 7 -85q2 -28 4 -49q2 -28 4 -55q5 -66 9 -126q11 -160 17 -336q15 -376 -12 -563q-14 -101 -70 -136q-45 -30 -144 -25l-2 -41q11 -1 32 -1q92 0 143 36q66 47 82 161q27 191 12 569
q-6 177 -17 337q-4 61 -9 128q-2 26 -5 55q-1 21 -4 49q-4 56 -6 83q42 1 86 0h14q6 0 12 -1h4h3h2z" />
    <glyph glyph-name="k" unicode="k" horiz-adv-x="558" 
d="M490 -40l38 15l-333 852q88 164 184 341q117 216 148 273l-36 20q-30 -55 -157 -291q-39 -71 -103 -190l-12 -23l-12 -21q-14 -26 -22 -42q-24 -44 -38 -70q-4 545 -16 639l-41 -5q15 -117 15 -711q2 -630 -15 -740l41 -5q17 120 16 736q3 6 23 41z" />
    <glyph glyph-name="l" unicode="l" horiz-adv-x="424" 
d="M115 8l-2 1l-2 3q-3 4 -5 11q-5 18 -8 65q-8 125 -2 474q4 283 3 583q-1 263 -3 320l41 2q2 -63 3 -319q1 -302 -3 -587q-8 -453 6 -522q22 -6 108 -8q80 -1 171 3l2 -41l-13 -1h-15q-19 -1 -33 -1q-42 -1 -74 -1q-149 0 -174 18z" />
    <glyph glyph-name="m" unicode="m" horiz-adv-x="741" 
d="M608 -10q1 404 -1 771q-2 430 -8 587q-20 -60 -55 -177q-82 -264 -110 -339q-27 -70 -47 -74q-24 -6 -47 47q-25 60 -101 302q-15 47 -25 80q-15 46 -27 82q-29 92 -47 135q-7 -118 0 -526q3 -151 8 -336q4 -145 8 -291q1 -40 2 -88q1 -17 1 -39l1 -18v-16q2 -71 2 -88
h-41q0 25 -7 248q-24 846 -18 1075q3 103 12 134q6 19 21 20q23 2 47 -54q26 -62 103 -306l6 -21l7 -22l14 -44q16 -52 28 -88q32 -97 47 -131q19 40 58 160q15 46 34 107q13 42 32 103q61 200 77 240q14 34 30 34h8l7 -7l1 -1q1 -2 2 -5q2 -6 4 -23q5 -44 8 -164
q9 -335 7 -1267h-41z" />
    <glyph glyph-name="n" unicode="n" horiz-adv-x="656" 
d="M519 -10q-23 0 -57 114q-40 134 -161 630q-54 224 -87 356q-48 191 -73 267q-9 -126 -3 -536q2 -144 6 -335q1 -66 3 -162l1 -34v-33q1 -39 2 -60q1 -51 3 -110q0 -20 1 -47v-20v-19l-40 -1q-1 27 -2 86l-1 25l-1 27q-1 32 -1 58q-19 807 -12 1059q4 178 30 187l8 4
l10 -5q30 -15 196 -697q59 -246 95 -386q52 -206 78 -285q10 137 4 594q-5 374 -17 800l41 2v-18v-9l1 -10q0 -14 1 -27l2 -72q1 -46 2 -103q3 -119 5 -230q3 -140 5 -263q8 -500 -3 -650q-4 -63 -13 -83q-5 -12 -18 -14h-5z" />
    <glyph glyph-name="o" unicode="o" horiz-adv-x="558" 
d="M154 1247q-47 -175 -50 -484q-3 -279 32 -464q35 -184 95 -245q23 -23 49 -23q32 0 60 28q59 60 90 240q30 182 25 490q-5 354 -62 513q-43 120 -112 120q-80 0 -127 -175zM202 25q-73 75 -111 295q-31 182 -29 443q4 296 45 470q55 230 174 230q122 0 175 -228
q36 -158 41 -445q1 -138 -2 -227q-5 -115 -17 -209q-31 -244 -109 -324q-39 -40 -89 -40q-43 0 -78 35z" />
    <glyph glyph-name="p" unicode="p" horiz-adv-x="428" 
d="M133 1184q0 -75 3 -181l2 -92l2 -44l1 -43q16 7 29 14q18 9 34 19q41 25 71 59q83 91 83 236q0 109 -42 177q-16 26 -38 45q-17 15 -36 24q-29 14 -59 15q-24 1 -38 -8q-13 -25 -12 -221zM111 -8q7 194 -9 754l-2 60q-10 363 -7 488q4 125 26 143t62 17q40 0 78 -19
q24 -11 44 -28q26 -22 45 -53q50 -78 50 -202q0 -269 -256 -371l1 -34q8 -307 10 -435q4 -204 -1 -322z" />
    <glyph glyph-name="q" unicode="q" horiz-adv-x="568" 
d="M136 293q-35 185 -32 474q3 311 49 485q47 175 128 175q69 0 112 -120q56 -159 62 -513q5 -318 -25 -500q-31 -181 -90 -241q-27 -27 -61 -27q-25 0 -48 23q-60 60 -95 244zM351 4v5l8 7q7 6 10 9q78 80 109 323q12 94 17 209q3 89 2 237q-5 288 -41 445
q-53 229 -175 229q-119 0 -174 -230q-41 -174 -45 -470q-2 -272 29 -454q38 -220 111 -294q35 -36 77 -36q7 0 18 2l10 3l7 1q5 -136 63 -199q49 -51 131 -51v41q-64 0 -102 38q-53 58 -55 185z" />
    <glyph glyph-name="r" unicode="r" horiz-adv-x="536" 
d="M147 1422q25 -1 59 -13q43 -15 78 -41q82 -64 97 -170q21 -179 -81 -278q-37 -36 -87 -62q-20 -10 -41 -18q-17 -7 -34 -12q-10 529 9 594zM476 17l-3 6q-2 6 -6 15q-11 26 -23 58q-39 96 -76 194q-116 308 -166 519q103 43 162 121q77 104 58 274q-17 123 -113 197
q-46 34 -101 51q-47 14 -75 10q-16 -3 -24 -29q-9 -34 -13 -126q-6 -204 10 -859q9 -371 9 -460h41q0 136 -9 461q-1 31 -2 75l-1 39l-1 39q-3 124 -4 184l6 1l6 3q8 3 12 4q51 -211 167 -520q20 -53 42 -107q16 -44 34 -87q6 -16 13 -33q5 -12 10 -25l9 -22z" />
    <glyph glyph-name="s" unicode="s" horiz-adv-x="510" 
d="M60 78l34 23q49 -69 129 -59q50 7 92 42q42 36 60 87q34 116 7 253q-26 138 -108 290q-13 25 -26 52q-18 36 -33 71q-41 93 -66 175q-69 263 8 362q35 45 77 65q31 14 64 13q42 -2 79 -27q32 -21 53 -52l-34 -23q-16 24 -40 41q-29 19 -59 21q-59 1 -108 -63
q-57 -74 -11 -287q39 -151 132 -328q87 -161 113 -307q27 -145 -10 -270q-21 -62 -72 -104q-51 -43 -113 -51q-8 -2 -24 -2q-90 0 -144 78z" />
    <glyph glyph-name="t" unicode="t" horiz-adv-x="484" 
d="M476 1464q-2 0 -7 -1q-6 0 -14 -1q-22 -1 -46 -3q-73 -4 -138 -9q-205 -15 -266 -25l6 -41q51 8 212 20v-243v-386v-774l41 -1q1 208 0 783v204v95v88v238q70 5 148 11q27 1 48 3q18 1 19 1z" />
    <glyph glyph-name="u" unicode="u" horiz-adv-x="625" 
d="M311 -10q-64 3 -113 61q-49 57 -74 158q-34 135 -33 705q0 171 4 366q1 62 3 122v21q0 8 1 16v18h42q0 -2 -1 -13q0 -14 -1 -34q-1 -53 -2 -117q-4 -191 -5 -365q-1 -577 32 -709q45 -182 150 -188q55 -3 100 41q34 32 54 85q26 69 26 168q-1 129 -5 330q-4 190 -10 389
q-2 78 -5 160q-2 64 -5 130q0 24 -1 50q-1 10 -1 21v9l-1 8q-1 34 -1 35h41q0 -1 1 -34v-8l1 -9v-21q1 -26 2 -50q3 -66 5 -130q2 -83 5 -160q6 -200 10 -390q4 -200 5 -330q0 -109 -30 -186q-23 -60 -62 -97q-55 -52 -123 -52h-9z" />
    <glyph glyph-name="v" unicode="v" horiz-adv-x="570" 
d="M281 -10q-28 4 -46 103q-17 98 -58 500l-7 58l-6 59l-13 118q-15 134 -28 232q-32 254 -63 379l40 9q31 -128 64 -381q13 -101 28 -233q9 -82 26 -236q20 -213 33 -324q19 -157 32 -214q31 116 91 601q50 380 96 809l40 -5q-22 -208 -44 -398q-31 -265 -58 -468
q-73 -575 -109 -603q-7 -6 -16 -6h-2z" />
    <glyph glyph-name="w" unicode="w" horiz-adv-x="751" 
d="M117 -4q-22 18 -25 173q-2 140 10 587l3 93l2 93q3 106 4 203q4 200 3 323h40q3 -213 -11 -713l-3 -105l-2 -105q-3 -116 -4 -199q-3 -211 4 -283q18 58 50 211q12 59 28 138l13 69q5 25 13 67q65 336 89 422q22 77 47 77t49 -86q27 -97 100 -462l10 -53l11 -54
q13 -61 22 -106q25 -118 39 -176q10 147 9 578q0 353 -7 780h42v-17v-9v-10q0 -13 1 -26v-69q1 -44 1 -88q2 -115 3 -242q1 -136 1 -254q2 -464 -8 -629q-3 -62 -9 -86q-2 -10 -4 -14l-2 -4l-3 -2l-16 -8q-22 1 -41 67q-22 81 -89 413q-35 178 -58 284q-33 157 -51 210
q-15 -48 -44 -187q-11 -50 -26 -128l-13 -65l-13 -64q-65 -339 -92 -442q-26 -101 -51 -107l-6 -1q-9 0 -16 6z" />
    <glyph glyph-name="x" unicode="x" horiz-adv-x="525" 
d="M424 1468q-16 -109 -136 -598q-108 491 -153 602l-38 -15q42 -106 169 -696q-156 -615 -206 -746l38 -15q48 123 187 670q47 -218 97 -458q17 -83 30 -149q12 -56 12 -59l41 8q-1 3 -5 25l-2 11l-3 12l-6 30q-18 86 -35 172q-57 274 -106 498q137 567 157 702z" />
    <glyph glyph-name="y" unicode="y" horiz-adv-x="483" 
d="M384 1473q-22 -81 -68 -298q-18 -84 -39 -187q-17 -79 -34 -168l-2 18q-1 11 -1 16q-24 178 -53 317q-40 188 -89 305l-38 -17q48 -114 87 -298q30 -141 52 -312q16 -123 21 -501q1 -115 1 -242v-106h41v74v162q-2 263 -9 426q0 3 6 33l2 7l1 8l4 18q5 22 8 42
q12 56 22 107q14 67 26 127q72 350 101 458z" />
    <glyph glyph-name="z" unicode="z" horiz-adv-x="507" 
d="M72 5q-12 8 -12 36q1 40 23 142q49 240 249 982q61 236 68 262q-21 3 -81 1q-22 -1 -51 -3q-20 -1 -47 -3q-99 -5 -124 -5l1 41q25 0 120 5q196 13 217 -6q8 -9 8 -20q0 -10 -71 -282q-21 -77 -38 -139q-23 -84 -44 -160q-52 -203 -90 -350q-103 -411 -100 -469
q65 -18 343 6l4 -41l-20 -2q-13 -1 -25 -1q-31 -3 -60 -4q-80 -5 -139 -5q-106 0 -131 15z" />
    <glyph glyph-name="braceleft" unicode="{" horiz-adv-x="282" 
d="M142 -23q-52 45 -52 171q0 49 8 116l7 59l5 29l4 28q16 109 16 140q0 88 -49 164q-15 24 -33 44q-6 7 -11 12l-2 2l-1 1l-1 1h-1l-22 20l26 15q80 43 97 123q12 54 -5 147q-3 13 -6 28q-31 164 -34 254q-4 121 38 159q39 36 96 33q18 -1 36 -5l6 -2l4 -2l4 -1h1l-16 -38
h-1l-3 1q-3 1 -7 2q-13 4 -25 5q-40 2 -67 -22q-34 -32 -22 -173q4 -50 15 -113q4 -24 8 -50q4 -18 8 -40q2 -15 6 -28l2 -14l2 -16q3 -19 5 -35q4 -43 -2 -79q-14 -100 -97 -157q14 -16 28 -35q17 -24 30 -52q33 -71 33 -149q0 -40 -16 -146l-4 -25l-4 -26l-7 -54
q-7 -62 -8 -108q-3 -118 38 -154q32 -27 101 -8l12 -39q-37 -10 -63 -10q-46 0 -77 27z" />
    <glyph glyph-name="bar" unicode="|" horiz-adv-x="244" 
d="M114 -160q0 1 -1 61q-1 35 -2 67q-1 45 -2 89q-2 115 -4 226q-2 141 -4 272q-11 761 -2 1044l41 -1q-9 -282 2 -1043q2 -131 4 -272q2 -111 4 -226q1 -43 2 -88q1 -32 1 -67q1 -60 1 -61z" />
    <glyph glyph-name="braceright" unicode="}" horiz-adv-x="282" 
d="M63 -50q-26 0 -63 10l12 39q68 -19 100 8q42 36 39 154q-1 46 -8 108l-8 54l-3 26l-4 25q-17 106 -17 146q0 78 34 149q13 28 30 52q13 19 28 35q-84 57 -98 157q-5 36 -1 79q1 16 4 35l3 16l2 14q3 13 6 28q4 22 7 40q5 26 9 50q10 63 15 113q12 141 -22 173
q-27 24 -67 22q-13 -1 -25 -5l-8 -2l-2 -1h-1l-17 38h2l3 1l5 2l6 2q18 4 36 5q56 3 96 -33q41 -38 37 -159q-3 -90 -34 -254q-2 -15 -5 -28q-17 -93 -5 -147q17 -80 97 -123l26 -15l-23 -20v0l-1 -1l-1 -1l-2 -2q-5 -5 -11 -12q-18 -20 -34 -44q-48 -76 -48 -164
q0 -31 16 -140l4 -28l4 -29l8 -59q8 -67 8 -116q0 -126 -52 -171q-31 -27 -77 -27z" />
    <glyph glyph-name="asciitilde" unicode="~" horiz-adv-x="627" 
d="M81 540l-1 1v2l-2 2l-1 3q-4 8 -8 17q-13 29 -19 56q-20 86 27 130t96 41q42 -1 88 -37q18 -14 39 -36q13 -13 36 -39q49 -55 72 -68q27 -14 65 -2t59 42q47 65 -34 137l27 31q51 -45 62 -95q10 -51 -21 -96q-31 -44 -84 -60q-52 -15 -93 7q-28 16 -84 77q-20 23 -31 34
q-19 19 -34 32q-38 31 -69 32q-32 2 -66 -29q-32 -30 -13 -98q5 -22 16 -45q3 -7 6 -13q1 -3 2 -4l1 -2z" />
    <glyph glyph-name="uni00A0" unicode="&#xa0;" horiz-adv-x="300" 
 />
    <glyph glyph-name="exclamdown" unicode="&#xa1;" horiz-adv-x="298" 
d="M107 993q-17 17 -17 41q0 25 17 42q18 18 42 18q25 0 42 -18q17 -17 17 -42q0 -24 -17 -41q-18 -17 -42 -17t-42 17zM129 -496q0 1 -1 41q-1 24 -2 46q-1 31 -2 61q-2 79 -4 157q-2 99 -4 193q-11 548 -2 831l41 -2q-9 -281 2 -829q2 -94 4 -192q2 -78 4 -157
q1 -31 2 -61q1 -22 1 -46q2 -40 2 -41z" />
    <glyph glyph-name="multiply" unicode="&#xd7;" horiz-adv-x="590" 
d="M355 590l-18 20l-19 21l62 67q36 39 62 67q68 74 110 125l-32 27q-42 -51 -108 -124l-60 -66l-61 -65l-58 63l-59 63q-65 72 -105 120l-31 -26q41 -50 107 -122q24 -27 59 -64l60 -65l-33 -36l-32 -36q-114 -123 -169 -184l31 -27q53 60 167 183q12 12 32 34l15 17l16 18
l18 -20l18 -19l34 -38l23 -25l23 -25q27 -29 44 -47q48 -52 79 -87l30 28q-55 61 -168 183q-14 14 -37 40z" />
    <glyph glyph-name="divide" unicode="&#xf7;" horiz-adv-x="569" 
d="M202 609q-89 6 -172 9l1 41q85 -4 173 -9q104 -6 171 -8q96 -4 162 -2l2 -41q-18 -1 -54 -1q-99 0 -283 11zM243 801q-17 17 -17 41q0 25 17 42q17 18 41 18t41 -18q18 -17 18 -42q0 -24 -18 -41q-17 -17 -41 -17t-41 17zM243 367q-17 18 -17 41q0 25 17 43q17 17 41 17
q25 0 41 -17q18 -18 18 -43q0 -23 -18 -41q-17 -17 -41 -17t-41 17z" />
    <glyph glyph-name="uni0401" unicode="&#x401;" horiz-adv-x="514" 
d="M452 36q-93 -5 -179 -4q-90 1 -112 8q-13 68 -19 734l7 1h7h19q26 1 50 1q69 1 111 -3l2 42q-42 3 -111 2q-24 0 -50 -1h-20l-8 -1h-7q-1 160 -2 367q-1 139 -1 241q15 7 80 8q26 0 59 -1q25 0 56 -2q73 -1 108 -1v40q-53 0 -107 3q-201 6 -227 -19q-10 -10 -10 -23v-38
v-60q0 -84 1 -170q1 -289 3 -495q7 -627 25 -650q19 -25 170 -25q58 0 157 5zM107 1573q-17 18 -17 41q0 25 17 43q18 17 42 17q25 0 42 -17q17 -18 17 -43q0 -23 -17 -41q-18 -17 -42 -17t-42 17zM345 1573q-17 18 -17 41q0 25 17 43q17 17 41 17t41 -17q17 -18 17 -43
q0 -23 -17 -41q-17 -17 -41 -17t-41 17z" />
    <glyph glyph-name="uni0404" unicode="&#x404;" horiz-adv-x="446" 
d="M61 728q-1 -358 19 -483q26 -153 114 -224q27 -21 67 -21q25 0 53 10q85 34 102 140l-41 7q-7 -48 -33 -78q-11 -12 -23 -20q-10 -6 -21 -10q-23 -9 -46 -7q-20 2 -32 12q-77 61 -100 197q-20 123 -18 477v10q18 1 41 1q29 1 57 1q74 0 119 -3l3 41q-45 4 -120 3
q-27 0 -57 -1q-21 -1 -43 -2q1 349 14 458q18 163 81 181q59 16 104 -16q51 -36 57 -120l40 3q-3 58 -27 99q-18 32 -47 52q-60 43 -138 22q-84 -24 -108 -188q-15 -112 -17 -498v-43z" />
    <glyph glyph-name="uni0405" unicode="&#x405;" horiz-adv-x="490" 
d="M83 78l34 23q49 -69 129 -59q50 7 92 42q42 36 60 87q34 116 7 253q-26 138 -108 290q-13 25 -26 52q-18 36 -33 71q-41 93 -66 175q-69 263 8 362q35 45 77 65q31 14 64 13q42 -2 79 -27q32 -21 53 -52l-34 -23q-16 24 -40 41q-29 19 -59 21q-59 1 -108 -63
q-57 -74 -11 -287q39 -151 132 -328q87 -161 113 -307q27 -145 -10 -270q-21 -62 -72 -104q-51 -43 -113 -51q-8 -2 -24 -2q-90 0 -144 78z" />
    <glyph glyph-name="uni0410" unicode="&#x410;" horiz-adv-x="588" 
d="M305 1060q50 316 86 349q40 -25 91 -319q50 -290 75 -637q-95 8 -328 0q37 354 76 607zM614 0q6 355 -54 841q-64 519 -139 595q-16 16 -31 16l-6 -1l-6 -1q-8 -2 -14 -9q-18 -19 -36 -75q-49 -154 -104 -603q-28 -226 -51 -487q-21 -232 -21 -281h41q0 79 33 417
q238 8 334 0q16 -240 13 -412h41z" />
    <glyph glyph-name="uni0411" unicode="&#x411;" horiz-adv-x="545" 
d="M195 31q-18 1 -34 4q-13 3 -18 7q-9 19 -8 133q1 43 3 102q1 42 4 110q9 172 7 230v1q-3 124 54 158q39 23 89 -7q63 -37 103 -128q49 -110 45 -280q-5 -138 -54 -222q-38 -63 -97 -90q-45 -20 -94 -18zM182 812q-9 -6 -18 -19l-7 -11l-7 -12q0 57 1 167v81l1 91
q1 238 0 306q85 1 192 4q56 2 86 3l-1 41q-12 0 -38 -1l-23 -1l-25 -1l-39 -1l-42 -1q-49 -1 -85 -2q-98 -1 -143 2l-4 -40q33 -3 82 -3q0 -56 -1 -211q0 -107 -1 -261q-1 -50 -1 -117q0 -50 -1 -106v-103v-1q1 -45 -7 -228q-8 -213 -6 -282q2 -78 19 -94q24 -22 87 -22
q53 0 100 19q72 31 116 102q58 93 63 249q5 183 -50 303q-46 100 -116 141q-72 43 -132 8z" />
    <glyph glyph-name="uni0412" unicode="&#x412;" horiz-adv-x="592" 
d="M136 826q14 2 29 5q20 3 38 9q48 14 86 38q107 68 121 201q9 89 -34 201q-43 96 -107 128q-55 28 -107 -17q-19 -57 -26 -565zM189 38q21 -5 45 -7q60 -4 107 18q76 35 91 131q56 349 -80 503q-49 54 -121 80q-26 10 -55 15q-20 4 -40 6q-1 -23 -1 -66q-2 -288 6 -481
q7 -161 18 -188q11 -6 30 -11zM181 -2q-30 8 -46 17q-19 12 -27 93q-18 185 -13 716q5 566 36 595q74 67 157 26q74 -38 124 -145q49 -124 39 -225q-12 -112 -83 -185q-54 -55 -138 -83q92 -30 152 -98q150 -166 91 -536q-20 -117 -116 -161q-46 -22 -106 -22q-36 0 -70 8z
" />
    <glyph glyph-name="uni0413" unicode="&#x413;" horiz-adv-x="460" 
d="M128 0q-3 51 -9 202q-8 180 -13 365q-16 534 -9 773q1 59 38 90q36 31 108 34q28 1 67 -2q23 -2 70 -7l21 -2l21 -3q24 -2 38 -3l-2 -40q-15 0 -40 3l-21 2l-22 2q-39 5 -62 7q-34 3 -60 3q-64 -1 -91 -25q-23 -18 -24 -61q-6 -236 9 -770q6 -180 13 -364q3 -71 5 -129
q2 -50 3 -73z" />
    <glyph glyph-name="uni0414" unicode="&#x414;" 
d="M116 52l-9 -3q-6 -2 -11 -2q11 23 21 51q12 37 24 79q31 109 54 249q63 390 55 957q0 8 13 14q5 3 11 5l10 2q46 10 108 -1q57 -11 63 -25q0 -140 9 -704q3 -211 6 -404q3 -183 5 -229q-165 29 -336 15q-12 -1 -23 -4zM515 32q0 17 -3 211q-2 113 -3 191q-2 118 -4 218
q-9 593 -9 726q0 11 -6 21q-8 13 -25 22q-41 24 -113 28q-75 4 -114 -18q-30 -19 -29 -49q9 -622 -69 -1029q-26 -134 -58 -230q-12 -33 -23 -59q-4 -10 -8 -18q-2 -5 -5 -10q-42 -16 -48 -32q-13 -33 -32 -116q-5 -26 -11 -55l-4 -18q0 -3 -1 -5v-3l41 -7l1 7t3 17
q5 27 11 53q17 81 29 111q7 11 57 21q101 17 266 6q154 -11 175 -30q33 -52 61 -118q10 -21 17 -41q2 -6 4 -11l1 -4v-1l39 14v2l-1 3q-2 6 -5 13q-8 20 -17 42q-29 68 -64 123q-7 11 -53 25z" />
    <glyph glyph-name="uni0415" unicode="&#x415;" horiz-adv-x="506" 
d="M444 36q-96 -5 -179 -4q-91 1 -113 9q-12 69 -17 754h13q10 1 19 1q26 0 50 1q68 0 111 -3l2 41q-43 3 -111 3q-24 0 -51 -1q-8 0 -19 -1h-9h-6q-3 360 -3 582q15 7 80 8q25 0 58 -1q25 -1 57 -2l55 -1q30 -1 53 -1v41q-52 0 -106 3q-202 6 -228 -20q-10 -9 -10 -23v-97
q1 -84 1 -171q1 -262 3 -498q7 -618 25 -641q21 -25 171 -25q66 0 156 6z" />
    <glyph glyph-name="uni0416" unicode="&#x416;" horiz-adv-x="776" 
d="M522 784q-6 0 -43 1t-67 1q-3 389 -3 658h-41q0 -93 1 -284q0 -116 1 -374q-80 0 -117 -2q4 476 -122 620q-52 60 -124 60h-2l1 -41q54 0 94 -46q100 -114 114 -473q12 -292 -31 -587q-22 -152 -63 -221q-42 -68 -110 -65l-2 -41h9q96 0 149 104q37 74 58 217
q24 165 28 431q55 3 119 3q1 -118 1 -259q1 -55 1 -118q0 -40 1 -105q1 -218 1 -221l41 1q0 1 -1 17v20v25v69q-1 45 -1 89q-1 114 -1 223q-1 137 -1 259q87 -2 111 -3q6 -270 30 -431q20 -143 58 -217q52 -104 148 -104h10l-3 41q-68 -3 -110 65q-41 69 -63 221
q-43 297 -31 587q14 359 114 473q40 46 94 46h1v41q-74 0 -127 -60q-124 -143 -122 -620z" />
    <glyph glyph-name="uni0417" unicode="&#x417;" horiz-adv-x="463" 
d="M30 72l28 30q88 -83 155 -54q61 27 98 135t39 264q1 147 -47 234q-17 33 -42 58q-10 10 -21 19l-10 8l-9 7l-9 7l-9 8q-9 8 -14 16q-12 21 2 44q11 17 24 37l24 34q79 109 89 185q15 104 1 184q-15 79 -55 116q-31 27 -61 19q-90 -22 -101 -146l-40 4q14 154 131 181
q52 13 99 -28q101 -93 67 -336q-12 -88 -96 -203l-24 -33q-13 -20 -23 -36l-1 -1v-1v0q0 -2 7 -8l7 -5l7 -6l10 -7l11 -9q13 -11 24 -21q28 -29 48 -64q53 -97 52 -257q-2 -171 -45 -288q-44 -118 -118 -149q-25 -10 -51 -10q-71 0 -147 72z" />
    <glyph glyph-name="uni0418" unicode="&#x418;" 
d="M132 0q-13 2 -18 14q-9 20 -13 83q-11 150 -4 650q2 123 5 263q3 111 6 230q1 47 2 93l2 72q1 13 1 27v10l1 9v18l41 -2q-13 -416 -17 -790q-6 -457 4 -594q25 79 78 285q35 140 95 386q104 428 141 559q36 129 55 138l8 5l10 -4q25 -9 30 -187q6 -252 -12 -1070
q-1 -25 -2 -57v-27l-1 -25q-1 -59 -2 -86l-41 1q1 27 2 86l1 25l1 27q0 32 1 58q0 21 1 60l1 33l1 34q2 106 3 172q4 191 6 335q5 410 -4 536q-24 -76 -72 -267q-33 -132 -87 -356q-121 -496 -161 -630q-34 -114 -58 -114h-4z" />
    <glyph glyph-name="uni0419" unicode="&#x419;" 
d="M132 0q-13 2 -18 14q-9 20 -13 83q-11 150 -4 650q2 123 5 263q3 111 6 230q1 47 2 93l2 72q1 13 1 27v10l1 9v18l41 -2q-13 -416 -17 -790q-6 -457 4 -594q25 79 78 285q35 140 95 386q104 428 141 559q36 129 55 138l8 5l10 -4q25 -9 30 -187q6 -252 -12 -1070
q-1 -25 -2 -57v-27l-1 -25q-1 -59 -2 -86l-41 1q1 27 2 86l1 25l1 27q0 32 1 58q0 21 1 60l1 33l1 34q2 106 3 172q4 191 6 335q5 410 -4 536q-24 -76 -72 -267q-33 -132 -87 -356q-121 -496 -161 -630q-34 -114 -58 -114h-4zM339 1554q-28 1 -91 97q-22 32 -46 73
q-8 14 -17 29q-6 11 -10 20l35 19q37 -66 74 -121q33 -50 52 -69q18 28 41 65q18 30 39 66q8 14 17 29q6 10 13 22l12 21l36 -20l-13 -24q-8 -13 -15 -25q-10 -16 -19 -31q-23 -40 -43 -72q-25 -40 -44 -68q-7 -11 -20 -11h-1z" />
    <glyph glyph-name="uni041A" unicode="&#x41a;" horiz-adv-x="589" 
d="M490 -40l39 15l-335 852q88 164 184 341q117 216 149 273l-36 20q-33 -59 -158 -291q-103 -191 -187 -347q-4 544 -15 640l-41 -5q13 -115 15 -711q0 -643 -15 -750l40 -5q18 120 16 746q8 13 23 41z" />
    <glyph glyph-name="uni041B" unicode="&#x41b;" horiz-adv-x="660" 
d="M0 23q101 73 128 359q11 110 12 265q0 61 -1 138l-1 68l-1 97l-1 47l-1 46q-1 54 -1 88q0 109 30 187q24 59 63 96q58 56 131 52l28 -1l26 -1l26 -2q30 -4 50 -15q51 -29 53 -113q2 -87 7 -310q3 -201 9 -463l13 -561l-41 -1q0 5 -13 561q-6 289 -9 464q-6 224 -7 309
q-2 60 -32 78q-20 11 -83 13l-15 1h-14q-55 3 -101 -41q-34 -31 -54 -84q-26 -70 -26 -169q2 -84 3 -180l1 -102l1 -72q1 -81 1 -144q-2 -161 -14 -274q-30 -287 -143 -369z" />
    <glyph glyph-name="uni041C" unicode="&#x41c;" horiz-adv-x="741" 
d="M677 -10q1 404 -1 771q-2 430 -8 587q-20 -60 -55 -177q-82 -264 -110 -339q-27 -70 -47 -74q-24 -6 -47 47q-25 60 -101 302q-15 47 -25 80q-15 46 -27 82q-29 92 -47 135q-7 -118 0 -526q3 -151 8 -336q4 -145 8 -291q1 -40 2 -88q1 -17 1 -39l1 -18v-16q2 -71 2 -88
h-41q0 25 -7 248q-24 846 -18 1075q3 103 12 134q6 19 21 20q23 2 47 -54q26 -62 103 -306l6 -21l7 -22l14 -44q16 -52 28 -88q32 -97 47 -131q19 40 58 160q15 46 34 107q13 42 32 103q61 200 77 240q14 34 30 34h8l7 -7l1 -1q1 -2 2 -5q2 -6 4 -23q5 -44 8 -164
q9 -335 7 -1267h-41z" />
    <glyph glyph-name="uni041D" unicode="&#x41d;" horiz-adv-x="536" 
d="M484 1464q-4 -91 -4 -592q-19 0 -47 1q-33 1 -67 1q-90 1 -151 -2l-1 89l-1 88q-3 350 -3 413l-40 1q-1 -64 2 -414q5 -381 5 -643q1 -332 -7 -400l40 -6q11 95 6 831q60 3 150 2q34 0 68 -1q28 0 46 -1q0 -133 1 -317q1 -122 1 -254q1 -51 1 -103v-81l1 -73h41l-1 57v63
q0 41 -1 82q0 105 -1 206q0 128 -1 273q-2 640 4 778z" />
    <glyph glyph-name="uni041E" unicode="&#x41e;" horiz-adv-x="558" 
d="M141 1247q-47 -175 -50 -484q-3 -279 32 -464q35 -184 95 -245q23 -23 49 -23q32 0 60 28q59 60 90 240q30 182 25 490q-5 354 -62 513q-43 120 -112 120q-80 0 -127 -175zM189 25q-73 75 -111 295q-31 182 -29 443q4 296 45 470q55 230 174 230q122 0 175 -228
q36 -158 41 -445q1 -138 -2 -227q-5 -115 -17 -209q-31 -244 -109 -324q-39 -40 -89 -40q-43 0 -78 35z" />
    <glyph glyph-name="uni041F" unicode="&#x41f;" horiz-adv-x="607" 
d="M102 0v43l-1 10v11v26q0 33 -1 62q-1 83 -2 161q-1 100 -2 194q-3 240 -4 423q-2 229 -2 358q0 92 45 135q30 28 79 35q19 2 43 2h21l21 -1l6 -1h24l15 -1h15q17 -1 31 -4q36 -6 61 -23q66 -44 66 -172q0 -172 -4 -708q-4 -543 -5 -550h-41q0 1 2 170q0 94 1 174
q1 110 1 206q5 572 5 708q0 103 -46 136q-27 20 -102 22l-13 1h-13l-6 1l-36 1q-21 0 -36 -1q-39 -5 -61 -25q-32 -31 -32 -105q0 -129 2 -358q1 -183 4 -423q1 -94 2 -194q1 -78 2 -161q0 -29 1 -62v-26v-11v-10q1 -42 1 -43h-41z" />
    <glyph glyph-name="uni0420" unicode="&#x420;" horiz-adv-x="458" 
d="M133 1184q0 -75 3 -181l2 -92l2 -44l1 -43q16 7 29 14q18 9 34 19q41 25 71 59q83 91 83 236q0 109 -42 177q-16 26 -38 45q-17 15 -36 24q-29 14 -59 15q-24 1 -38 -8q-13 -25 -12 -221zM111 -8q7 194 -9 754l-2 60q-10 363 -7 488q4 125 26 143t62 17q40 0 78 -19
q24 -11 44 -28q26 -22 45 -53q50 -78 50 -202q0 -269 -256 -371l1 -34q8 -307 10 -435q4 -204 -1 -322z" />
    <glyph glyph-name="uni0421" unicode="&#x421;" horiz-adv-x="594" 
d="M277 24q-73 62 -101 253q-20 136 -26 483q-7 361 37 520q44 160 158 185q84 19 150 -29q75 -55 83 -168l-40 -4q-8 95 -67 138q-51 38 -117 23q-95 -21 -133 -173q-37 -153 -30 -491q6 -332 24 -464q25 -188 89 -241q37 -32 96 -23q134 21 146 132l41 -4
q-17 -143 -182 -169l-31 -2q-56 0 -97 34z" />
    <glyph glyph-name="uni0422" unicode="&#x422;" horiz-adv-x="484" 
d="M479 1464q-2 0 -7 -1q-6 0 -14 -1q-22 -1 -46 -3q-73 -4 -138 -9q-205 -15 -266 -25l6 -41q51 8 212 20v-243v-386v-774l41 -1q1 208 0 783v204v95v88v238q70 5 148 11q27 1 48 3q18 1 19 1z" />
    <glyph glyph-name="uni0423" unicode="&#x423;" horiz-adv-x="424" 
d="M354 1465q-11 -90 -57 -285q-18 -74 -41 -164q-16 -63 -38 -145q-13 145 -62 332q-43 160 -88 268l-38 -16q65 -153 112 -355q53 -231 40 -362q-15 -156 -70 -472q-9 -51 -19 -104q-9 -42 -17 -85q-3 -16 -7 -32q-2 -12 -5 -25l-4 -22l41 -8q0 1 1 6q1 7 3 16q5 26 12 57
q18 95 36 188q54 316 70 474q0 3 8 31q4 15 8 29q5 19 10 37q29 107 53 202q78 306 92 431z" />
    <glyph glyph-name="uni0424" unicode="&#x424;" horiz-adv-x="907" 
d="M625 133q-75 16 -107 51q-33 35 -51 118v249q0 126 -1 291v133v110v105h1q6 65 48 96q54 38 134 23q88 -18 122 -152q35 -133 29 -428q-7 -275 -19 -375q-19 -164 -73 -207q-32 -25 -83 -14zM200 147q-54 43 -74 207q-12 100 -18 375q-6 295 28 428q35 134 122 152
q83 17 131 -24q35 -28 36 -103v-318v-116q1 -286 0 -449q0 -63 -38 -107q-38 -45 -105 -59q-50 -11 -82 14zM491 1319q-15 -10 -25 -20v150h-42v-12v-13q1 -9 1 -17v-103l-3 3l-2 3l-2 4l-3 3q-62 53 -165 31q-107 -21 -148 -162q-42 -140 -35 -458q6 -290 20 -395
q22 -167 87 -218q33 -26 79 -26q22 0 38 5q85 18 134 90q0 -147 -1 -184h42v83q0 63 1 120q47 -88 150 -109q16 -5 38 -5q45 0 78 26q64 51 87 218q14 107 20 395q7 318 -34 458q-41 141 -148 162q-94 20 -167 -29z" />
    <glyph glyph-name="uni0425" unicode="&#x425;" horiz-adv-x="465" 
d="M371 1468q-16 -109 -136 -598q-108 491 -153 602l-38 -15q42 -106 169 -696q-156 -615 -206 -746l38 -15q48 123 187 670q47 -218 97 -458q17 -83 30 -149q12 -56 12 -59l41 8q-1 3 -5 25l-2 11l-3 12l-6 30q-18 86 -35 172q-57 274 -106 498q137 567 157 702z" />
    <glyph glyph-name="uni0426" unicode="&#x426;" horiz-adv-x="680" 
d="M494 59q23 37 23 103q0 129 -2 359q-2 182 -4 433q-1 93 -3 194q0 78 -1 160q-1 30 -1 62q0 12 -1 26v12v10v43h-41v-43l1 -10v-12v-26q0 -32 1 -62q1 -82 2 -160q1 -101 2 -194q6 -558 6 -792q0 -73 -33 -104q-21 -20 -60 -25q-25 -3 -73 0l-6 1h-25q-75 2 -103 22
q-45 33 -45 137q0 76 1 288q1 168 3 429q1 97 2 206q0 80 1 174q1 169 1 171h-41q0 -2 -1 -170q-1 -94 -2 -175q0 -109 -1 -205q-4 -581 -4 -718q0 -128 66 -173q25 -17 61 -23q14 -2 31 -3l15 -1h15h25l5 -1l45 -2q73 0 115 37h2q3 0 6 -1q10 -3 20 -11q9 -8 17 -20
q10 -17 17 -39q19 -59 19 -156h41q0 190 -70 247q-18 16 -26 12z" />
    <glyph glyph-name="uni0427" unicode="&#x427;" horiz-adv-x="545" 
d="M413 1457q2 -361 2 -451q0 -54 -38 -90q-50 -48 -121 -47q-56 1 -85 21q-35 23 -54 83q-14 46 -15 229q-1 62 1 137q2 60 4 118l-40 1v-7q0 -6 -1 -14q-1 -22 -2 -47q-2 -74 -3 -141q-1 -229 17 -289q24 -75 70 -106q39 -25 107 -26h4q87 0 146 58q3 3 5 10l2 6l3 5v-907
h40v1006q0 90 -1 451h-41z" />
    <glyph glyph-name="uni0428" unicode="&#x428;" horiz-adv-x="1010" 
d="M868 1471v-43v-10v-12q1 -14 1 -26v-62q1 -82 2 -160q2 -101 3 -194q2 -261 4 -444q2 -229 2 -359q0 -72 -33 -103q-21 -21 -61 -25q-15 -2 -35 -2l-36 2l-7 1h-11h-12q-79 2 -108 23q-48 34 -48 139h-1q0 135 -1 360q-2 180 -4 431q-1 90 -2 186q-1 74 -2 153
q0 28 -1 59v24v11v10q-1 39 -1 41h-41q0 -2 1 -43v-10v-12v-26q1 -32 1 -62q1 -82 2 -160q1 -101 2 -194q6 -569 6 -803q0 -71 -33 -101q-23 -22 -67 -27q-18 -2 -40 -2q-14 0 -38 2l-6 1h-13h-13q-75 2 -102 22q-45 34 -45 137q0 75 1 288q2 165 3 439q1 93 2 206v92l1 43
v20v19q1 168 1 171h-41q0 -2 -1 -170q-1 -94 -1 -175q-1 -109 -2 -206q-2 -271 -3 -439q-1 -213 -1 -288q0 -128 66 -173q25 -17 61 -23q14 -2 31 -3l15 -1h14h25l6 -1l22 -1l23 -1q87 0 131 41q22 22 31 46q21 -52 73 -71q21 -7 48 -10l25 -2l23 -1h22l6 -1l22 -1l22 -1
q80 0 119 38q45 43 45 133q0 130 -1 359q-2 183 -5 444q-1 93 -2 194q-1 78 -2 160q0 30 -1 62v26v12v10q-1 41 -1 43h-40z" />
    <glyph glyph-name="uni0429" unicode="&#x429;" horiz-adv-x="1080" 
d="M921 169q0 234 -6 782q-1 94 -2 194q-1 78 -2 161q0 30 -1 62v26v11v11q-1 41 -1 42l-41 -1q0 -3 2 -152q2 -159 4 -354q6 -537 6 -782q0 -75 -32 -105q-21 -19 -61 -24q-16 -2 -36 -1l-36 1l-6 1h-11l-12 1q-79 2 -108 23q-48 34 -48 138h-1q0 245 -6 772q-1 90 -2 186
q-1 74 -2 152v60q-1 11 -1 24v11v10q-1 39 -1 40l-40 -1v-42v-10v-12q1 -13 1 -25q0 -33 1 -63q1 -82 1 -160q2 -100 3 -194q2 -240 4 -423q2 -230 2 -359q0 -70 -33 -101q-24 -22 -68 -27q-17 -3 -39 -2q-14 0 -38 1l-6 1q-17 0 -26 1q-75 2 -102 21q-45 33 -45 137
q0 75 1 288q1 168 3 419q1 97 2 206q0 81 1 174q1 169 1 170l-41 1q0 -1 -1 -170q-1 -93 -1 -174q-1 -109 -2 -206q-2 -251 -3 -420q-1 -213 -1 -288q-1 -128 65 -172q25 -17 61 -23q14 -2 32 -4h15l14 -1h24l6 -1q28 -1 46 -1q20 0 40 2q25 4 46 12q54 20 78 63
q24 -51 74 -66q19 -5 46 -7l23 -1l23 -1h22l7 -1q28 -1 44 -1q80 0 119 38l2 2q0 1 2 1h5q7 -1 14 -7t13 -16q9 -15 14 -37q16 -60 9 -167l41 -2q14 229 -69 264q14 37 14 95z" />
    <glyph glyph-name="uni042A" unicode="&#x42a;" horiz-adv-x="544" 
d="M288 65q47 29 82 80q66 95 74 230t-46 242q-32 66 -84 108q-67 56 -161 65q-1 -38 -1 -121q-3 -266 -3 -395q-1 -198 3 -243q75 -4 136 34zM133 -9q-12 2 -16 12q-6 17 -9 75q-3 90 2 592q4 314 4 478q0 245 -7 277q-31 21 -182 4l-5 41q28 3 54 4q37 3 67 2
q81 -2 100 -27q17 -21 12 -618q193 -17 282 -196q59 -119 50 -263q-9 -145 -81 -251q-91 -131 -240 -131z" />
    <glyph glyph-name="uni042B" unicode="&#x42b;" horiz-adv-x="701" 
d="M564 -3l1 58v63q0 42 1 83q0 146 1 247q0 127 1 241q2 664 -4 771l41 2q6 -107 4 -758q-1 -112 -2 -239q0 -98 -1 -248v-84v-36l-1 -31v-69h-41zM275 75q46 29 81 80q66 95 74 230q9 135 -45 242q-32 66 -84 108q-68 56 -162 65q-10 -661 -1 -759q76 -4 137 34zM120 1
q-12 2 -16 14q-6 19 -9 83q-5 126 3 658q2 124 4 266q2 112 4 233l2 94q1 35 1 73q2 64 2 65l40 -1q0 -24 -1 -75l-2 -77q-1 -93 -3 -161q-3 -190 -5 -332q194 -19 282 -196q58 -119 50 -263q-9 -145 -82 -251q-90 -131 -240 -131z" />
    <glyph glyph-name="uni042C" unicode="&#x42c;" horiz-adv-x="531" 
d="M275 75q46 29 81 80q66 95 74 230q9 135 -45 242q-32 66 -84 108q-68 56 -162 65q-10 -661 -1 -759q76 -4 137 34zM120 1q-12 2 -16 14q-6 19 -9 83q-5 126 3 658q2 124 4 266q2 112 4 233l2 94q1 35 1 73q2 64 2 65l40 -1q0 -24 -1 -75l-2 -77q-1 -93 -3 -161
q-3 -190 -5 -332q194 -19 282 -196q59 -118 50 -263t-82 -251q-90 -131 -240 -131z" />
    <glyph glyph-name="uni042D" unicode="&#x42d;" horiz-adv-x="466" 
d="M385 771q-2 386 -17 498q-24 164 -108 188q-78 21 -138 -22q-29 -20 -47 -52q-24 -41 -27 -99l40 -3q6 84 57 120q45 32 104 16q63 -18 81 -181q13 -109 14 -458q-22 1 -43 2q-30 1 -57 1q-75 1 -120 -3l3 -41q45 3 119 3q28 0 57 -1q23 0 41 -1v-10q2 -354 -18 -477
q-23 -136 -100 -197q-12 -10 -32 -12q-23 -2 -46 7q-11 4 -21 10q-12 8 -23 20q-26 30 -33 78l-41 -7q17 -106 102 -140q28 -10 53 -10q40 0 67 21q88 71 114 224q20 125 19 483v43z" />
    <glyph glyph-name="uni042E" unicode="&#x42e;" horiz-adv-x="800" 
d="M492 41q-26 0 -49 24q-60 60 -95 244t-32 423q3 331 50 505q47 175 127 175q69 0 113 -120q57 -159 62 -533q8 -566 -116 -690q-26 -28 -60 -28zM323 1236q-42 -165 -47 -470q-22 1 -58 2q-45 0 -84 -2q2 587 -3 680l-41 -3q6 -107 3 -791q0 -114 -1 -242q0 -100 -1 -207
v-82q0 -31 -1 -63v-58h41v76v16v18q1 21 1 39v93q1 120 2 226v257q35 2 83 2q17 -1 35 -1q7 0 13 -1h6h4q-1 -219 30 -399q37 -216 109 -291q34 -35 78 -35q51 0 89 40q79 80 110 324q11 94 16 209q3 90 1 187q-4 306 -40 465q-52 228 -175 228q-115 0 -170 -217z" />
    <glyph glyph-name="uni042F" unicode="&#x42f;" horiz-adv-x="542" 
d="M369 819q-21 8 -41 18q-52 26 -90 62q-104 100 -82 259q14 106 97 168q36 28 80 43q36 13 62 13q19 -65 8 -574q-17 5 -34 11zM331 1411q-57 -17 -103 -52q-96 -74 -113 -195q-20 -150 59 -254q59 -78 165 -121q-52 -190 -170 -499q-37 -96 -76 -193q-7 -17 -14 -33
q-5 -13 -10 -25q-2 -5 -4 -9q-1 -4 -2 -7l-3 -6l38 -17l9 22q5 13 10 25q7 17 14 33q17 43 34 87q22 54 42 107q118 309 170 501l6 -3l7 -2q8 -3 12 -4q-5 -214 -8 -317q-10 -367 -10 -441h41q0 119 10 440q17 635 10 819q-3 92 -13 126q-7 26 -23 29q-31 4 -78 -11z" />
    <glyph glyph-name="uni0430" unicode="&#x430;" horiz-adv-x="520" 
d="M256 1060q50 316 86 349q40 -25 91 -319q50 -290 75 -637q-95 8 -328 0q37 354 76 607zM565 0q6 355 -54 841q-64 519 -139 595q-16 16 -31 16l-6 -1l-6 -1q-8 -2 -14 -9q-18 -19 -36 -75q-49 -154 -104 -603q-28 -226 -51 -487q-21 -232 -21 -281h41q0 79 33 417
q238 8 334 0q16 -240 13 -412h41z" />
    <glyph glyph-name="uni0431" unicode="&#x431;" horiz-adv-x="545" 
d="M195 31q-18 1 -34 4q-13 3 -18 7q-9 19 -8 133q1 43 3 102q1 42 4 110q9 172 7 230v1q-3 124 54 158q39 23 89 -7q63 -37 103 -128q49 -110 45 -280q-5 -138 -54 -222q-38 -63 -97 -90q-45 -20 -94 -18zM182 812q-9 -6 -18 -19l-7 -11l-7 -12q0 57 1 167v81l1 91
q1 238 0 306q85 1 192 4q56 2 86 3l-1 41q-12 0 -38 -1l-23 -1l-25 -1l-39 -1l-42 -1q-49 -1 -85 -2q-98 -1 -143 2l-4 -40q33 -3 82 -3q0 -56 -1 -211q0 -107 -1 -261q-1 -50 -1 -117q0 -50 -1 -106v-103v-1q1 -45 -7 -228q-8 -213 -6 -282q2 -78 19 -94q24 -22 87 -22
q53 0 100 19q72 31 116 102q58 93 63 249q5 183 -50 303q-46 100 -116 141q-72 43 -132 8z" />
    <glyph glyph-name="uni0432" unicode="&#x432;" horiz-adv-x="592" 
d="M136 826q14 2 29 5q20 3 38 9q48 14 86 38q107 68 121 201q9 89 -34 201q-43 96 -107 128q-55 28 -107 -17q-19 -57 -26 -565zM189 38q21 -5 45 -7q60 -4 107 18q76 35 91 131q56 349 -80 503q-49 54 -121 80q-26 10 -55 15q-20 4 -40 6q-1 -23 -1 -66q-2 -288 6 -481
q7 -161 18 -188q11 -6 30 -11zM181 -2q-30 8 -46 17q-19 12 -27 93q-18 185 -13 716q5 566 36 595q74 67 157 26q74 -38 124 -145q49 -124 39 -225q-12 -112 -83 -185q-54 -55 -138 -83q92 -30 152 -98q150 -166 91 -536q-20 -117 -116 -161q-46 -22 -106 -22q-36 0 -70 8z
" />
    <glyph glyph-name="uni0433" unicode="&#x433;" horiz-adv-x="460" 
d="M128 0q-3 51 -9 202q-8 180 -13 365q-16 534 -9 773q1 59 38 90q36 31 108 34q28 1 67 -2q23 -2 70 -7l21 -2l21 -3q24 -2 38 -3l-2 -40q-15 0 -40 3l-21 2l-22 2q-39 5 -62 7q-34 3 -60 3q-64 -1 -91 -25q-23 -18 -24 -61q-6 -236 9 -770q6 -180 13 -364q3 -71 5 -129
q2 -50 3 -73z" />
    <glyph glyph-name="uni0434" unicode="&#x434;" 
d="M116 52l-9 -3q-6 -2 -11 -2q11 23 21 51q12 37 24 79q31 109 54 249q63 390 55 957q0 8 13 14q5 3 11 5l10 2q46 10 108 -1q57 -11 63 -25q0 -140 9 -704q3 -211 6 -404q3 -183 5 -229q-165 29 -336 15q-12 -1 -23 -4zM515 32q0 17 -3 211q-2 113 -3 191q-2 118 -4 218
q-9 593 -9 726q0 11 -6 21q-8 13 -25 22q-41 24 -113 28q-75 4 -114 -18q-30 -19 -29 -49q9 -622 -69 -1029q-26 -134 -58 -230q-12 -33 -23 -59q-4 -10 -8 -18q-2 -5 -5 -10q-42 -16 -48 -32q-13 -33 -32 -116q-5 -26 -11 -55l-4 -18q0 -3 -1 -5v-3l41 -7l1 7t3 17
q5 27 11 53q17 81 29 111q7 11 57 21q101 17 266 6q154 -11 175 -30q33 -52 61 -118q10 -21 17 -41q2 -6 4 -11l1 -4v-1l39 14v2l-1 3q-2 6 -5 13q-8 20 -17 42q-29 68 -64 123q-7 11 -53 25z" />
    <glyph glyph-name="uni0435" unicode="&#x435;" horiz-adv-x="506" 
d="M444 36q-96 -5 -179 -4q-91 1 -113 9q-12 69 -17 754h13q10 1 19 1q26 0 50 1q68 0 111 -3l2 41q-43 3 -111 3q-24 0 -51 -1q-8 0 -19 -1h-9h-6q-3 360 -3 582q15 7 80 8q25 0 58 -1q25 -1 57 -2l55 -1q30 -1 53 -1v41q-52 0 -106 3q-202 6 -228 -20q-10 -9 -10 -23v-97
q1 -84 1 -171q1 -262 3 -498q7 -618 25 -641q21 -25 171 -25q66 0 156 6z" />
    <glyph glyph-name="uni0436" unicode="&#x436;" horiz-adv-x="776" 
d="M522 784q-6 0 -43 1t-67 1q-3 389 -3 658h-41q0 -93 1 -284q0 -116 1 -374q-80 0 -117 -2q4 476 -122 620q-52 60 -124 60h-2l1 -41q54 0 94 -46q100 -114 114 -473q12 -292 -31 -587q-22 -152 -63 -221q-42 -68 -110 -65l-2 -41h9q96 0 149 104q37 74 58 217
q24 165 28 431q55 3 119 3q1 -118 1 -259q1 -55 1 -118q0 -40 1 -105q1 -218 1 -221l41 1q0 1 -1 17v20v25v69q-1 45 -1 89q-1 114 -1 223q-1 137 -1 259q87 -2 111 -3q6 -270 30 -431q20 -143 58 -217q52 -104 148 -104h10l-3 41q-68 -3 -110 65q-41 69 -63 221
q-43 297 -31 587q14 359 114 473q40 46 94 46h1v41q-74 0 -127 -60q-124 -143 -122 -620z" />
    <glyph glyph-name="uni0437" unicode="&#x437;" horiz-adv-x="463" 
d="M30 72l28 30q88 -83 155 -54q61 27 98 135t39 264q1 147 -47 234q-17 33 -42 58q-10 10 -21 19l-10 8l-9 7l-9 7l-9 8q-9 8 -14 16q-12 21 2 44q11 17 24 37l24 34q79 109 89 185q15 104 1 184q-15 79 -55 116q-31 27 -61 19q-90 -22 -101 -146l-40 4q14 154 131 181
q52 13 99 -28q101 -93 67 -336q-12 -88 -96 -203l-24 -33q-13 -20 -23 -36l-1 -1v-1v0q0 -2 7 -8l7 -5l7 -6l10 -7l11 -9q13 -11 24 -21q28 -29 48 -64q53 -97 52 -257q-2 -171 -45 -288q-44 -118 -118 -149q-25 -10 -51 -10q-71 0 -147 72z" />
    <glyph glyph-name="uni0438" unicode="&#x438;" 
d="M132 0q-13 2 -18 14q-9 20 -13 83q-11 150 -4 650q2 123 5 263q3 111 6 230q1 47 2 93l2 72q1 13 1 27v10l1 9v18l41 -2q-13 -416 -17 -790q-6 -457 4 -594q25 79 78 285q35 140 95 386q104 428 141 559q36 129 55 138l8 5l10 -4q25 -9 30 -187q6 -252 -12 -1070
q-1 -25 -2 -57v-27l-1 -25q-1 -59 -2 -86l-41 1q1 27 2 86l1 25l1 27q0 32 1 58q0 21 1 60l1 33l1 34q2 106 3 172q4 191 6 335q5 410 -4 536q-24 -76 -72 -267q-33 -132 -87 -356q-121 -496 -161 -630q-34 -114 -58 -114h-4z" />
    <glyph glyph-name="uni0439" unicode="&#x439;" 
d="M132 0q-13 2 -18 14q-9 20 -13 83q-11 150 -4 650q2 123 5 263q3 111 6 230q1 47 2 93l2 72q1 13 1 27v10l1 9v18l41 -2q-13 -416 -17 -790q-6 -457 4 -594q25 79 78 285q35 140 95 386q104 428 141 559q36 129 55 138l8 5l10 -4q25 -9 30 -187q6 -252 -12 -1070
q-1 -25 -2 -57v-27l-1 -25q-1 -59 -2 -86l-41 1q1 27 2 86l1 25l1 27q0 32 1 58q0 21 1 60l1 33l1 34q2 106 3 172q4 191 6 335q5 410 -4 536q-24 -76 -72 -267q-33 -132 -87 -356q-121 -496 -161 -630q-34 -114 -58 -114h-4zM339 1554q-28 1 -91 97q-22 32 -46 73
q-8 14 -17 29q-6 11 -10 20l35 19q37 -66 74 -121q33 -50 52 -69q18 28 41 65q18 30 39 66q8 14 17 29q6 10 13 22l12 21l36 -20l-13 -24q-8 -13 -15 -25q-10 -16 -19 -31q-23 -40 -43 -72q-25 -40 -44 -68q-7 -11 -20 -11h-1z" />
    <glyph glyph-name="uni043A" unicode="&#x43a;" horiz-adv-x="589" 
d="M490 -40l39 15l-335 852q88 164 184 341q117 216 149 273l-36 20q-33 -59 -158 -291q-103 -191 -187 -347q-4 544 -15 640l-41 -5q13 -115 15 -711q0 -643 -15 -750l40 -5q18 120 16 746q8 13 23 41z" />
    <glyph glyph-name="uni043B" unicode="&#x43b;" horiz-adv-x="660" 
d="M0 23q101 73 128 359q11 110 12 265q0 61 -1 138l-1 68l-1 97l-1 47l-1 46q-1 54 -1 88q0 109 30 187q24 59 63 96q58 56 131 52l28 -1l26 -1l26 -2q30 -4 50 -15q51 -29 53 -113q2 -87 7 -310q3 -201 9 -463l13 -561l-41 -1q0 5 -13 561q-6 289 -9 464q-6 224 -7 309
q-2 60 -32 78q-20 11 -83 13l-15 1h-14q-55 3 -101 -41q-34 -31 -54 -84q-26 -70 -26 -169q2 -84 3 -180l1 -102l1 -72q1 -81 1 -144q-2 -161 -14 -274q-30 -287 -143 -369z" />
    <glyph glyph-name="uni043C" unicode="&#x43c;" horiz-adv-x="741" 
d="M608 -10q1 404 -1 771q-2 430 -8 587q-20 -60 -55 -177q-82 -264 -110 -339q-27 -70 -47 -74q-24 -6 -47 47q-25 60 -101 302q-15 47 -25 80q-15 46 -27 82q-29 92 -47 135q-7 -118 0 -526q3 -151 8 -336q4 -145 8 -291q1 -40 2 -88q1 -17 1 -39l1 -18v-16q2 -71 2 -88
h-41q0 25 -7 248q-24 846 -18 1075q3 103 12 134q6 19 21 20q23 2 47 -54q26 -62 103 -306l6 -21l7 -22l14 -44q16 -52 28 -88q32 -97 47 -131q19 40 58 160q15 46 34 107q13 42 32 103q61 200 77 240q14 34 30 34h8l7 -7l1 -1q1 -2 2 -5q2 -6 4 -23q5 -44 8 -164
q9 -335 7 -1267h-41z" />
    <glyph glyph-name="uni043D" unicode="&#x43d;" horiz-adv-x="536" 
d="M405 1464q-4 -91 -4 -592q-19 0 -47 1q-33 1 -67 1q-90 1 -151 -2l-1 89l-1 88q-3 350 -3 413l-40 1q-1 -64 2 -414q5 -381 5 -643q1 -332 -7 -400l40 -6q11 95 6 831q60 3 150 2q34 0 68 -1q28 0 46 -1q0 -133 1 -317q1 -122 1 -254q1 -51 1 -103v-81l1 -73h41l-1 57v63
q0 41 -1 82q0 105 -1 206q0 128 -1 273q-2 640 4 778z" />
    <glyph glyph-name="uni043E" unicode="&#x43e;" horiz-adv-x="558" 
d="M154 1247q-47 -175 -50 -484q-3 -279 32 -464q35 -184 95 -245q23 -23 49 -23q32 0 60 28q59 60 90 240q30 182 25 490q-5 354 -62 513q-43 120 -112 120q-80 0 -127 -175zM202 25q-73 75 -111 295q-31 182 -29 443q4 296 45 470q55 230 174 230q122 0 175 -228
q36 -158 41 -445q1 -138 -2 -227q-5 -115 -17 -209q-31 -244 -109 -324q-39 -40 -89 -40q-43 0 -78 35z" />
    <glyph glyph-name="uni043F" unicode="&#x43f;" horiz-adv-x="607" 
d="M102 0v43l-1 10v11v26q0 33 -1 62q-1 83 -2 161q-1 100 -2 194q-3 240 -4 423q-2 229 -2 358q0 92 45 135q30 28 79 35q19 2 43 2h21l21 -1l6 -1h24l15 -1h15q17 -1 31 -4q36 -6 61 -23q66 -44 66 -172q0 -172 -4 -708q-4 -543 -5 -550h-41q0 1 2 170q0 94 1 174
q1 110 1 206q5 572 5 708q0 103 -46 136q-27 20 -102 22l-13 1h-13l-6 1l-36 1q-21 0 -36 -1q-39 -5 -61 -25q-32 -31 -32 -105q0 -129 2 -358q1 -183 4 -423q1 -94 2 -194q1 -78 2 -161q0 -29 1 -62v-26v-11v-10q1 -42 1 -43h-41z" />
    <glyph glyph-name="uni0440" unicode="&#x440;" horiz-adv-x="458" 
d="M133 1184q0 -75 3 -181l2 -92l2 -44l1 -43q16 7 29 14q18 9 34 19q41 25 71 59q83 91 83 236q0 109 -42 177q-16 26 -38 45q-17 15 -36 24q-29 14 -59 15q-24 1 -38 -8q-13 -25 -12 -221zM111 -8q7 194 -9 754l-2 60q-10 363 -7 488q4 125 26 143t62 17q40 0 78 -19
q24 -11 44 -28q26 -22 45 -53q50 -78 50 -202q0 -269 -256 -371l1 -34q8 -307 10 -435q4 -204 -1 -322z" />
    <glyph glyph-name="uni0441" unicode="&#x441;" horiz-adv-x="470" 
d="M270 24q-73 62 -101 253q-20 136 -26 483q-7 361 37 520q44 160 158 185q84 19 150 -29q75 -55 83 -168l-40 -4q-8 95 -67 138q-51 38 -117 23q-95 -21 -133 -173q-37 -153 -30 -491q6 -332 24 -464q25 -188 89 -241q37 -32 96 -23q134 21 146 132l41 -4
q-17 -143 -182 -169l-31 -2q-56 0 -97 34z" />
    <glyph glyph-name="uni0442" unicode="&#x442;" horiz-adv-x="484" 
d="M476 1464q-2 0 -7 -1q-6 0 -14 -1q-22 -1 -46 -3q-73 -4 -138 -9q-205 -15 -266 -25l6 -41q51 8 212 20v-243v-386v-774l41 -1q1 208 0 783v204v95v88v238q70 5 148 11q27 1 48 3q18 1 19 1z" />
    <glyph glyph-name="uni0443" unicode="&#x443;" horiz-adv-x="424" 
d="M354 1465q-11 -90 -57 -285q-18 -74 -41 -164q-16 -63 -38 -145q-13 145 -62 332q-43 160 -88 268l-38 -16q65 -153 112 -355q53 -231 40 -362q-15 -156 -70 -472q-9 -51 -19 -104q-9 -42 -17 -85q-3 -16 -7 -32q-2 -12 -5 -25l-4 -22l41 -8q0 1 1 6q1 7 3 16q5 26 12 57
q18 95 36 188q54 316 70 474q0 3 8 31q4 15 8 29q5 19 10 37q29 107 53 202q78 306 92 431z" />
    <glyph glyph-name="uni0444" unicode="&#x444;" horiz-adv-x="907" 
d="M625 133q-75 16 -107 51q-33 35 -51 118v249q0 126 -1 291v133v110v105h1q6 65 48 96q54 38 134 23q88 -18 122 -152q35 -133 29 -428q-7 -275 -19 -375q-19 -164 -73 -207q-32 -25 -83 -14zM200 147q-54 43 -74 207q-12 100 -18 375q-6 295 28 428q35 134 122 152
q83 17 131 -24q35 -28 36 -103v-318v-116q1 -286 0 -449q0 -63 -38 -107q-38 -45 -105 -59q-50 -11 -82 14zM491 1319q-15 -10 -25 -20v150h-42v-12v-13q1 -9 1 -17v-103l-3 3l-2 3l-2 4l-3 3q-62 53 -165 31q-107 -21 -148 -162q-42 -140 -35 -458q6 -290 20 -395
q22 -167 87 -218q33 -26 79 -26q22 0 38 5q85 18 134 90q0 -147 -1 -184h42v83q0 63 1 120q47 -88 150 -109q16 -5 38 -5q45 0 78 26q64 51 87 218q14 107 20 395q7 318 -34 458q-41 141 -148 162q-94 20 -167 -29z" />
    <glyph glyph-name="uni0445" unicode="&#x445;" horiz-adv-x="465" 
d="M394 1468q-16 -109 -136 -598q-108 491 -153 602l-38 -15q42 -106 169 -696q-156 -615 -206 -746l38 -15q48 123 187 670q47 -218 97 -458q17 -83 30 -149q12 -56 12 -59l41 8q-1 3 -5 25l-2 11l-3 12l-6 30q-18 86 -35 172q-57 274 -106 498q137 567 157 702z" />
    <glyph glyph-name="uni0446" unicode="&#x446;" horiz-adv-x="680" 
d="M494 59q23 37 23 103q0 129 -2 359q-2 182 -4 433q-1 93 -3 194q0 78 -1 160q-1 30 -1 62q0 12 -1 26v12v10v43h-41v-43l1 -10v-12v-26q0 -32 1 -62q1 -82 2 -160q1 -101 2 -194q6 -558 6 -792q0 -73 -33 -104q-21 -20 -60 -25q-25 -3 -73 0l-6 1h-25q-75 2 -103 22
q-45 33 -45 137q0 76 1 288q1 168 3 429q1 97 2 206q0 80 1 174q1 169 1 171h-41q0 -2 -1 -170q-1 -94 -2 -175q0 -109 -1 -205q-4 -581 -4 -718q0 -128 66 -173q25 -17 61 -23q14 -2 31 -3l15 -1h15h25l5 -1l45 -2q73 0 115 37h2q3 0 6 -1q10 -3 20 -11q9 -8 17 -20
q10 -17 17 -39q19 -59 19 -156h41q0 190 -70 247q-18 16 -26 12z" />
    <glyph glyph-name="uni0447" unicode="&#x447;" horiz-adv-x="545" 
d="M413 1457q2 -361 2 -451q0 -54 -38 -90q-50 -48 -121 -47q-56 1 -85 21q-35 23 -54 83q-14 46 -15 229q-1 62 1 137q2 60 4 118l-40 1v-7q0 -6 -1 -14q-1 -22 -2 -47q-2 -74 -3 -141q-1 -229 17 -289q24 -75 70 -106q39 -25 107 -26h4q87 0 146 58q3 3 5 10l2 6l3 5v-907
h40v1006q0 90 -1 451h-41z" />
    <glyph glyph-name="uni0448" unicode="&#x448;" horiz-adv-x="1010" 
d="M868 1471v-43v-10v-12q1 -14 1 -26v-62q1 -82 2 -160q2 -101 3 -194q2 -261 4 -444q2 -229 2 -359q0 -72 -33 -103q-21 -21 -61 -25q-15 -2 -35 -2l-36 2l-7 1h-11h-12q-79 2 -108 23q-48 34 -48 139h-1q0 135 -1 360q-2 180 -4 431q-1 90 -2 186q-1 74 -2 153
q0 28 -1 59v24v11v10q-1 39 -1 41h-41q0 -2 1 -43v-10v-12v-26q1 -32 1 -62q1 -82 2 -160q1 -101 2 -194q6 -569 6 -803q0 -71 -33 -101q-23 -22 -67 -27q-18 -2 -40 -2q-14 0 -38 2l-6 1h-13h-13q-75 2 -102 22q-45 34 -45 137q0 75 1 288q2 165 3 439q1 93 2 206v92l1 43
v20v19q1 168 1 171h-41q0 -2 -1 -170q-1 -94 -1 -175q-1 -109 -2 -206q-2 -271 -3 -439q-1 -213 -1 -288q0 -128 66 -173q25 -17 61 -23q14 -2 31 -3l15 -1h14h25l6 -1l22 -1l23 -1q87 0 131 41q22 22 31 46q21 -52 73 -71q21 -7 48 -10l25 -2l23 -1h22l6 -1l22 -1l22 -1
q80 0 119 38q45 43 45 133q0 130 -1 359q-2 183 -5 444q-1 93 -2 194q-1 78 -2 160q0 30 -1 62v26v12v10q-1 41 -1 43h-40z" />
    <glyph glyph-name="uni0449" unicode="&#x449;" horiz-adv-x="1080" 
d="M921 169q0 234 -6 782q-1 94 -2 194q-1 78 -2 161q0 30 -1 62v26v11v11q-1 41 -1 42l-41 -1q0 -3 2 -152q2 -159 4 -354q6 -537 6 -782q0 -75 -32 -105q-21 -19 -61 -24q-16 -2 -36 -1l-36 1l-6 1h-11l-12 1q-79 2 -108 23q-48 34 -48 138h-1q0 245 -6 772q-1 90 -2 186
q-1 74 -2 152v60q-1 11 -1 24v11v10q-1 39 -1 40l-40 -1v-42v-10v-12q1 -13 1 -25q0 -33 1 -63q1 -82 1 -160q2 -100 3 -194q2 -240 4 -423q2 -230 2 -359q0 -70 -33 -101q-24 -22 -68 -27q-17 -3 -39 -2q-14 0 -38 1l-6 1q-17 0 -26 1q-75 2 -102 21q-45 33 -45 137
q0 75 1 288q1 168 3 419q1 97 2 206q0 81 1 174q1 169 1 170l-41 1q0 -1 -1 -170q-1 -93 -1 -174q-1 -109 -2 -206q-2 -251 -3 -420q-1 -213 -1 -288q-1 -128 65 -172q25 -17 61 -23q14 -2 32 -4h15l14 -1h24l6 -1q28 -1 46 -1q20 0 40 2q25 4 46 12q54 20 78 63
q24 -51 74 -66q19 -5 46 -7l23 -1l23 -1h22l7 -1q28 -1 44 -1q80 0 119 38l2 2q0 1 2 1h5q7 -1 14 -7t13 -16q9 -15 14 -37q16 -60 9 -167l41 -2q14 229 -69 264q14 37 14 95z" />
    <glyph glyph-name="uni044A" unicode="&#x44a;" horiz-adv-x="544" 
d="M288 65q47 29 82 80q66 95 74 230t-46 242q-32 66 -84 108q-67 56 -161 65q-1 -38 -1 -121q-3 -266 -3 -395q-1 -198 3 -243q75 -4 136 34zM133 -9q-12 2 -16 12q-6 17 -9 75q-3 90 2 592q4 314 4 478q0 245 -7 277q-31 21 -182 4l-5 41q28 3 54 4q37 3 67 2
q81 -2 100 -27q17 -21 12 -618q193 -17 282 -196q59 -119 50 -263q-9 -145 -81 -251q-91 -131 -240 -131z" />
    <glyph glyph-name="uni044B" unicode="&#x44b;" horiz-adv-x="701" 
d="M564 -3l1 58v63q0 42 1 83q0 146 1 247q0 127 1 241q2 664 -4 771l41 2q6 -107 4 -758q-1 -112 -2 -239q0 -98 -1 -248v-84v-36l-1 -31v-69h-41zM275 75q46 29 81 80q66 95 74 230q9 135 -45 242q-32 66 -84 108q-68 56 -162 65q-10 -661 -1 -759q76 -4 137 34zM120 1
q-12 2 -16 14q-6 19 -9 83q-5 126 3 658q2 124 4 266q2 112 4 233l2 94q1 35 1 73q2 64 2 65l40 -1q0 -24 -1 -75l-2 -77q-1 -93 -3 -161q-3 -190 -5 -332q194 -19 282 -196q58 -119 50 -263q-9 -145 -82 -251q-90 -131 -240 -131z" />
    <glyph glyph-name="uni044C" unicode="&#x44c;" horiz-adv-x="531" 
d="M275 75q46 29 81 80q66 95 74 230q9 135 -45 242q-32 66 -84 108q-68 56 -162 65q-10 -661 -1 -759q76 -4 137 34zM120 1q-12 2 -16 14q-6 19 -9 83q-5 126 3 658q2 124 4 266q2 112 4 233l2 94q1 35 1 73q2 64 2 65l40 -1q0 -24 -1 -75l-2 -77q-1 -93 -3 -161
q-3 -190 -5 -332q194 -19 282 -196q59 -118 50 -263t-82 -251q-90 -131 -240 -131z" />
    <glyph glyph-name="uni044D" unicode="&#x44d;" horiz-adv-x="466" 
d="M385 771q-2 386 -17 498q-24 164 -108 188q-78 21 -138 -22q-29 -20 -47 -52q-24 -41 -27 -99l40 -3q6 84 57 120q45 32 104 16q63 -18 81 -181q13 -109 14 -458q-22 1 -43 2q-30 1 -57 1q-75 1 -120 -3l3 -41q45 3 119 3q28 0 57 -1q23 0 41 -1v-10q2 -354 -18 -477
q-23 -136 -100 -197q-12 -10 -32 -12q-23 -2 -46 7q-11 4 -21 10q-12 8 -23 20q-26 30 -33 78l-41 -7q17 -106 102 -140q28 -10 53 -10q40 0 67 21q88 71 114 224q20 125 19 483v43z" />
    <glyph glyph-name="uni044E" unicode="&#x44e;" horiz-adv-x="800" 
d="M492 41q-26 0 -49 24q-60 60 -95 244t-32 423q3 331 50 505q47 175 127 175q69 0 113 -120q57 -159 62 -533q8 -566 -116 -690q-26 -28 -60 -28zM323 1236q-42 -165 -47 -470q-22 1 -58 2q-45 0 -84 -2q2 587 -3 680l-41 -3q6 -107 3 -791q0 -114 -1 -242q0 -100 -1 -207
v-82q0 -31 -1 -63v-58h41v76v16v18q1 21 1 39v93q1 120 2 226v257q35 2 83 2q17 -1 35 -1q7 0 13 -1h6h4q-1 -219 30 -399q37 -216 109 -291q34 -35 78 -35q51 0 89 40q79 80 110 324q11 94 16 209q3 90 1 187q-4 306 -40 465q-52 228 -175 228q-115 0 -170 -217z" />
    <glyph glyph-name="uni044F" unicode="&#x44f;" horiz-adv-x="542" 
d="M369 819q-21 8 -41 18q-52 26 -90 62q-104 100 -82 259q14 106 97 168q36 28 80 43q36 13 62 13q19 -65 8 -574q-17 5 -34 11zM331 1411q-57 -17 -103 -52q-96 -74 -113 -195q-20 -150 59 -254q59 -78 165 -121q-52 -190 -170 -499q-37 -96 -76 -193q-7 -17 -14 -33
q-5 -13 -10 -25q-2 -5 -4 -9q-1 -4 -2 -7l-3 -6l38 -17l9 22q5 13 10 25q7 17 14 33q17 43 34 87q22 54 42 107q118 309 170 501l6 -3l7 -2q8 -3 12 -4q-5 -214 -8 -317q-10 -367 -10 -441h41q0 119 10 440q17 635 10 819q-3 92 -13 126q-7 26 -23 29q-31 4 -78 -11z" />
    <glyph glyph-name="uni0451" unicode="&#x451;" horiz-adv-x="514" 
d="M452 36q-93 -5 -179 -4q-90 1 -112 8q-13 68 -19 734l7 1h7h19q26 1 50 1q69 1 111 -3l2 42q-42 3 -111 2q-24 0 -50 -1h-20l-8 -1h-7q-1 160 -2 367q-1 139 -1 241q15 7 80 8q26 0 59 -1q25 0 56 -2q73 -1 108 -1v40q-53 0 -107 3q-201 6 -227 -19q-10 -10 -10 -23v-38
v-60q0 -84 1 -170q1 -289 3 -495q7 -627 25 -650q19 -25 170 -25q58 0 157 5zM107 1573q-17 18 -17 41q0 25 17 43q18 17 42 17q25 0 42 -17q17 -18 17 -43q0 -23 -17 -41q-18 -17 -42 -17t-42 17zM345 1573q-17 18 -17 41q0 25 17 43q17 17 41 17t41 -17q17 -18 17 -43
q0 -23 -17 -41q-17 -17 -41 -17t-41 17z" />
    <glyph glyph-name="uni0454" unicode="&#x454;" horiz-adv-x="446" 
d="M61 728q-1 -358 19 -483q26 -153 114 -224q27 -21 67 -21q25 0 53 10q85 34 102 140l-41 7q-7 -48 -33 -78q-11 -12 -23 -20q-10 -6 -21 -10q-23 -9 -46 -7q-20 2 -32 12q-77 61 -100 197q-20 123 -18 477v10q18 1 41 1q29 1 57 1q74 0 119 -3l3 41q-45 4 -120 3
q-27 0 -57 -1q-21 -1 -43 -2q1 349 14 458q18 163 81 181q59 16 104 -16q51 -36 57 -120l40 3q-3 58 -27 99q-18 32 -47 52q-60 43 -138 22q-84 -24 -108 -188q-15 -112 -17 -498v-43z" />
    <glyph glyph-name="uni0455" unicode="&#x455;" horiz-adv-x="446" 
d="M73 78l34 23q49 -69 129 -59q50 7 92 42q42 36 60 87q34 116 7 253q-26 138 -108 290q-13 25 -26 52q-18 36 -33 71q-41 93 -66 175q-69 263 8 362q35 45 77 65q31 14 64 13q42 -2 79 -27q32 -21 53 -52l-34 -23q-16 24 -40 41q-29 19 -59 21q-59 1 -108 -63
q-57 -74 -11 -287q39 -151 132 -328q87 -161 113 -307q27 -145 -10 -270q-21 -62 -72 -104q-51 -43 -113 -51q-8 -2 -24 -2q-90 0 -144 78z" />
    <glyph glyph-name="quoteleft" unicode="&#x2018;" horiz-adv-x="215" 
d="M185 1549h-1l-2 -2l-5 -5q-8 -8 -16 -18q-24 -30 -39 -65q-47 -109 6 -224l-37 -17q-61 132 -4 259q18 40 45 75q9 11 18 21q3 2 5 5l2 1v1z" />
    <glyph glyph-name="quoteright" unicode="&#x2019;" horiz-adv-x="215" 
d="M58 1580v-1l2 -1q2 -3 5 -5q9 -10 18 -21q27 -35 45 -75q57 -127 -4 -259l-37 17q53 115 6 224q-15 35 -39 65q-8 10 -16 18l-5 5l-2 2h-1z" />
    <glyph glyph-name="quotesinglbase" unicode="&#x201a;" horiz-adv-x="215" 
d="M30 -167h1l2 2l5 5q8 8 16 18q24 30 39 65q47 109 -6 224l37 17q61 -132 4 -259q-18 -40 -45 -75q-9 -11 -18 -21q-3 -2 -5 -5l-2 -1v-1z" />
    <glyph glyph-name="quotereversed" unicode="&#x201b;" horiz-adv-x="284" 
d="M219 1190l-1 1l-1 2q-2 3 -4 7q-8 12 -16 25q-26 42 -51 83q-78 129 -116 193l35 21q38 -64 116 -193q14 -22 28 -45q12 -19 23 -37q4 -8 9 -15q3 -5 7 -11l2 -4l2 -3l2 -3z" />
    <glyph glyph-name="quotedblleft" unicode="&#x201c;" horiz-adv-x="355" 
d="M325 1549h-1l-2 -2l-5 -5q-8 -8 -16 -18q-24 -30 -39 -65q-47 -109 6 -224l-37 -17q-61 132 -4 259q18 40 45 75q9 11 18 21q3 2 5 5l2 1v1zM185 1549h-1l-2 -2l-5 -5q-8 -8 -16 -18q-24 -30 -39 -65q-47 -109 6 -224l-37 -17q-61 132 -4 259q18 40 45 75q9 11 18 21
q3 2 5 5l2 1v1z" />
    <glyph glyph-name="quotedblright" unicode="&#x201d;" horiz-adv-x="355" 
d="M30 1249h1l2 2l5 5q8 8 16 18q24 30 39 65q47 109 -6 224l37 17q61 -132 4 -259q-18 -40 -45 -75q-9 -11 -18 -21q-3 -2 -5 -5l-2 -1v-1zM170 1249h1l2 2l5 5q8 8 16 18q24 30 39 65q47 109 -6 224l37 17q61 -132 4 -259q-18 -40 -45 -75q-9 -11 -18 -21q-3 -2 -5 -5
l-2 -1v-1z" />
    <glyph glyph-name="quotedblbase" unicode="&#x201e;" horiz-adv-x="355" 
d="M-46 25h1l2 2l5 5q8 8 16 18q24 30 39 65q47 109 -6 224l37 17q61 -132 4 -259q-18 -40 -45 -75q-9 -11 -18 -21q-3 -2 -5 -5l-2 -1v-1zM94 25h1l2 2l5 5q8 8 16 18q24 30 39 65q47 109 -6 224l37 17q61 -132 4 -259q-18 -40 -45 -75q-9 -11 -18 -21q-3 -2 -5 -5l-2 -1
v-1z" />
    <glyph glyph-name="guilsinglleft" unicode="&#x2039;" horiz-adv-x="392" 
d="M329 303l-1 1l-1 2l-7 7q-11 12 -23 26q-40 45 -77 88q-121 140 -184 224l-2 3l-2 4q-2 6 -2 14q2 21 23 59q62 109 278 353l31 -28q-285 -321 -291 -383q62 -83 181 -220q37 -43 76 -87q12 -14 23 -26q3 -4 6 -7l2 -2l1 -1z" />
    <glyph glyph-name="guilsinglright" unicode="&#x203a;" horiz-adv-x="392" 
d="M32 330l1 1l2 2q3 3 6 7q11 12 23 26q39 44 76 87q119 137 181 220q-6 62 -291 383l31 28q216 -244 277 -353q22 -38 24 -59q0 -8 -2 -14l-2 -4l-2 -3q-63 -84 -184 -224q-38 -43 -77 -88q-12 -14 -23 -26l-7 -7l-2 -2v-1z" />
    <glyph glyph-name="fraction" unicode="&#x2044;" horiz-adv-x="1093" 
d="M0 -37q1 1 4 6t8 12q15 21 32 45q53 76 110 159q182 262 339 489q499 725 564 844l36 -20q-66 -120 -555 -830q-155 -226 -337 -488q-59 -85 -115 -165q-19 -27 -35 -50q-6 -9 -11 -16l-4 -5l-2 -4z" />
    <glyph glyph-name="Euro" unicode="&#x20ac;" horiz-adv-x="611" 
d="M508 202v-6l-1 -7q0 -9 -2 -19q-5 -27 -18 -49q-39 -66 -138 -79q-59 -7 -95 24q-53 46 -74 191q-16 107 -22 358q80 3 193 11q37 2 73 5q12 1 23 2h7h2h1l-3 41h-1h-1h-6q-10 -1 -21 -2q-36 -3 -73 -5q-115 -8 -195 -11l-1 59v3q-1 49 -1 77q80 3 195 11q37 2 74 5
q12 1 23 2h7l2 1h1l-3 41l-2 -1h-6q-10 -1 -22 -2q-36 -2 -73 -5q-117 -8 -196 -11q-1 294 38 426q38 131 125 150q67 15 117 -22q59 -44 67 -138l41 3q-9 113 -84 168q-65 48 -149 29q-106 -23 -151 -162q-46 -139 -45 -456q-57 -1 -80 1l-4 -41q15 -1 42 -1q18 0 42 1
q0 -29 1 -76v-4l1 -60q-58 -2 -82 1l-4 -41q15 -2 42 -2q19 0 45 1q6 -265 24 -375q24 -149 86 -203q41 -35 99 -35q14 0 28 2q102 13 154 77q43 54 40 124z" />
    <glyph glyph-name="minus" unicode="&#x2212;" horiz-adv-x="534" 
d="M504 570h-22h-48q-75 1 -142 1q-210 3 -262 8l4 41q50 -5 264 -8q67 0 142 -1h46h18v-41z" />
    <glyph glyph-name="approxequal" unicode="&#x2248;" horiz-adv-x="761" 
d="M432 760q-23 12 -44 36q-8 10 -16 23l-16 23q-30 47 -51 63q-34 25 -87 19q-81 -10 -122 -88q-13 -25 -20 -54l-4 -18q-1 -3 -1 -6v-2v0l-41 4q3 27 13 57q13 35 33 63q51 74 137 84q70 9 116 -25q17 -13 34 -35l15 -20l13 -20q35 -54 61 -69q72 -39 146 -1q33 18 55 50
q30 44 37 110l41 -5q-15 -140 -114 -191q-42 -22 -91 -22q-51 0 -94 24zM432 517q-23 13 -44 37q-8 10 -16 23l-16 23q-30 47 -51 63q-34 25 -87 18q-81 -9 -122 -87q-13 -25 -20 -54l-4 -18q-1 -3 -1 -6v-2v-1l-41 5q3 27 13 57q13 35 33 63q51 74 137 84q70 9 116 -25
q17 -14 34 -35l15 -20l13 -20q35 -54 61 -69q72 -39 146 -1q33 17 55 50q30 43 37 110l41 -5q-15 -140 -114 -191q-42 -22 -91 -22q-51 0 -94 23z" />
    </font>
</defs>
</svg>
