<?xml version="1.0" standalone="no"?>
<!DOCTYPE svg PUBLIC "-//W3C//DTD SVG 1.1//EN" "http://www.w3.org/Graphics/SVG/1.1/DTD/svg11.dtd" >
<svg xmlns="http://www.w3.org/2000/svg" xmlns:xlink="http://www.w3.org/1999/xlink" version="1.1">
<metadata>
Created by FontForge 20160405 at Wed Jun 21 16:38:03 2017
 By www-data
Typeface (c) WildOnes Design. 2017. All Rights Reserved
</metadata>
<defs>
<font id="MonlySerif-Bold" horiz-adv-x="623" >
  <font-face 
    font-family="Monly Serif"
    font-weight="700"
    font-stretch="normal"
    units-per-em="2048"
    panose-1="2 11 8 6 3 5 4 2 2 4"
    ascent="1638"
    descent="-410"
    x-height="1477"
    cap-height="1525"
    bbox="-80 -493 1149 1862"
    underline-thickness="102"
    underline-position="-205"
    unicode-range="U+0020-2248"
  />
<missing-glyph horiz-adv-x="1259" 
 />
    <glyph glyph-name=".notdef" horiz-adv-x="1259" 
 />
    <glyph glyph-name="null" horiz-adv-x="0" 
 />
    <glyph glyph-name="nonmarkingreturn" horiz-adv-x="1044" 
 />
    <glyph glyph-name="space" unicode=" " horiz-adv-x="300" 
 />
    <glyph glyph-name="exclam" unicode="!" horiz-adv-x="339" 
d="M120 234l1 56v62v80q1 103 1 201q1 124 1 235q1 647 -5 754l103 5q6 -109 5 -744q-1 -203 -2 -436q0 -78 -1 -147v-45v-22zM113 3q-23 24 -23 57q0 32 23 56q24 23 57 23q32 0 56 -23q23 -24 23 -56q0 -33 -23 -57q-24 -23 -56 -23q-33 0 -57 23z" />
    <glyph glyph-name="quotedbl" unicode="&#x22;" horiz-adv-x="338" 
d="M30 1185v2v3l1 3v9l1 11q1 16 2 31q0 20 1 39q4 112 -4 190l102 10q8 -84 5 -201q-1 -36 -4 -73v-13q-1 -4 -1 -9v-4v-3l-1 -3zM197 1185v2v3v3q0 4 1 9v11q1 16 2 31q1 20 2 39q3 112 -5 190l103 10q8 -84 4 -201q-1 -36 -3 -73l-1 -13v-9l-1 -4v-3v-3z" />
    <glyph glyph-name="numbersign" unicode="#" horiz-adv-x="1030" 
d="M420 726q18 153 33 282l94 2l95 2q-6 -56 -16 -140l-17 -142q-66 -1 -189 -4zM736 994l72 1q42 1 69 1q76 1 123 2l-1 102h-25q-24 0 -55 -1q-83 -1 -171 -2q46 404 51 507l-103 5q-4 -94 -52 -514l-94 -2l-95 -2q46 409 52 513l-103 5q-5 -97 -53 -521q-263 -8 -321 -16
l14 -102q57 8 295 15q-20 -174 -33 -283q-222 -6 -276 -14l14 -102q46 7 250 14q-15 -125 -31 -260q-13 -107 -27 -218q-5 -43 -11 -86l-8 -66q-1 -12 -3 -24l-1 -10l-1 -9q-2 -15 -2 -16l102 -13l28 229q14 115 27 219q16 135 30 257q89 2 190 4q-30 -249 -58 -482
q-26 -208 -27 -214l102 -13q1 6 3 24q3 21 6 48q9 74 20 159q30 251 58 480q185 4 309 5l-1 102h-30q-27 0 -64 -1q-97 -1 -202 -3q21 181 33 282z" />
    <glyph glyph-name="dollar" unicode="$" horiz-adv-x="595" 
d="M248 1437q2 -155 2 -429q-95 264 -41 382q12 29 39 47zM350 61q1 153 1 440q88 -231 47 -361q-13 -43 -48 -79zM517 1274v169l-7 12q-40 68 -161 89q0 63 -2 101l-102 -4q1 -37 2 -101q-96 -28 -132 -108q-55 -121 -7 -316q35 -143 142 -375q-1 -427 -2 -723
q-43 5 -67 39v138h-103v-168l8 -13q58 -95 161 -100v-51v-14v-6l102 -1l1 30v61q108 53 146 177q39 124 -5 297q-32 127 -123 319l-4 9l-4 9q-5 12 -8 18q0 507 -1 682q46 -13 64 -32v-138h102z" />
    <glyph glyph-name="percent" unicode="%" horiz-adv-x="1056" 
d="M169 -33q0 1 24 64q14 38 27 72q18 47 35 92q46 120 88 233q55 143 103 272q282 748 323 874l97 -31q-41 -129 -317 -862q-89 -235 -191 -504q-34 -89 -64 -170q-11 -29 -20 -52q-7 -19 -10 -25zM193 1367q-28 -91 -30 -239q-2 -111 19 -204q21 -92 55 -127q8 -9 17 -12
l6 -2l5 -1q21 0 37 17q71 72 65 344q-4 181 -40 260q-13 30 -31 44q-14 10 -30 10q-44 0 -73 -90zM164 725q-65 65 -90 214q-9 53 -12 113q-1 22 -2 45v33q3 241 71 348q51 82 135 82q125 0 174 -169q17 -59 24 -138q3 -29 4 -61q1 -12 1 -25v-12l1 -10q3 -132 -15 -231
q-23 -129 -80 -187q-46 -47 -110 -47q-57 0 -101 45zM717 636q-29 -91 -31 -239q-1 -111 20 -204q20 -92 55 -127q8 -9 16 -12l6 -2h5q21 0 37 16q71 73 66 344q-4 181 -40 260q-14 30 -32 44q-14 10 -30 10q-44 0 -72 -90zM688 -6q-65 65 -90 215q-9 52 -13 112
q-1 22 -1 45q-1 17 0 33q3 241 70 348q51 82 135 82q126 0 174 -169q18 -59 25 -138q2 -28 4 -61q0 -12 1 -25v-12v-10q3 -132 -14 -230q-23 -130 -80 -188q-46 -47 -111 -47q-56 0 -100 45z" />
    <glyph glyph-name="ampersand" unicode="&#x26;" horiz-adv-x="828" 
d="M280 42q-20 -1 -43 21q-73 73 -72 238q0 195 121 375q52 -140 188 -386q-67 -163 -161 -235q-17 -13 -33 -13zM316 1412q13 15 24 15h1q22 0 42 -45q5 -12 9 -25q6 -17 10 -36q10 -49 9 -102q-2 -150 -92 -311q-83 309 -29 458q11 29 26 46zM716 587l15 -5l12 -4l24 -7
l31 98l-8 2q-8 3 -21 7q-33 10 -69 21q-110 35 -178 60l-33 -97q20 -7 47 -17l51 -17q-21 -63 -35 -110q-18 -59 -32 -100q-105 196 -144 309q-10 28 -18 51q142 210 155 409q5 74 -9 142q-10 50 -28 93q-47 109 -139 107q-95 -3 -142 -128q-74 -201 51 -606l-6 -9l-7 -8
q-164 -217 -169 -465q-4 -216 101 -322q52 -51 114 -51q50 0 95 35q93 70 162 207q39 -68 79 -133q14 -22 25 -41q5 -7 8 -12l2 -4l2 -2l86 54l-1 2q-1 1 -3 4q-4 6 -9 15q-16 25 -33 54q-55 91 -105 179q15 43 32 96l16 48l14 47l34 108q16 -5 33 -10z" />
    <glyph glyph-name="quotesingle" unicode="'" horiz-adv-x="171" 
d="M30 1182v2v3l1 3v9l1 11q1 16 2 31q0 20 1 39q4 112 -4 190l102 10q8 -84 5 -201q-1 -36 -4 -73v-13q-1 -4 -1 -9v-4v-3l-1 -3z" />
    <glyph glyph-name="parenleft" unicode="(" horiz-adv-x="441" 
d="M349 -171l-1 2l-2 4q-2 5 -5 11q-8 17 -16 36q-25 58 -49 125q-72 205 -107 424q-109 689 180 1279l92 -46q-274 -559 -166 -1226q34 -210 102 -405q22 -62 45 -115q7 -17 13 -31q2 -5 4 -8l1 -3l1 -1z" />
    <glyph glyph-name="parenright" unicode=")" horiz-adv-x="442" 
d="M0 -142l1 1l1 3q1 3 4 8q6 14 13 31q23 53 45 115q68 196 102 405q108 668 -166 1226l92 46q290 -590 180 -1279q-35 -219 -107 -424q-24 -67 -49 -125q-8 -19 -16 -36q-3 -6 -5 -11l-2 -4l-1 -2z" />
    <glyph glyph-name="asterisk" unicode="*" horiz-adv-x="658" 
d="M628 1258q-2 0 -70 5q-37 2 -69 5q-42 2 -81 5q63 127 86 180l-95 39q-17 -41 -77 -161q-72 125 -99 167l-86 -57q25 -38 94 -157q-145 7 -201 7l1 -102q55 0 215 -9q-20 -39 -42 -81q-17 -34 -35 -69l-14 -26q-5 -10 -11 -21q-9 -18 -10 -18l91 -48q4 6 33 63
q32 62 69 134q36 -64 72 -130q12 -22 22 -40l8 -15l91 49q-2 3 -11 19q-10 18 -23 42q-36 65 -73 131q39 -3 80 -6q31 -2 65 -4l62 -4z" />
    <glyph glyph-name="plus" unicode="+" horiz-adv-x="612" 
d="M582 596l-6 103q-1 -1 -18 -2q-21 -1 -48 -2q-78 -3 -154 -5q0 187 -6 252l-102 -10q6 -63 5 -243q-132 0 -211 9l-12 -102q77 -9 222 -9q-1 -48 -2 -101q-1 -42 -1 -86q-1 -17 -1 -33q-1 -13 -1 -26v-24l102 -3q0 5 1 28q1 27 1 61q3 95 4 184q75 2 155 5q26 1 50 3h15
l5 1h2z" />
    <glyph glyph-name="comma" unicode="," horiz-adv-x="259" 
d="M30 -145l1 1l1 2q2 2 5 4q7 7 13 16q21 27 35 58q41 97 -6 199l94 43q56 -124 18 -248q-14 -48 -42 -91q-23 -36 -50 -60z" />
    <glyph glyph-name="hyphen" unicode="-" horiz-adv-x="605" 
d="M30 569l2 103q133 -3 349 -2q38 0 76 1h61h23q9 0 17 1h7h4h5l1 -103h-7h-8h-11q-15 0 -30 -1h-39q-49 0 -97 -1h-116q-147 0 -237 2z" />
    <glyph glyph-name="period" unicode="." horiz-adv-x="219" 
d="M53 3q-23 24 -23 57q0 32 23 56q24 23 57 23q32 0 56 -23q23 -24 23 -56q0 -33 -23 -57q-24 -23 -56 -23q-33 0 -57 23z" />
    <glyph glyph-name="slash" unicode="/" horiz-adv-x="545" 
d="M415 1576l-385 -1622l100 -24l385 1622z" />
    <glyph glyph-name="zero" unicode="0" horiz-adv-x="597" 
d="M214 1252q-46 -178 -49 -500q-2 -239 30 -427q33 -189 84 -241q11 -11 19 -11q7 0 13 2q8 4 17 13q52 53 80 236q27 183 23 454q-5 376 -61 531q-19 53 -42 75q-9 8 -17 11q-4 1 -7 2l-5 1q-47 0 -85 -146zM256 -22q-26 10 -49 33q-77 77 -115 306q-32 192 -30 436
q7 747 237 747q134 0 190 -234q40 -167 45 -486q3 -262 -21 -444q-33 -240 -112 -321q-44 -45 -103 -45q-21 0 -42 8z" />
    <glyph glyph-name="one" unicode="1" horiz-adv-x="505" 
d="M333 83q0 25 1 47q0 31 1 62q2 79 3 157q4 214 7 396q10 532 10 702q0 31 -16 50q-6 7 -14 12l-12 6q-37 13 -79 -24q-28 -24 -104 -117q-25 -32 -38 -48q-21 -24 -32 -35l71 -74q22 21 79 92l10 12l10 12q13 17 22 27q-2 -216 -11 -693q-3 -167 -6 -351q-2 -70 -3 -137
q-1 -53 -2 -96h-135v-103h350v103h-112z" />
    <glyph glyph-name="two" unicode="2" horiz-adv-x="551" 
d="M487 200h-103v-107q-141 -12 -204 -10q13 33 38 87l9 20l9 21q11 24 20 45q23 52 43 99q50 122 87 227q98 286 101 481q4 351 -110 441q-52 41 -115 25q-71 -18 -121 -109q-42 -77 -50 -162l103 -9q5 59 34 116q30 57 60 64q13 4 25 -6q4 -3 8 -8q6 -6 11 -14
q14 -23 24 -58q30 -99 28 -279q-2 -181 -98 -455q-35 -101 -84 -219q-19 -44 -41 -96q-9 -19 -19 -43l-9 -20l-9 -19q-45 -100 -54 -127q-10 -31 -5 -51l3 -10l5 -9q7 -11 20 -17q35 -18 127 -18q91 0 254 17h13v203z" />
    <glyph glyph-name="three" unicode="3" horiz-adv-x="553" 
d="M60 93l81 63q13 -16 26 -30q17 -18 32 -30q40 -31 69 -21q48 18 80 118q35 108 29 249q-6 138 -46 223q-14 32 -35 58q-8 9 -17 20l-8 8l-8 8l-9 9l-9 11q-11 13 -17 26q-16 36 5 71q18 29 50 76q80 116 89 185q16 114 -7 188q-9 26 -21 46q-5 7 -10 13l-8 8
q-20 18 -39 14q-30 -8 -59 -65q-29 -56 -34 -116l-103 9q8 85 50 162q49 91 121 109q71 18 133 -36q19 -17 34 -40q19 -29 32 -67q32 -97 13 -239q-8 -62 -40 -124q-20 -38 -66 -105l-19 -28l-19 -29l3 -3l3 -3l9 -9l10 -10q12 -13 21 -25q26 -33 45 -71q51 -106 59 -269
q7 -159 -35 -287q-48 -147 -141 -181q-24 -9 -51 -9q-97 0 -193 123z" />
    <glyph glyph-name="four" unicode="4" horiz-adv-x="521" 
d="M391 369h12q16 1 27 2l32 3q17 1 29 2l-7 102q-30 -1 -63 -4q-7 -1 -19 -2l-21 -2q7 232 7 388h-103q0 -133 -7 -394q-84 -3 -110 8q24 192 64 618q7 73 14 151q6 61 12 124l4 48l2 20q0 7 1 17q3 32 3 33l-102 9q0 -1 -3 -34q-2 -20 -4 -37q-2 -25 -4 -49
q-6 -64 -12 -126q-7 -79 -14 -153q-41 -431 -64 -619q-5 -41 22 -70q42 -43 165 -43h11l12 1q-2 -70 -5 -151q-1 -29 -3 -64l-1 -28l-1 -26h-71v-103h262v103h-88l1 26l1 30q1 36 2 66q3 83 6 153z" />
    <glyph glyph-name="five" unicode="5" horiz-adv-x="564" 
d="M342 864q-31 8 -70 7q-15 -1 -32 -3q-13 -2 -27 -4q-5 146 -6 310q0 62 1 124q0 47 1 90h141v-99h103v203h-103v-2h-241l-2 -50v-4v-4v-7v-17q0 -11 -1 -23v-62q-1 -39 -1 -80q-1 -235 6 -433q2 -26 21 -42q23 -19 87 -7q70 12 97 4q23 -7 29 -35q54 -252 23 -450
q-26 -173 -93 -204q-31 -14 -75 22q-16 13 -34 33q-12 13 -24 29l-82 -61q97 -129 196 -129q32 0 61 13q114 52 151 272q36 220 -23 497q-19 90 -103 112z" />
    <glyph glyph-name="six" unicode="6" horiz-adv-x="526" 
d="M177 365q22 -231 74 -284q5 -5 10 -7l3 -1h1q19 6 43 73q28 82 38 203q12 155 -13 281q-26 127 -73 150q-19 9 -48 -3q-21 -10 -47 -31q-7 -192 12 -381zM265 -30q-21 0 -41 8q-25 9 -46 31q-89 91 -111 434q-7 108 -6 228q0 38 1 73q1 11 1 20v6v2v0l3 53l2 53
q13 309 40 422q44 184 165 204q62 10 105 -30q44 -40 56 -127q4 -30 4 -63q0 -11 -1 -23v-8l-1 -6l-102 8q3 41 -3 82q-7 47 -23 62l-2 2l-3 2q-5 1 -13 0q-65 -11 -93 -181q-11 -66 -17 -167q-3 -40 -5 -91l-4 -91v-3q79 36 145 -4q111 -66 132 -317q18 -211 -29 -389
q-49 -187 -151 -190h-3z" />
    <glyph glyph-name="seven" unicode="7" horiz-adv-x="444" 
d="M222 1508q-34 -2 -78 -10l-38 -7q-13 -3 -36 -8l-20 -5l1 -4h-1v-203h103v124q48 9 79 10q41 2 53 -9q2 -2 3 -8q0 -6 -1 -13q-25 -196 -113 -803q-28 -191 -59 -401q-9 -66 -18 -126q-3 -20 -5 -36l-2 -10v-3l-1 -1l102 -15v1l1 3q0 5 1 10q3 16 5 36q9 60 19 126
q31 210 59 401q88 609 113 805q5 39 -7 70q-10 23 -28 40q-43 40 -132 36z" />
    <glyph glyph-name="eight" unicode="8" horiz-adv-x="559" 
d="M284 1409l-3 -1l-3 -1q-5 -2 -9 -6q-12 -9 -22 -31q-26 -60 -20 -174q6 -105 36 -213q39 155 50 271q12 126 -14 154l-2 1q-1 1 -4 1q-4 0 -9 -1zM181 320q-7 -138 36 -208q24 -38 56 -39q44 -1 66 34q45 73 18 263q-24 164 -85 324q-81 -210 -91 -374zM270 -30
q-87 3 -140 88q-70 112 -48 314q23 202 132 449q-63 130 -84 303q-22 185 23 288q20 44 52 70q24 19 54 26q70 18 115 -29q68 -73 32 -312q-13 -87 -38 -191q-10 -41 -22 -83q-9 -33 -19 -66q81 -163 122 -384q50 -271 -23 -390q-50 -83 -149 -83h-7z" />
    <glyph glyph-name="nine" unicode="9" horiz-adv-x="535" 
d="M252 1412q-58 -51 -72 -198q-14 -151 37 -254q47 -95 137 -95v0q0 46 3 131l3 138q0 74 -3 125q-9 127 -48 153q-18 12 -31 12t-26 -12zM141 24q-22 21 -37 48q-13 23 -19 44l99 26l1 -1l1 -3q2 -5 4 -9q6 -13 15 -24q28 -32 74 -32q27 0 42 16q40 43 46 195q3 60 0 148
q-1 34 -3 79l-4 81l-4 94l-2 77h-1q-153 0 -228 152q-65 132 -47 315q19 182 106 259q84 74 182 8q71 -47 89 -187q11 -86 4 -316q-2 -99 -3 -151q-1 -85 2 -152l2 -47l3 -47q12 -255 5 -354q-11 -160 -73 -225q-46 -48 -116 -48q-82 0 -138 54z" />
    <glyph glyph-name="colon" unicode=":" horiz-adv-x="219" 
d="M53 643q-23 24 -23 56q0 33 23 57q24 23 57 23q32 0 56 -23q23 -24 23 -57q0 -32 -23 -56q-24 -23 -56 -23q-33 0 -57 23zM53 79q-23 24 -23 57q0 32 23 56q24 23 57 23q32 0 56 -23q23 -24 23 -56q0 -33 -23 -57q-24 -23 -56 -23q-33 0 -57 23z" />
    <glyph glyph-name="semicolon" unicode=";" horiz-adv-x="259" 
d="M30 -82l1 1l1 2q2 2 5 4q7 7 13 16q21 27 35 58q41 97 -6 199l94 43q56 -124 18 -248q-14 -48 -42 -91q-23 -36 -50 -60zM57 638q-24 23 -24 56t24 56q23 23 56 23t56 -23t23 -56t-23 -56q-23 -24 -56 -24t-56 24z" />
    <glyph glyph-name="less" unicode="&#x3c;" horiz-adv-x="450" 
d="M341 274l-1 1l-3 3q-3 4 -7 8q-12 13 -25 27q-39 45 -77 89q-119 138 -183 223l-5 7l-4 7q-4 8 -5 18q-1 25 21 68q57 110 291 373l77 -68q-123 -137 -200 -239q-64 -84 -81 -120q63 -82 176 -213q20 -22 40 -45q16 -18 32 -37q6 -7 12 -13q5 -5 10 -11l8 -9z" />
    <glyph glyph-name="equal" unicode="=" horiz-adv-x="605" 
d="M30 523l2 103q133 -3 349 -2q38 0 76 1h61h23q9 0 17 1h7h4h5l1 -103h-7h-8h-11q-15 0 -30 -1h-39q-113 -1 -213 -1q-147 0 -237 2zM30 723l2 102q133 -2 349 -1h76q30 0 61 1h23h17h7h9l1 -102l-15 -1h-11h-30h-39q-113 -1 -213 -1q-147 0 -237 2z" />
    <glyph glyph-name="greater" unicode="&#x3e;" horiz-adv-x="450" 
d="M33 346l8 9q5 6 9 11l13 13q16 19 32 37q20 23 39 45q113 131 177 213q-17 36 -81 120q-78 102 -200 239l77 68q234 -263 291 -373q22 -43 20 -68q0 -10 -5 -18l-4 -7l-4 -7q-64 -85 -183 -223q-38 -44 -78 -89q-13 -14 -24 -27l-8 -8l-2 -3l-1 -1z" />
    <glyph glyph-name="question" unicode="?" horiz-adv-x="595" 
d="M219 -17q-23 24 -23 57q0 32 23 56q24 23 57 23q32 0 56 -23q23 -24 23 -56q0 -33 -23 -57q-24 -23 -56 -23q-33 0 -57 23zM224 250q0 10 -1 43q-3 216 3 331q9 170 42 233q91 173 122 312q31 140 -7 207q-30 52 -110 57q-68 4 -108 -57q-15 -23 -24 -52q-7 -23 -9 -43
l-102 9q9 104 73 174q70 77 175 71q77 -4 130 -39q40 -27 64 -69q63 -112 10 -313q-20 -77 -57 -165q-29 -69 -66 -140q-26 -50 -33 -241q-2 -68 -1 -153v-67q0 -14 1 -29v-24l1 -23v-21z" />
    <glyph glyph-name="at" unicode="@" horiz-adv-x="1029" 
d="M460 288q-16 1 -35 31q-21 33 -36 89q-48 178 -20 414q30 246 119 310q10 7 18 10q12 5 25 5q32 0 71 -27q24 -16 30 -131q0 -27 1 -57v-26v-11l1 -11v-50v-7v-76l1 -79q2 -88 11 -154q-73 -145 -133 -201q-20 -19 -37 -25q-5 -3 -10 -4h-4h-2zM323 102
q-118 174 -137 555q-19 395 96 628q82 168 215 177q106 5 179 -62q175 -161 186 -719q3 -127 -19 -226q-17 -78 -41 -110l-2 3l-2 4q-42 78 -55 218q-5 56 -6 128v65v64v10q1 78 -2 144q-1 68 -1 122q-1 67 -1 107l-85 1q-69 42 -135 36q-25 -2 -49 -12q-19 -8 -35 -19
q-123 -88 -160 -374q-33 -261 21 -461q28 -103 77 -153q37 -38 84 -42q112 -11 229 180q11 -32 28 -63q27 -50 65 -63q14 -5 29 -5q11 0 21 3q73 19 111 159q35 123 32 286q-13 602 -221 793q-105 97 -254 88q-192 -12 -302 -233q-129 -263 -107 -684q21 -404 155 -603
q100 -146 246 -154h15q134 0 286 118q49 37 94 83q15 14 28 28q4 5 8 9l2 3l1 2l-78 65h-1l-2 -2q-3 -3 -6 -7q-11 -12 -23 -25q-40 -40 -81 -72q-133 -105 -238 -99q-95 5 -165 109z" />
    <glyph glyph-name="A" unicode="A" horiz-adv-x="701" 
d="M289 1016q38 263 68 361q82 -224 131 -856q-79 4 -260 -2q30 281 61 497zM608 93q-1 369 -58 818q-64 502 -143 583q-13 14 -29 20q-12 4 -25 4q-43 0 -70 -54q-27 -53 -56 -194q-33 -166 -70 -468q-25 -196 -46 -417q-18 -191 -24 -292h-57v-103h241v103h-81
q6 106 27 323q191 7 279 2q10 -176 10 -324l-62 1v-103l227 -2v103h-63z" />
    <glyph glyph-name="B" unicode="B" horiz-adv-x="674" 
d="M380 96q-42 -18 -144 -11h-8q-24 136 -22 678q43 -7 81 -23q53 -24 90 -66q127 -141 74 -468q-14 -85 -71 -110zM361 1337q84 -87 67 -242q-11 -106 -90 -166q-30 -23 -69 -38q-29 -11 -62 -18q5 406 24 523q80 -6 130 -59zM357 819q155 87 174 266q20 201 -95 323
q-93 97 -242 90v1h-133v-103h69l-1 -10l-2 -10q-2 -12 -3 -21q-9 -96 -13 -245q-11 -322 -6 -652q4 -199 13 -303q3 -46 6 -69l-63 1l-1 -103l171 -1q15 -2 27 -2q17 -1 32 -1q97 0 157 36q85 50 105 174q62 375 -98 553q-42 46 -97 76z" />
    <glyph glyph-name="C" unicode="C" horiz-adv-x="630" 
d="M204 34q-79 68 -109 260q-21 137 -28 451q-7 349 34 511q49 196 186 226q194 43 276 -168l4 -9v-158h-103v138q-29 72 -67 92q-32 17 -88 5q-80 -18 -113 -168q-33 -151 -26 -467q6 -278 22 -405q23 -182 79 -230q6 -5 11 -8q7 -4 15 -7q20 -7 47 -3q52 6 90 34
q33 23 33 42v187h103v-187q0 -64 -62 -115q-62 -52 -151 -63q-17 -2 -31 -2q-71 0 -122 44z" />
    <glyph glyph-name="D" unicode="D" horiz-adv-x="681" 
d="M354 110q-52 -40 -130 -46q-11 157 -11 674q-1 517 10 669q88 -10 145 -66q56 -56 94 -170q46 -138 51 -427q4 -309 -51 -463q-42 -119 -108 -171zM446 1407q-100 105 -265 105h-121v-103h61v0q-4 -50 -6 -151q-5 -176 -5 -462q0 -299 5 -537q3 -125 6 -181l1 -8l1 -7
h-51v-103h109q122 0 203 48q114 68 175 239q62 173 57 500q-5 304 -56 456q-45 132 -114 204z" />
    <glyph glyph-name="E" unicode="E" horiz-adv-x="597" 
d="M537 150h-102v-67h-193q-3 208 -12 695q48 1 104 0v-37h103v176h-103v-37q-49 2 -106 0q-1 56 -3 136q-1 54 -2 117q0 25 -1 55q0 19 -1 51q-2 122 -3 158l17 -1h20q22 0 42 -1q53 0 97 -1v-99h102v202h-51q-85 0 -188 2q-36 0 -64 1l-25 1l-53 1v-1h-55v-103h55
q3 -117 8 -384q5 -251 10 -531q5 -292 6 -399h-79v-103h131l346 -1v170z" />
    <glyph glyph-name="F" unicode="F" horiz-adv-x="577" 
d="M547 1284v215h-487v-103h80q0 -118 1 -676q1 -514 1 -637h-62v-103h238v103h-74q1 125 0 637v62l14 1l14 1l33 2q39 4 68 6v-46h102v194h-102v-44q-74 -7 -130 -11q-1 391 0 511h202v-112h102z" />
    <glyph glyph-name="G" unicode="G" horiz-adv-x="702" 
d="M672 468h-294v-103h123v-38q-1 -88 -18 -147q-21 -75 -62 -85q-113 -29 -164 12q-60 47 -78 209q-15 133 -7 394q11 333 64 502q40 128 101 154q34 14 60 1q36 -17 72 -84v-109h102v134l-5 11q-59 117 -139 147q-60 23 -129 -6q-108 -44 -163 -224t-66 -523
q-9 -303 13 -447q26 -172 110 -239q60 -47 144 -47q49 0 109 16q34 7 63 30v-23v-19h103q0 43 -3 149q0 38 -2 92l-1 44v22l-1 20q1 39 1 54h67v103z" />
    <glyph glyph-name="H" unicode="H" horiz-adv-x="638" 
d="M578 1417v103h-216v-103h62q-3 -174 -2 -540q-46 1 -95 1q-60 1 -109 0l-1 76v74q-4 290 -4 389h71v103h-224v-103h51q0 -107 2 -390q2 -162 3 -268q2 -154 2 -271q2 -299 -4 -405h-54v-103h224v103h-67q7 160 2 692q47 1 108 1q45 0 95 -1q0 -187 1 -412q1 -80 1 -165
q1 -31 1 -65v-27v-12v-11h-63v-103h216v103h-51v10v12v25v61q-1 79 -1 153q-1 209 -1 384q-2 515 2 689h51z" />
    <glyph glyph-name="I" unicode="I" horiz-adv-x="366" 
d="M226 105v11v26q1 30 2 59q1 77 3 149q3 202 6 372q8 495 6 656q31 0 63 -1h11h8h3h2h2l4 102h-3h-7q-10 1 -22 1q-36 1 -74 0q-116 -1 -200 -13l14 -102q35 6 96 9q2 -158 -6 -659q-2 -169 -6 -374q-2 -69 -3 -148q-1 -23 -1 -58l-1 -12v-12v-21q-59 -3 -93 -8l14 -102
q78 11 190 12q35 1 70 0h11q5 0 9 -1h3h5l4 103h-10h-10l-14 1h-76v10z" />
    <glyph glyph-name="J" unicode="J" horiz-adv-x="444" 
d="M384 1472h-4q-4 1 -8 1h-28q-44 1 -87 1q-137 -2 -221 -14l15 -101q52 7 139 10q1 -9 2 -27l1 -14l1 -16l2 -23l2 -25q3 -29 5 -55q5 -67 9 -126q11 -160 16 -294q16 -375 -10 -560q-13 -83 -51 -112q-38 -28 -132 -24l-5 -102l32 -1q100 0 160 41q79 54 97 184
q28 192 12 574q-5 136 -17 299q-4 60 -9 128q-2 26 -4 56l-2 25l-2 24q-1 11 -2 26l-2 24q30 0 61 -1h11h8h7z" />
    <glyph glyph-name="K" unicode="K" horiz-adv-x="662" 
d="M652 1423v103h-211v-103h29q-37 -69 -117 -216l-33 -61l-33 -62q-39 -72 -63 -115q-2 321 -10 459h83v103h-237v-103h51q12 -182 12 -679q0 -494 -11 -670h-50v-103h235v103h-82q11 171 11 620l253 -646h-44v-103h217v103h-63l-312 796q71 133 166 308q101 187 145 266
h64z" />
    <glyph glyph-name="L" unicode="L" horiz-adv-x="492" 
d="M389 153v-70h-180q4 142 10 496q3 219 3 472q1 213 -2 343h65v103h-225v-103h58q2 -127 2 -342q0 -256 -4 -471q-2 -153 -5 -302q-3 -120 -5 -196h-46v-103h432v173h-103z" />
    <glyph glyph-name="M" unicode="M" horiz-adv-x="828" 
d="M768 1512h-117q-30 0 -46 -26q-12 -19 -34 -87q-23 -70 -58 -184l-5 -16l-5 -18l-11 -36q-14 -44 -25 -78q-29 -91 -48 -145q-14 41 -36 112l-19 60l-10 29l-9 29q-82 263 -109 323q-17 37 -33 49q-13 11 -35 10v0h-108v-102h49l-1 -18l-2 -17q-2 -22 -3 -43
q-2 -116 1 -316q2 -165 8 -391q2 -89 5 -192q2 -76 5 -174q4 -149 5 -196h-52v-102h210v102h-55q-1 36 -6 199v23l-1 24q-1 29 -1 52q-2 62 -4 115q-4 143 -6 260q-8 323 -8 499l23 -69l10 -34l10 -33q50 -159 77 -235q27 -80 44 -105q26 -39 64 -30q18 4 28 14q14 14 30 52
q31 72 121 367q3 -203 4 -534q1 -281 1 -577h-67v-103h219v103h-49v111v157q0 215 -1 393q-3 551 -11 675h61v103z" />
    <glyph glyph-name="N" unicode="N" horiz-adv-x="746" 
d="M686 1523h-230v-102h71q8 -301 13 -592q6 -341 4 -544q-24 95 -59 236l-31 124q-11 46 -29 119q-118 487 -154 605q-29 99 -58 113l-20 5l-15 1h-107v-103h55q-17 -172 6 -1169q1 -18 1 -40l1 -19v-18q1 -44 2 -66h-76v-103h230v103h-52q0 22 -1 67l-1 19v19q0 22 -1 41
q-3 109 -5 204q-3 133 -5 249q-5 308 -4 491q39 -154 105 -424l32 -134q19 -78 33 -132q36 -146 60 -236q45 -170 64 -215q23 -52 57 -52l11 1q39 5 50 52q11 48 13 227q3 176 -2 500q-3 182 -8 398q-2 79 -4 160q-1 58 -3 113h57v102z" />
    <glyph glyph-name="O" unicode="O" 
d="M215 1222q-47 -174 -50 -477q-3 -231 31 -412q33 -181 87 -236q10 -9 18 -13q3 -1 6 -1h4q8 0 16 3q11 4 22 15q54 55 83 233q28 177 24 437q-6 361 -64 512q-20 53 -46 76q-9 9 -19 13q-8 3 -15 3q-57 0 -97 -153zM265 -11q-30 11 -54 36q-79 79 -118 301
q-33 187 -31 420q7 731 250 731q140 0 200 -229q42 -163 47 -475q4 -251 -22 -428q-33 -233 -115 -316q-48 -49 -111 -49q-24 0 -46 9z" />
    <glyph glyph-name="P" unicode="P" horiz-adv-x="518" 
d="M218 1181q-2 62 -3 127q0 26 -1 52v43q26 -5 49 -15q29 -13 51 -33q70 -66 68 -209q-2 -111 -55 -188q-38 -56 -102 -93q-4 146 -7 316zM384 1429q-57 55 -140 73q-27 6 -54 7q-9 1 -18 1h-6l-4 -1h-102v-102h51q1 -49 2 -105q1 -72 2 -145q5 -194 9 -360l2 -60
q15 -464 10 -654h-71v-103h231v103h-57q4 187 -10 657l-1 13q141 62 205 182q50 91 51 209q4 188 -100 285z" />
    <glyph glyph-name="Q" unicode="Q" 
d="M214 1227q41 153 98 153q7 0 15 -3q10 -4 19 -13q26 -23 46 -76q58 -151 64 -512q4 -260 -24 -437q-29 -178 -83 -233q-11 -11 -22 -15q-8 -3 -17 -3h-1h-2q-3 0 -6 1q-8 4 -18 13q-54 56 -87 236q-34 181 -31 412q3 303 49 477zM418 31l4 3q82 83 115 316q26 177 22 427
q-5 313 -47 476q-60 229 -200 229q-243 0 -250 -731q-2 -233 31 -420q39 -222 118 -301q24 -25 54 -36q22 -9 45 -9l4 1h3q14 -131 69 -186q59 -60 153 -60v103q-51 0 -80 29q-41 41 -45 157z" />
    <glyph glyph-name="R" unicode="R" horiz-adv-x="554" 
d="M351 967q-26 -33 -63 -58q-29 -19 -63 -33q-3 145 -6 305q-1 60 -2 122q-1 44 -2 92q63 -26 110 -72q64 -62 75 -143q17 -128 -49 -213zM497 95q-8 25 -17 51q-10 34 -21 69q-29 90 -55 176q-73 240 -117 403q104 50 161 134q74 110 54 265q-11 80 -57 147q-35 51 -88 91
q-109 83 -195 77v2h-102v-103h52q2 -99 5 -249q3 -191 7 -369q8 -495 9 -706h-73v-103h248v103h-72q-1 169 -7 537q50 -175 120 -399q12 -39 25 -78q9 -30 19 -60q3 -11 7 -23q3 -8 5 -17l5 -15l12 -35h122v102h-47z" />
    <glyph glyph-name="S" unicode="S" horiz-adv-x="577" 
d="M69 32l-9 13v121h102v-88q20 -23 47 -31q21 -6 45 -4q41 6 76 36q36 31 51 73q31 99 5 272q-26 142 -104 288q-38 71 -68 142q-43 98 -66 183q-64 272 19 399q41 53 90 75q38 17 77 15q97 -3 156 -93l9 -13v-125h-102v93q-31 35 -67 36q-41 2 -82 -51q-45 -78 -11 -270
q35 -153 136 -343q89 -167 116 -329q28 -192 -11 -313q-25 -70 -83 -118q-58 -49 -128 -58q-16 -2 -29 -2q-106 0 -169 92z" />
    <glyph glyph-name="T" unicode="T" horiz-adv-x="582" 
d="M523 1518q-4 0 -21 -1q-21 -1 -46 -3q-73 -5 -140 -10q-206 -15 -267 -25l-44 -7v-137h103v48q39 4 132 12v-250q1 -182 1 -354q0 -465 -1 -688h-68v-103h241v103h-70v697v356q0 71 -1 142v105q32 2 72 5q13 1 33 3l14 1l13 1v-60h103v169z" />
    <glyph glyph-name="U" unicode="U" horiz-adv-x="709" 
d="M649 1506h-218v-103h50q0 -9 1 -35l1 -20v-23q3 -59 4 -109q5 -150 9 -280q11 -384 12 -589q0 -92 -23 -155q-17 -48 -47 -77q-21 -20 -47 -28q-9 -3 -18 -4h-8h-5q-82 5 -122 164q-29 116 -31 568q0 156 2 344q1 69 3 140q0 27 1 56q1 21 1 44h54v103h-208v-103h51
q-1 -51 -2 -103q-1 -72 -2 -142q-3 -190 -2 -349q2 -458 33 -583q28 -111 85 -174q56 -63 131 -68h10q81 0 145 61q43 41 69 105q33 84 33 201q-1 208 -12 587q-4 134 -9 280l-4 110q-1 41 -3 79h66v103z" />
    <glyph glyph-name="V" unicode="V" horiz-adv-x="707" 
d="M677 1522h-246v-103h54q-84 -768 -147 -1159q-18 147 -38 343q-30 276 -49 426q-29 232 -57 367h80v103h-244v-103h60q28 -130 58 -367q19 -152 50 -437q29 -278 46 -398q17 -126 32 -166q17 -43 53 -48h4h3q19 0 34 12l4 4l5 5q5 6 10 17q13 27 27 93q35 167 95 651
q24 184 48 393q9 81 17 156l12 108h89v103z" />
    <glyph glyph-name="W" unicode="W" horiz-adv-x="866" 
d="M806 1513h-246v-103h79q4 -278 5 -530q2 -307 -1 -506l-14 72l-15 71q-50 252 -76 365q-29 130 -47 167q-20 42 -57 42q-36 0 -56 -41q-16 -34 -42 -149q-13 -60 -32 -155q-7 -36 -18 -88l-9 -46l-9 -47q-21 -110 -48 -243q1 90 4 218q2 80 6 226q13 449 12 647h63v102
h-245v-102h79q1 -121 -3 -304q-2 -113 -8 -340q-14 -503 -9 -640q5 -122 35 -146q16 -13 35 -13q7 0 13 2q21 5 33 21q16 21 32 75q28 95 102 478l8 40l8 42q10 47 17 85q19 97 33 160q16 -71 40 -183q9 -44 20 -98q7 -36 19 -96l9 -45l9 -44q10 -50 17 -84q18 -92 31 -149
q26 -112 40 -143q18 -39 53 -40l39 15q20 20 26 117q10 154 9 643q0 175 -3 382q0 76 -1 153q-1 56 -2 109h65v103z" />
    <glyph glyph-name="X" unicode="X" horiz-adv-x="592" 
d="M494 83l-10 48q-7 32 -13 64q-17 84 -34 166q-48 229 -91 423q124 507 148 635h64v103h-246v-103h77q-24 -125 -93 -409q-62 272 -99 398h72v102h-239v-102h60q47 -149 151 -623q-136 -561 -161 -702h-48v-103h192v103h-40q23 125 107 472q28 -134 58 -278
q12 -55 23 -111q9 -42 17 -83h-60v-103h233v103h-68z" />
    <glyph glyph-name="Y" unicode="Y" horiz-adv-x="564" 
d="M534 1433v103h-222v-103h62q-32 -129 -91 -416q-39 244 -99 416h69v103h-223v-103h45q44 -112 79 -284q28 -135 49 -291q13 -105 19 -397q2 -103 2 -225q1 -45 1 -93v-70h-80v-103h244v103h-62v111q0 77 -1 151q-2 199 -8 337q1 2 3 12v4l1 6l3 12l14 70q22 112 43 213
q66 318 97 444h55z" />
    <glyph glyph-name="Z" unicode="Z" horiz-adv-x="531" 
d="M62 -1q-23 14 -27 36q-5 36 14 137q40 208 258 1004q7 23 17 63l8 30l8 28q18 64 26 95q-26 0 -69 -3l-37 -2l-17 -1l-16 -1l-38 -2q-21 -2 -35 -2v-62h-103v164l53 -1q32 0 116 5q131 9 173 7q48 -3 68 -22q18 -17 18 -41q0 -15 -73 -282l-7 -27l-8 -29q-10 -35 -18 -64
q-20 -76 -38 -143q-49 -178 -85 -316q-100 -385 -113 -485q80 -7 262 6v76h102v-171l-47 -4q-146 -12 -240 -12q-120 0 -152 19z" />
    <glyph glyph-name="bracketleft" unicode="[" horiz-adv-x="411" 
d="M112 -58q-22 21 -22 50q0 37 3 348q2 112 4 295l1 78v78q1 99 2 152q1 97 2 205q1 77 2 172q2 166 2 170q0 25 18 42q19 19 62 23q35 4 132 1q54 -3 82 -2l2 -103q-15 0 -41 1h-23l-23 1q-15 0 -26 1l-28 1q-34 0 -53 -1v-16v-19q-1 -24 -1 -45q0 -60 -1 -116
q-2 -164 -4 -316q-2 -212 -5 -553q-1 -48 -2 -122v-28v-27q0 -30 -1 -51q-1 -107 -1 -144q67 -11 207 4l11 -101q-85 -10 -148 -10q-115 0 -151 32z" />
    <glyph glyph-name="backslash" unicode="\" horiz-adv-x="545" 
d="M130 1566l-100 -24l385 -1622l100 24z" />
    <glyph glyph-name="bracketright" unicode="]" horiz-adv-x="412" 
d="M0 -90l12 101q139 -15 207 -4q-1 37 -2 144v51l-1 27v28q-1 74 -1 122q-4 341 -6 553q-2 152 -4 316q0 56 -1 116v45v19l-1 16q-19 1 -52 1l-29 -1q-11 -1 -25 -1l-24 -1h-23q-25 -1 -41 -1l3 103q27 -1 82 2q96 3 131 -1q43 -4 63 -23q18 -17 18 -42q0 -4 1 -170
q1 -95 2 -172q1 -108 2 -205q1 -53 2 -152l1 -78l1 -78q2 -183 3 -295q3 -311 3 -348q1 -30 -22 -50q-36 -32 -151 -32q-63 0 -148 10z" />
    <glyph glyph-name="asciicircum" unicode="^" horiz-adv-x="691" 
d="M30 1193l10 12q6 8 13 16q18 20 35 41q50 57 94 102q131 133 184 135q27 1 47 -18q64 -66 160 -181q31 -37 61 -74q10 -12 19 -23q3 -4 5 -7t3 -4l-80 -64q0 1 -2 2q-1 3 -4 6q-7 8 -15 19q-26 32 -54 64q-85 103 -146 168q-37 -27 -103 -94q-75 -76 -148 -165z" />
    <glyph glyph-name="underscore" unicode="_" horiz-adv-x="642" 
d="M30 10q75 4 329 3h92q38 0 79 -1h31h14h11h26l-1 -103h-13h-9h-23q-15 0 -31 1h-78h-92q-257 1 -329 -3z" />
    <glyph glyph-name="grave" unicode="`" horiz-adv-x="337" 
d="M219 1187l-6 10q-3 6 -6 11q-5 7 -9 14q-12 19 -23 38l-28 46q-79 130 -117 193l88 53q38 -64 117 -193q13 -22 28 -46q11 -18 23 -37q4 -7 8 -15q4 -5 7 -10l6 -10z" />
    <glyph glyph-name="a" unicode="a" horiz-adv-x="701" 
d="M289 1016q38 263 68 361q82 -224 131 -856q-79 4 -260 -2q30 281 61 497zM608 93q-1 369 -58 818q-64 502 -143 583q-13 14 -29 20q-12 4 -25 4q-43 0 -70 -54q-27 -53 -56 -194q-33 -166 -70 -468q-25 -196 -46 -417q-18 -191 -24 -292h-57v-103h241v103h-81
q6 106 27 323q191 7 279 2q10 -176 10 -324l-62 1v-103l227 -2v103h-63z" />
    <glyph glyph-name="b" unicode="b" horiz-adv-x="674" 
d="M380 96q-42 -18 -144 -11h-8q-24 136 -22 678q43 -7 81 -23q53 -24 90 -66q127 -141 74 -468q-14 -85 -71 -110zM361 1337q84 -87 67 -242q-11 -106 -90 -166q-30 -23 -69 -38q-29 -11 -62 -18q5 406 24 523q80 -6 130 -59zM357 819q155 87 174 266q20 201 -95 323
q-93 97 -242 90v1h-133v-103h69l-1 -10l-2 -10q-2 -12 -3 -21q-9 -96 -13 -245q-11 -322 -6 -652q4 -199 13 -303q3 -46 6 -69l-63 1l-1 -103l171 -1q15 -2 27 -2q17 -1 32 -1q97 0 157 36q85 50 105 174q62 375 -98 553q-42 46 -97 76z" />
    <glyph glyph-name="c" unicode="c" horiz-adv-x="630" 
d="M204 34q-79 68 -109 260q-21 137 -28 451q-7 349 34 511q49 196 186 226q194 43 276 -168l4 -9v-158h-103v138q-29 72 -67 92q-32 17 -88 5q-80 -18 -113 -168q-33 -151 -26 -467q6 -278 22 -405q23 -182 79 -230q6 -5 11 -8q7 -4 15 -7q20 -7 47 -3q52 6 90 34
q33 23 33 42v187h103v-187q0 -64 -62 -115q-62 -52 -151 -63q-17 -2 -31 -2q-71 0 -122 44z" />
    <glyph glyph-name="d" unicode="d" horiz-adv-x="681" 
d="M354 110q-52 -40 -130 -46q-11 157 -11 674q-1 517 10 669q88 -10 145 -66q56 -56 94 -170q46 -138 51 -427q4 -309 -51 -463q-42 -119 -108 -171zM446 1407q-100 105 -265 105h-121v-103h61v0q-4 -50 -6 -151q-5 -176 -5 -462q0 -299 5 -537q3 -125 6 -181l1 -8l1 -7
h-51v-103h109q122 0 203 48q114 68 175 239q62 173 57 500q-5 304 -56 456q-45 132 -114 204z" />
    <glyph glyph-name="e" unicode="e" horiz-adv-x="597" 
d="M537 150h-102v-67h-193q-3 208 -12 695q48 1 104 0v-37h103v176h-103v-37q-49 2 -106 0q-1 56 -3 136q-1 54 -2 117q0 25 -1 55q0 19 -1 51q-2 122 -3 158l17 -1h20q22 0 42 -1q53 0 97 -1v-99h102v202h-51q-85 0 -188 2q-36 0 -64 1l-25 1l-53 1v-1h-55v-103h55
q3 -117 8 -384q5 -251 10 -531q5 -292 6 -399h-79v-103h131l346 -1v170z" />
    <glyph glyph-name="f" unicode="f" horiz-adv-x="577" 
d="M547 1284v215h-487v-103h80q0 -118 1 -676q1 -514 1 -637h-62v-103h238v103h-74q1 125 0 637v62l14 1l14 1l33 2q39 4 68 6v-46h102v194h-102v-44q-74 -7 -130 -11q-1 391 0 511h202v-112h102z" />
    <glyph glyph-name="g" unicode="g" horiz-adv-x="702" 
d="M672 468h-294v-103h123v-38q-1 -88 -18 -147q-21 -75 -62 -85q-113 -29 -164 12q-60 47 -78 209q-15 133 -7 394q11 333 64 502q40 128 101 154q34 14 60 1q36 -17 72 -84v-109h102v134l-5 11q-59 117 -139 147q-60 23 -129 -6q-108 -44 -163 -224t-66 -523
q-9 -303 13 -447q26 -172 110 -239q60 -47 144 -47q49 0 109 16q34 7 63 30v-23v-19h103q0 43 -3 149q0 38 -2 92l-1 44v22l-1 20q1 39 1 54h67v103z" />
    <glyph glyph-name="h" unicode="h" horiz-adv-x="638" 
d="M578 1417v103h-216v-103h62q-3 -174 -2 -540q-46 1 -95 1q-60 1 -109 0l-1 76v74q-4 290 -4 389h71v103h-224v-103h51q0 -107 2 -390q2 -162 3 -268q2 -154 2 -271q2 -299 -4 -405h-54v-103h224v103h-67q7 160 2 692q47 1 108 1q45 0 95 -1q0 -187 1 -412q1 -80 1 -165
q1 -31 1 -65v-27v-12v-11h-63v-103h216v103h-51v10v12v25v61q-1 79 -1 153q-1 209 -1 384q-2 515 2 689h51z" />
    <glyph glyph-name="i" unicode="i" horiz-adv-x="366" 
d="M226 105v11v26q1 30 2 59q1 77 3 149q3 202 6 372q8 495 6 656q31 0 63 -1h11h8h3h2h2l4 102h-3h-7q-10 1 -22 1q-36 1 -74 0q-116 -1 -200 -13l14 -102q35 6 96 9q2 -158 -6 -659q-2 -169 -6 -374q-2 -69 -3 -148q-1 -23 -1 -58l-1 -12v-12v-21q-59 -3 -93 -8l14 -102
q78 11 190 12q35 1 70 0h11q5 0 9 -1h3h5l4 103h-10h-10l-14 1h-76v10z" />
    <glyph glyph-name="j" unicode="j" horiz-adv-x="444" 
d="M384 1472h-4q-4 1 -8 1h-28q-44 1 -87 1q-137 -2 -221 -14l15 -101q52 7 139 10q1 -9 2 -27l1 -14l1 -16l2 -23l2 -25q3 -29 5 -55q5 -67 9 -126q11 -160 16 -294q16 -375 -10 -560q-13 -83 -51 -112q-38 -28 -132 -24l-5 -102l32 -1q100 0 160 41q79 54 97 184
q28 192 12 574q-5 136 -17 299q-4 60 -9 128q-2 26 -4 56l-2 25l-2 24q-1 11 -2 26l-2 24q30 0 61 -1h11h8h7z" />
    <glyph glyph-name="k" unicode="k" horiz-adv-x="662" 
d="M652 1423v103h-211v-103h29q-37 -69 -117 -216l-33 -61l-33 -62q-39 -72 -63 -115q-2 321 -10 459h83v103h-237v-103h51q12 -182 12 -679q0 -494 -11 -670h-50v-103h235v103h-82q11 171 11 620l253 -646h-44v-103h217v103h-63l-312 796q71 133 166 308q101 187 145 266
h64z" />
    <glyph glyph-name="l" unicode="l" horiz-adv-x="492" 
d="M389 153v-70h-180q4 142 10 496q3 219 3 472q1 213 -2 343h65v103h-225v-103h58q2 -127 2 -342q0 -256 -4 -471q-2 -153 -5 -302q-3 -120 -5 -196h-46v-103h432v173h-103z" />
    <glyph glyph-name="m" unicode="m" horiz-adv-x="828" 
d="M768 1512h-117q-30 0 -46 -26q-12 -19 -34 -87q-23 -70 -58 -184l-5 -16l-5 -18l-11 -36q-14 -44 -25 -78q-29 -91 -48 -145q-14 41 -36 112l-19 60l-10 29l-9 29q-82 263 -109 323q-17 37 -33 49q-13 11 -35 10v0h-108v-102h49l-1 -18l-2 -17q-2 -22 -3 -43
q-2 -116 1 -316q2 -165 8 -391q2 -89 5 -192q2 -76 5 -174q4 -149 5 -196h-52v-102h210v102h-55q-1 36 -6 199v23l-1 24q-1 29 -1 52q-2 62 -4 115q-4 143 -6 260q-8 323 -8 499l23 -69l10 -34l10 -33q50 -159 77 -235q27 -80 44 -105q26 -39 64 -30q18 4 28 14q14 14 30 52
q31 72 121 367q3 -203 4 -534q1 -281 1 -577h-67v-103h219v103h-49v111v157q0 215 -1 393q-3 551 -11 675h61v103z" />
    <glyph glyph-name="n" unicode="n" horiz-adv-x="746" 
d="M686 1523h-230v-102h71q8 -301 13 -592q6 -341 4 -544q-24 95 -59 236l-31 124q-11 46 -29 119q-118 487 -154 605q-29 99 -58 113l-20 5l-15 1h-107v-103h55q-17 -172 6 -1169q1 -18 1 -40l1 -19v-18q1 -44 2 -66h-76v-103h230v103h-52q0 22 -1 67l-1 19v19q0 22 -1 41
q-3 109 -5 204q-3 133 -5 249q-5 308 -4 491q39 -154 105 -424l32 -134q19 -78 33 -132q36 -146 60 -236q45 -170 64 -215q23 -52 57 -52l11 1q39 5 50 52q11 48 13 227q3 176 -2 500q-3 182 -8 398q-2 79 -4 160q-1 58 -3 113h57v102z" />
    <glyph glyph-name="o" unicode="o" 
d="M215 1222q-47 -174 -50 -477q-3 -231 31 -412q33 -181 87 -236q10 -9 18 -13q3 -1 6 -1h4q8 0 16 3q11 4 22 15q54 55 83 233q28 177 24 437q-6 361 -64 512q-20 53 -46 76q-9 9 -19 13q-8 3 -15 3q-57 0 -97 -153zM265 -11q-30 11 -54 36q-79 79 -118 301
q-33 187 -31 420q7 731 250 731q140 0 200 -229q42 -163 47 -475q4 -251 -22 -428q-33 -233 -115 -316q-48 -49 -111 -49q-24 0 -46 9z" />
    <glyph glyph-name="p" unicode="p" horiz-adv-x="518" 
d="M218 1181q-2 62 -3 127q0 26 -1 52v43q26 -5 49 -15q29 -13 51 -33q70 -66 68 -209q-2 -111 -55 -188q-38 -56 -102 -93q-4 146 -7 316zM384 1429q-57 55 -140 73q-27 6 -54 7q-9 1 -18 1h-6l-4 -1h-102v-102h51q1 -49 2 -105q1 -72 2 -145q5 -194 9 -360l2 -60
q15 -464 10 -654h-71v-103h231v103h-57q4 187 -10 657l-1 13q141 62 205 182q50 91 51 209q4 188 -100 285z" />
    <glyph glyph-name="q" unicode="q" 
d="M214 1227q41 153 98 153q7 0 15 -3q10 -4 19 -13q26 -23 46 -76q58 -151 64 -512q4 -260 -24 -437q-29 -178 -83 -233q-11 -11 -22 -15q-8 -3 -17 -3h-1h-2q-3 0 -6 1q-8 4 -18 13q-54 56 -87 236q-34 181 -31 412q3 303 49 477zM418 31l4 3q82 83 115 316q26 177 22 427
q-5 313 -47 476q-60 229 -200 229q-243 0 -250 -731q-2 -233 31 -420q39 -222 118 -301q24 -25 54 -36q22 -9 45 -9l4 1h3q14 -131 69 -186q59 -60 153 -60v103q-51 0 -80 29q-41 41 -45 157z" />
    <glyph glyph-name="r" unicode="r" horiz-adv-x="554" 
d="M351 967q-26 -33 -63 -58q-29 -19 -63 -33q-3 145 -6 305q-1 60 -2 122q-1 44 -2 92q63 -26 110 -72q64 -62 75 -143q17 -128 -49 -213zM497 95q-8 25 -17 51q-10 34 -21 69q-29 90 -55 176q-73 240 -117 403q104 50 161 134q74 110 54 265q-11 80 -57 147q-35 51 -88 91
q-109 83 -195 77v2h-102v-103h52q2 -99 5 -249q3 -191 7 -369q8 -495 9 -706h-73v-103h248v103h-72q-1 169 -7 537q50 -175 120 -399q12 -39 25 -78q9 -30 19 -60q3 -11 7 -23q3 -8 5 -17l5 -15l12 -35h122v102h-47z" />
    <glyph glyph-name="s" unicode="s" horiz-adv-x="577" 
d="M69 32l-9 13v121h102v-88q20 -23 47 -31q21 -6 45 -4q41 6 76 36q36 31 51 73q31 99 5 272q-26 142 -104 288q-38 71 -68 142q-43 98 -66 183q-64 272 19 399q41 53 90 75q38 17 77 15q97 -3 156 -93l9 -13v-125h-102v93q-31 35 -67 36q-41 2 -82 -51q-45 -78 -11 -270
q35 -153 136 -343q89 -167 116 -329q28 -192 -11 -313q-25 -70 -83 -118q-58 -49 -128 -58q-16 -2 -29 -2q-106 0 -169 92z" />
    <glyph glyph-name="t" unicode="t" horiz-adv-x="582" 
d="M523 1518q-4 0 -21 -1q-21 -1 -46 -3q-73 -5 -140 -10q-206 -15 -267 -25l-44 -7v-137h103v48q39 4 132 12v-250q1 -182 1 -354q0 -465 -1 -688h-68v-103h241v103h-70v697v356q0 71 -1 142v105q32 2 72 5q13 1 33 3l14 1l13 1v-60h103v169z" />
    <glyph glyph-name="u" unicode="u" horiz-adv-x="709" 
d="M649 1506h-218v-103h50q0 -9 1 -35l1 -20v-23q3 -59 4 -109q5 -150 9 -280q11 -384 12 -589q0 -92 -23 -155q-17 -48 -47 -77q-21 -20 -47 -28q-9 -3 -18 -4h-8h-5q-82 5 -122 164q-29 116 -31 568q0 156 2 344q1 69 3 140q0 27 1 56q1 21 1 44h54v103h-208v-103h51
q-1 -51 -2 -103q-1 -72 -2 -142q-3 -190 -2 -349q2 -458 33 -583q28 -111 85 -174q56 -63 131 -68h10q81 0 145 61q43 41 69 105q33 84 33 201q-1 208 -12 587q-4 134 -9 280l-4 110q-1 41 -3 79h66v103z" />
    <glyph glyph-name="v" unicode="v" horiz-adv-x="707" 
d="M677 1522h-246v-103h54q-84 -768 -147 -1159q-18 147 -38 343q-30 276 -49 426q-29 232 -57 367h80v103h-244v-103h60q28 -130 58 -367q19 -152 50 -437q29 -278 46 -398q17 -126 32 -166q17 -43 53 -48h4h3q19 0 34 12l4 4l5 5q5 6 10 17q13 27 27 93q35 167 95 651
q24 184 48 393q9 81 17 156l12 108h89v103z" />
    <glyph glyph-name="w" unicode="w" horiz-adv-x="866" 
d="M806 1513h-246v-103h79q4 -278 5 -530q2 -307 -1 -506l-14 72l-15 71q-50 252 -76 365q-29 130 -47 167q-20 42 -57 42q-36 0 -56 -41q-16 -34 -42 -149q-13 -60 -32 -155q-7 -36 -18 -88l-9 -46l-9 -47q-21 -110 -48 -243q1 90 4 218q2 80 6 226q13 449 12 647h63v102
h-245v-102h79q1 -121 -3 -304q-2 -113 -8 -340q-14 -503 -9 -640q5 -122 35 -146q16 -13 35 -13q7 0 13 2q21 5 33 21q16 21 32 75q28 95 102 478l8 40l8 42q10 47 17 85q19 97 33 160q16 -71 40 -183q9 -44 20 -98q7 -36 19 -96l9 -45l9 -44q10 -50 17 -84q18 -92 31 -149
q26 -112 40 -143q18 -39 53 -40l39 15q20 20 26 117q10 154 9 643q0 175 -3 382q0 76 -1 153q-1 56 -2 109h65v103z" />
    <glyph glyph-name="x" unicode="x" horiz-adv-x="592" 
d="M494 83l-10 48q-7 32 -13 64q-17 84 -34 166q-48 229 -91 423q124 507 148 635h64v103h-246v-103h77q-24 -125 -93 -409q-62 272 -99 398h72v102h-239v-102h60q47 -149 151 -623q-136 -561 -161 -702h-48v-103h192v103h-40q23 125 107 472q28 -134 58 -278
q12 -55 23 -111q9 -42 17 -83h-60v-103h233v103h-68z" />
    <glyph glyph-name="y" unicode="y" horiz-adv-x="564" 
d="M534 1433v103h-222v-103h62q-32 -129 -91 -416q-39 244 -99 416h69v103h-223v-103h45q44 -112 79 -284q28 -135 49 -291q13 -105 19 -397q2 -103 2 -225q1 -45 1 -93v-70h-80v-103h244v103h-62v111q0 77 -1 151q-2 199 -8 337q1 2 3 12v4l1 6l3 12l14 70q22 112 43 213
q66 318 97 444h55z" />
    <glyph glyph-name="z" unicode="z" horiz-adv-x="531" 
d="M62 -1q-23 14 -27 36q-5 36 14 137q40 208 258 1004q7 23 17 63l8 30l8 28q18 64 26 95q-26 0 -69 -3l-37 -2l-17 -1l-16 -1l-38 -2q-21 -2 -35 -2v-62h-103v164l53 -1q32 0 116 5q131 9 173 7q48 -3 68 -22q18 -17 18 -41q0 -15 -73 -282l-7 -27l-8 -29q-10 -35 -18 -64
q-20 -76 -38 -143q-49 -178 -85 -316q-100 -385 -113 -485q80 -7 262 6v76h102v-171l-47 -4q-146 -12 -240 -12q-120 0 -152 19z" />
    <glyph glyph-name="braceleft" unicode="{" horiz-adv-x="344" 
d="M175 -56q-61 53 -63 184q-1 52 7 123l8 63l9 63q16 102 16 135q0 78 -42 146q-13 22 -30 40q-5 6 -10 11l-3 3l-1 1l-1 1l-55 48l64 35q68 38 82 106q10 47 -5 133l-3 14l-3 14q-35 187 -35 283q0 116 49 160q41 38 99 41q44 2 80 -14l-40 -94h-1l-1 1q-3 1 -6 1
q-8 3 -17 3q-28 2 -45 -14q-7 -6 -11 -22q-5 -20 -5 -55q0 -91 34 -271l3 -15l3 -13l2 -13l2 -15q3 -19 5 -35q4 -43 0 -80q-11 -104 -85 -168q33 -44 52 -94q27 -67 27 -138q0 -38 -17 -151l-4 -22l-3 -23q-4 -27 -7 -49q-7 -58 -9 -101q-5 -116 27 -145q12 -9 34 -8
q17 0 39 7l29 -98q-40 -12 -72 -12q-58 0 -97 34z" />
    <glyph glyph-name="bar" unicode="|" horiz-adv-x="307" 
d="M114 -170v17q-1 19 -1 44q-2 73 -3 156q-5 259 -9 500q-11 762 -2 1047l103 -3q-9 -283 2 -1044q3 -240 8 -498q2 -84 3 -156q1 -25 1 -44q1 -15 1 -17z" />
    <glyph glyph-name="braceright" unicode="}" horiz-adv-x="344" 
d="M72 -90q-32 0 -72 12l29 98q22 -7 39 -7q22 -1 34 8q32 29 27 145q-2 43 -9 101q-3 22 -7 49l-3 23l-4 22q-17 113 -17 151q0 71 26 138q20 50 53 94q-74 64 -85 168q-4 37 0 80q2 16 4 35l3 15l2 13l3 13l3 15q34 180 34 271q0 35 -5 55q-4 16 -11 22q-18 16 -45 14
q-9 0 -18 -3q-2 0 -5 -1l-1 -1h-1l-40 94q36 16 80 14q58 -3 99 -41q49 -44 49 -160q0 -96 -35 -283l-3 -14l-3 -14q-15 -86 -6 -133q15 -68 83 -106l64 -35l-55 -48l-1 -1l-1 -1l-3 -3q-5 -5 -10 -11q-17 -18 -30 -40q-42 -68 -42 -146q0 -33 16 -135l9 -63l8 -63
q8 -71 7 -123q-2 -131 -63 -184q-39 -34 -97 -34z" />
    <glyph glyph-name="asciitilde" unicode="~" horiz-adv-x="688" 
d="M85 520q-1 2 -2 5q-2 3 -4 7l-10 22q-14 33 -20 65q-19 96 38 150q56 52 118 50q51 -2 103 -42q20 -15 43 -38l20 -21l19 -22l18 -19l17 -17q19 -19 30 -25q17 -10 43 0q27 9 41 30q17 25 5 53q-9 21 -35 44l68 77q66 -58 74 -126q7 -58 -28 -107q-37 -53 -102 -71
q-64 -18 -116 10q-31 17 -91 82q-17 20 -27 31q-17 17 -30 28q-33 29 -56 30h-5q-5 0 -9 -2q-14 -5 -30 -20t-7 -58q8 -35 25 -65z" />
    <glyph glyph-name="uni00A0" unicode="&#xa0;" horiz-adv-x="300" 
 />
    <glyph glyph-name="exclamdown" unicode="&#xa1;" horiz-adv-x="339" 
d="M113 985q-23 24 -23 57t23 56q24 23 57 23q32 0 56 -23q23 -23 23 -56t-23 -57q-24 -23 -56 -23q-33 0 -57 23zM118 -493v3v8q-1 13 -1 30q-2 50 -3 107q-5 178 -9 351q-11 549 -2 834l103 -3q-9 -283 2 -829q4 -173 9 -350q1 -57 3 -107q0 -17 1 -29v-11z" />
    <glyph glyph-name="multiply" unicode="&#xd7;" horiz-adv-x="637" 
d="M411 601l-26 29q141 153 215 243l-79 66q-68 -84 -206 -233q-132 143 -199 224l-79 -65q73 -89 208 -235l-23 -24l-22 -25q-117 -125 -170 -184l77 -69q53 60 168 183l20 22l20 21l24 -26l23 -25q116 -124 169 -183l76 68q-53 60 -169 185z" />
    <glyph glyph-name="divide" unicode="&#xf7;" horiz-adv-x="571" 
d="M345 569l-73 4l-71 4q-116 6 -171 8l3 102q33 0 82 -3l45 -2l47 -3l42 -2l43 -2q48 -3 86 -4q96 -4 160 -2l3 -103h-27h-27q-60 0 -142 3zM229 785q-23 23 -23 56t23 57q24 23 56 23q33 0 57 -23q23 -24 23 -57t-23 -56q-24 -23 -57 -23q-32 0 -56 23zM229 350
q-23 24 -23 57q0 32 23 56q24 23 56 23q33 0 57 -23q23 -24 23 -56q0 -33 -23 -57q-24 -23 -57 -23q-32 0 -56 23z" />
    <glyph glyph-name="uni0401" unicode="&#x401;" horiz-adv-x="597" 
d="M537 150h-102v-67h-193q-3 208 -12 695q48 1 104 0v-37h103v176h-103v-37q-49 2 -106 0q-1 56 -3 136q-1 54 -2 117q0 25 -1 55q0 19 -1 51q-2 122 -3 158l17 -1h20q22 0 42 -1q53 0 97 -1v-99h102v202h-51q-85 0 -188 2q-36 0 -64 1l-25 1l-53 1v-1h-55v-103h55
q3 -117 8 -384q5 -251 10 -531q5 -292 6 -399h-79v-103h131l346 -1v170zM118 1614q-23 24 -23 57q0 32 23 56q24 23 57 23q32 0 56 -23q23 -24 23 -56q0 -33 -23 -57q-24 -23 -56 -23q-33 0 -57 23zM356 1614q-24 24 -24 57q0 32 24 56q23 23 56 23t56 -23q23 -24 23 -56
q0 -33 -23 -57q-23 -23 -56 -23t-56 23z" />
    <glyph glyph-name="uni0404" unicode="&#x404;" horiz-adv-x="540" 
d="M211 1489q-101 -28 -128 -199q-19 -117 -21 -517v-44q-2 -366 21 -496q28 -159 125 -236q35 -27 86 -27q33 0 64 12q101 40 121 164l1 8v105h-103v-101q-12 -63 -57 -80q-15 -6 -30 -5q-12 1 -18 5q-69 55 -90 184q-18 117 -17 448q64 2 122 1v-30h102v178h-102v-46
q-58 2 -122 -1q2 296 12 404q15 162 61 174q44 13 77 -10q39 -28 44 -97v-90h103v95q-5 67 -33 115q-21 37 -54 60q-73 52 -164 26z" />
    <glyph glyph-name="uni0405" unicode="&#x405;" horiz-adv-x="577" 
d="M85 32l-9 13v121h102v-88q20 -23 47 -31q21 -6 45 -4q41 6 76 36q36 31 51 73q31 99 5 272q-26 142 -104 288q-38 71 -68 142q-43 98 -66 183q-64 272 19 399q41 53 90 75q38 17 77 15q97 -3 156 -93l9 -13v-125h-102v93q-31 35 -67 36q-41 2 -82 -51q-45 -78 -11 -270
q35 -153 136 -343q89 -167 116 -329q28 -192 -11 -313q-25 -70 -83 -118q-58 -49 -128 -58q-16 -2 -29 -2q-106 0 -169 92z" />
    <glyph glyph-name="uni0410" unicode="&#x410;" horiz-adv-x="701" 
d="M289 1016q38 263 68 361q82 -224 131 -856q-79 4 -260 -2q30 281 61 497zM608 93q-1 369 -58 818q-64 502 -143 583q-13 14 -29 20q-12 4 -25 4q-43 0 -70 -54q-27 -53 -56 -194q-33 -166 -70 -468q-25 -196 -46 -417q-18 -191 -24 -292h-57v-103h241v103h-81
q6 106 27 323q191 7 279 2q10 -176 10 -324l-62 1v-103l227 -2v103h-63z" />
    <glyph glyph-name="uni0411" unicode="&#x411;" horiz-adv-x="641" 
d="M306 97q-30 -10 -65 -14q-1 40 0 117q0 30 1 70v36l1 34l1 84v79q1 85 0 126v1q-3 107 39 132q8 5 20 5q10 0 21 -4q8 -3 17 -8q58 -35 95 -124q41 -103 37 -237q-5 -178 -95 -256q-31 -27 -72 -41zM245 854q1 146 2 290q1 160 1 244q71 1 162 4q18 1 33 1v-79h103v184
l-52 -1q-14 0 -39 -1l-23 -1h-25q-48 -2 -81 -3q-47 -1 -84 -2q-97 -1 -142 2l-8 -102q9 0 25 -1l28 -1q0 -69 -1 -202q0 -106 -1 -250q0 -56 -1 -117v-97q-1 -92 -1 -93v-2q1 -39 1 -124q-1 -31 -1 -78l-1 -83q-3 -190 -2 -258h-78v-103h132h4l5 -1h17q22 0 44 3
q29 3 56 11q72 19 125 65q126 107 133 331q5 173 -55 301q-50 106 -127 152q-75 44 -149 11z" />
    <glyph glyph-name="uni0412" unicode="&#x412;" horiz-adv-x="674" 
d="M395 96q-42 -18 -144 -11h-8q-24 136 -22 678q43 -7 81 -23q53 -24 90 -66q127 -141 74 -468q-14 -85 -71 -110zM376 1337q84 -87 67 -242q-11 -106 -90 -166q-30 -23 -69 -38q-29 -11 -62 -18q5 406 24 523q80 -6 130 -59zM372 819q155 87 174 266q20 201 -95 323
q-93 97 -242 90v1h-133v-103h69l-1 -10l-2 -10q-2 -12 -3 -21q-9 -96 -13 -245q-11 -322 -6 -652q4 -199 13 -303q3 -46 6 -69l-63 1l-1 -103l171 -1q15 -2 27 -2q17 -1 32 -1q97 0 157 36q85 50 105 174q62 375 -98 553q-42 46 -97 76z" />
    <glyph glyph-name="uni0413" unicode="&#x413;" horiz-adv-x="541" 
d="M541 1314v171l-49 3q-82 4 -199 4h-76q-13 -1 -23 -1h-11h-123v-103h71q-6 -261 -7 -698q-2 -426 1 -607h-49v-103h215v103h-63q-4 180 -2 604q2 445 8 702q45 1 93 0q61 0 112 -1v-74h102z" />
    <glyph glyph-name="uni0414" unicode="&#x414;" horiz-adv-x="716" 
d="M218 255q27 118 47 260q51 370 47 864l144 -2q1 -175 8 -663q3 -179 6 -371q2 -160 4 -259q-77 10 -181 11q-38 1 -74 0q-29 -1 -46 -2q24 71 45 162zM575 156q0 38 -1 67q0 41 -1 78q-3 209 -6 378q-8 520 -9 697h78v103h-129l-299 5v-1h-62v-103h63q4 -550 -62 -945
q-23 -138 -53 -246q-11 -40 -22 -74q-9 -26 -17 -46q-43 -17 -56 -48q-13 -33 -31 -116q-6 -26 -12 -56l-4 -20l-1 -7l-1 -2v-2l101 -18q3 15 7 36q5 25 10 49q14 62 24 90q45 23 224 18q176 -5 228 -27q29 -48 55 -108q4 -11 8 -21q4 -8 6 -16l3 -6l1 -4l1 -3l1 -1l97 32v2
l-2 4q-2 6 -5 13q-8 21 -17 44q-31 70 -67 127q-10 16 -48 31q0 15 -2 96z" />
    <glyph glyph-name="uni0415" unicode="&#x415;" horiz-adv-x="608" 
d="M446 87l-230 -3v683q60 1 114 0v-31h102v205h-102v-71q-54 1 -114 0v520l20 -1l23 -1q29 -1 50 -1q63 -2 111 -3v-114h103v216h-52q-45 0 -103 2q-46 1 -98 2q-20 1 -41 2q-16 1 -32 1l-12 1h-9l-8 1l-54 2v-2h-54v-103h54v-1309h-43v-102h43v-1l51 1l383 5v218h-102
v-117z" />
    <glyph glyph-name="uni0416" unicode="&#x416;" horiz-adv-x="877" 
d="M765 1473q-133 -29 -190 -236q-46 -163 -44 -431q-24 1 -42 1q-2 349 -2 554h62v103h-238v-103h73q0 -134 2 -553q-12 0 -28 -1h-28q-5 452 -122 599q-50 62 -119 68h-84v-102h77l8 -2q5 -1 10 -4q14 -8 28 -24q82 -104 97 -449q14 -302 -26 -582l-5 -31
q-15 -116 -32 -153q-21 -48 -74 -64h-69v-103h83l6 2q102 28 144 115q26 53 44 190l4 30q27 179 31 407q37 1 56 1q1 -168 2 -353q0 -72 1 -142v-104h-54v-103h217v103h-60q-1 107 -2 245q-1 185 -2 353h43q5 -120 18 -247q5 -49 10 -95q5 -36 9 -65q38 -264 190 -321l8 -3
h93v103h-73q-50 23 -81 97q-24 56 -35 138q-56 391 -32 694q27 333 143 367h90v102h-102z" />
    <glyph glyph-name="uni0417" unicode="&#x417;" horiz-adv-x="525" 
d="M323 857l16 23q89 123 102 216q17 125 -3 220t-75 145q-58 52 -126 35q-22 -5 -44 -20q-8 -6 -18 -15l-18 -16l-5 27l-100 -19l31 -164l-1 -1v-1h1l1 -3l11 2l89 -8q9 103 77 119q9 2 19 -2q7 -4 14 -10q31 -28 44 -92q16 -76 1 -182q-9 -68 -83 -171l-25 -35
q-14 -20 -25 -38q-24 -38 -3 -74q7 -12 20 -25l11 -10l5 -4l5 -3l8 -7l10 -7q10 -9 19 -18q23 -23 38 -53q43 -79 41 -217q-1 -155 -39 -260q-33 -92 -80 -112q-27 -11 -63 6q-27 14 -58 43l-70 -75q85 -81 168 -81q33 0 64 13q83 36 131 159t50 306q2 170 -58 276
q-22 38 -52 69q-11 11 -25 22l-11 10l-11 8z" />
    <glyph glyph-name="uni0418" unicode="&#x418;" horiz-adv-x="755" 
d="M565 1488l-18 -6q-29 -14 -58 -113q-36 -118 -154 -605q-34 -139 -60 -243q-34 -139 -59 -236q-2 199 3 534q5 282 14 584l56 1l-3 103l-226 -5l2 -102l68 1q-1 -57 -3 -117q-2 -79 -4 -156q-5 -205 -7 -378q-5 -324 -2 -500q2 -179 13 -227q11 -47 50 -52l11 -1
q34 0 57 52q19 45 64 215q43 163 125 503l13 53l13 54l27 109q31 127 52 207q1 -181 -5 -491q-2 -112 -4 -249q-2 -49 -3 -110q0 -20 -1 -49l-1 -24v-22q0 -18 -1 -40v-20l-1 -18q-1 -45 -1 -67h-73v-103h237v103h-62l1 32l1 34q1 41 2 77q23 993 6 1170h61v102h-114h-16z
" />
    <glyph glyph-name="uni0419" unicode="&#x419;" horiz-adv-x="755" 
d="M565 1488l-18 -6q-29 -14 -58 -113q-36 -118 -154 -605q-34 -139 -60 -243q-34 -139 -59 -236q-2 199 3 534q5 282 14 584l56 1l-3 103l-226 -5l2 -102l68 1q-1 -57 -3 -117q-2 -79 -4 -156q-5 -205 -7 -378q-5 -324 -2 -500q2 -179 13 -227q11 -47 50 -52l11 -1
q34 0 57 52q19 45 64 215q43 163 125 503l13 53l13 54l27 109q31 127 52 207q1 -181 -5 -491q-2 -112 -4 -249q-2 -49 -3 -110q0 -20 -1 -49l-1 -24v-22q0 -18 -1 -40v-20l-1 -18q-1 -45 -1 -67h-73v-103h237v103h-62l1 32l1 34q1 41 2 77q23 993 6 1170h61v102h-114h-16z
M585 1811q-1 -1 -4 -8q-5 -8 -11 -18q-16 -28 -33 -57q-52 -88 -87 -139q-17 -26 -49 -25h-3l-5 1q-5 1 -11 4q-15 7 -35 26q-54 55 -136 204l90 50q51 -93 96 -154q16 26 35 58q15 25 32 53q6 11 13 22l10 18l4 6l2 5l3 5z" />
    <glyph glyph-name="uni041A" unicode="&#x41a;" horiz-adv-x="658" 
d="M458 1421h11q-95 -175 -243 -451q-4 315 -11 454h61v102h-216v-102h53q11 -185 11 -664q0 -478 -10 -665h-36v-103h198v103h-59q10 180 10 605l253 -647h-22v-103h176v103h-43l-313 798q10 19 36 67l20 37l21 38q50 95 87 162q104 193 144 266h62v103h-190v-103z" />
    <glyph glyph-name="uni041B" unicode="&#x41b;" horiz-adv-x="751" 
d="M586 1359l-3 12l-4 12h100v102h-202v0q-33 7 -72 8l-13 1h-13q-86 5 -155 -60q-43 -41 -69 -105q-33 -85 -33 -201q0 -38 1 -89l1 -46l1 -48l1 -62l1 -64q1 -74 0 -133q0 -152 -10 -261q-25 -285 -117 -352l60 -83q122 88 155 384q14 115 15 279q1 65 0 148l-1 73l-2 73
l-1 48v46q-1 50 -1 87q-1 92 22 155q18 48 48 76q21 21 46 29q10 3 19 4h13l15 -1h14q58 -2 71 -10q14 -10 15 -51q3 -144 14 -622q4 -175 8 -367q4 -158 6 -258h-85v-103h260v103h-72q-5 213 -15 624q-10 477 -13 625q-1 13 -5 27z" />
    <glyph glyph-name="uni041C" unicode="&#x41c;" horiz-adv-x="827" 
d="M766 1492l-110 -1q-30 -1 -46 -27q-12 -19 -34 -87q-11 -31 -27 -84q-5 -17 -15 -48l-16 -51q-6 -21 -10 -34l-11 -37q-14 -42 -24 -77q-29 -91 -48 -146q-15 44 -37 112l-19 60q-7 23 -18 58q-79 252 -107 315q-29 66 -63 67q-11 2 -33 3q-32 0 -88 -2l4 -103l26 1l25 1
l-2 -18l-2 -18q-2 -22 -2 -43q-3 -111 0 -316q2 -166 8 -391q4 -154 10 -366q1 -22 1 -53l1 -25l1 -24q1 -52 2 -80l-49 2l-3 -103l195 -7l3 103l-43 1q-1 28 -3 82v24l-1 26q-1 35 -2 57q-1 58 -3 98q-1 61 -3 115q-3 142 -6 260q-8 323 -7 499q22 -69 43 -135l20 -63
q11 -36 19 -62q22 -68 36 -110q28 -80 45 -105q26 -39 64 -31q18 5 28 15q14 14 30 52q30 71 121 367q3 -200 5 -523q1 -274 0 -567h-69v-103h215v103h-43v268q0 204 -1 372q-3 558 -11 676h55z" />
    <glyph glyph-name="uni041D" unicode="&#x41d;" horiz-adv-x="624" 
d="M357 1423h65q-3 -147 -3 -539q-105 3 -203 0l-1 74l-1 72q-3 261 -3 393h55v103h-206v-103h48q0 -58 1 -169q1 -40 1 -107l1 -58v-60l1 -64l1 -67q1 -78 1 -137q2 -158 2 -273q2 -303 -3 -416h-34v-102h187v102h-51q7 163 1 710q47 1 109 1q44 0 94 -1q1 -195 2 -418
q1 -169 2 -292h-39v-102h172v102h-31q0 113 -1 272q-1 205 -2 389q-1 514 3 690h39v103h-207v-103z" />
    <glyph glyph-name="uni041E" unicode="&#x41e;" 
d="M230 1222q-47 -174 -50 -477q-3 -231 31 -412q33 -181 87 -236q10 -9 18 -13q3 -1 6 -1h4q8 0 16 3q11 4 22 15q54 55 83 233q28 177 24 437q-6 361 -64 512q-20 53 -46 76q-9 9 -19 13q-8 3 -15 3q-57 0 -97 -153zM280 -11q-30 11 -54 36q-79 79 -118 301
q-33 187 -31 420q7 731 250 731q140 0 200 -229q42 -163 47 -475q4 -251 -22 -428q-33 -233 -115 -316q-48 -49 -111 -49q-24 0 -46 9z" />
    <glyph glyph-name="uni041F" unicode="&#x41f;" horiz-adv-x="698" 
d="M523 1490q-30 20 -72 27q-16 3 -35 4h-16l-15 1h-12l-12 1h-6l-22 1l-23 1q-27 0 -48 -3q-57 -9 -93 -43q-55 -52 -55 -157q0 -208 5 -669q1 -158 4 -340q0 -66 1 -135q0 -25 1 -53v-23v-20h-65v-102h223v102h-55q0 23 -1 43v53q-1 68 -2 134q-2 181 -3 341
q-5 460 -5 669q0 26 4 45q6 25 18 37q15 14 48 17q13 2 31 1l31 -1l7 -1h13l14 -1q67 -1 87 -17q30 -25 30 -111q0 -133 -3 -593q-3 -433 -5 -612h-65v-103h211v103h-43q0 33 1 106v34v35q1 45 1 78q1 210 3 359q3 473 3 593q0 147 -80 199z" />
    <glyph glyph-name="uni0420" unicode="&#x420;" horiz-adv-x="518" 
d="M238 1181q-2 62 -3 127q0 26 -1 52v43q26 -5 49 -15q29 -13 51 -33q70 -66 68 -209q-2 -111 -55 -188q-38 -56 -102 -93q-4 146 -7 316zM404 1429q-57 55 -140 73q-27 6 -54 7q-9 1 -18 1h-6l-4 -1h-102v-102h51q1 -49 2 -105q1 -72 2 -145q5 -194 9 -360l2 -60
q15 -464 10 -654h-71v-103h231v103h-57q4 187 -10 657l-1 13q141 62 205 182q50 91 51 209q4 188 -100 285z" />
    <glyph glyph-name="uni0421" unicode="&#x421;" horiz-adv-x="630" 
d="M219 34q-79 68 -109 260q-21 137 -28 451q-7 349 34 511q49 196 186 226q194 43 276 -168l4 -9v-158h-103v138q-29 72 -67 92q-32 17 -88 5q-80 -18 -113 -168q-33 -151 -26 -467q6 -278 22 -405q23 -182 79 -230q6 -5 11 -8q7 -4 15 -7q20 -7 47 -3q52 6 90 34
q33 23 33 42v187h103v-187q0 -64 -62 -115q-62 -52 -151 -63q-17 -2 -31 -2q-71 0 -122 44z" />
    <glyph glyph-name="uni0422" unicode="&#x422;" horiz-adv-x="582" 
d="M538 1518q-4 0 -21 -1q-21 -1 -46 -3q-73 -5 -140 -10q-206 -15 -267 -25l-44 -7v-137h103v48q39 4 132 12v-250q1 -182 1 -354q0 -465 -1 -688h-68v-103h241v103h-70v697v356q0 71 -1 142v105q32 2 72 5q13 1 33 3l14 1l13 1v-60h103v169z" />
    <glyph glyph-name="uni0423" unicode="&#x423;" horiz-adv-x="585" 
d="M349 1422h51q-23 -130 -86 -377q-38 202 -101 377h49v103h-210v-103h51q60 -155 101 -336q46 -209 35 -327q-13 -134 -56 -372q-15 -86 -33 -179q-7 -36 -14 -71q-5 -28 -11 -54h-95v-103h260v103h-60q13 64 26 130q17 91 31 174q40 224 53 357l1 5l2 6q3 10 6 19
q8 29 16 59q25 93 47 179q69 270 92 410h51v103h-206v-103z" />
    <glyph glyph-name="uni0424" unicode="&#x424;" horiz-adv-x="970" 
d="M701 178q-15 -3 -38 1q-65 14 -91 43q-27 28 -43 99v440v427h3q0 4 -2 9l-1 4v4v0q4 51 37 75q41 31 109 17q72 -15 102 -145q30 -131 24 -405q-6 -257 -16 -356q-18 -167 -64 -203q-9 -7 -20 -10zM426 316q0 -16 -4 -32q-4 -22 -15 -40q-30 -49 -100 -65q-22 -4 -38 -1
q-11 3 -19 10q-46 36 -64 203q-11 101 -16 356q-6 274 24 405q29 130 102 145q68 13 104 -17q24 -20 26 -78v-436q1 -268 0 -450v0zM528 1372v45h74v102h-236v-102h59v-39q-73 35 -150 19q-130 -26 -176 -200q-39 -143 -32 -452q6 -298 22 -408q25 -173 97 -230
q42 -33 98 -33q22 0 45 6q49 10 97 42v-59h-60v-103h223v103h-61q1 19 1 65q49 -35 113 -48q23 -6 45 -6q56 0 97 33q73 57 98 230q15 110 22 408q6 309 -32 452q-47 174 -176 200q-90 18 -168 -25z" />
    <glyph glyph-name="uni0425" unicode="&#x425;" horiz-adv-x="592" 
d="M529 83l-10 48q-7 32 -13 64q-17 84 -34 166q-48 229 -91 423q124 507 148 635h64v103h-246v-103h77q-24 -125 -93 -409q-62 272 -99 398h72v102h-239v-102h60q47 -149 151 -623q-136 -561 -161 -702h-48v-103h192v103h-40q23 125 107 472q28 -134 58 -278
q12 -55 23 -111q9 -42 17 -83h-60v-103h233v103h-68z" />
    <glyph glyph-name="uni0426" unicode="&#x426;" horiz-adv-x="736" 
d="M603 172q0 206 -5 661q-1 154 -3 339q-1 60 -2 135v28l-1 26v44h73v102h-247v-102h71q0 -14 1 -44v-26v-28q1 -73 2 -135q2 -184 4 -338q4 -456 4 -662q0 -25 -4 -45q-6 -25 -18 -37q-15 -14 -48 -17q-13 -1 -31 -1l-31 2h-8q-77 5 -101 16q-21 11 -21 41q-1 126 -6 626
q-1 160 -4 380v82l-1 38v35q-1 80 -1 113h57v102h-223v-102h63q0 -30 1 -113v-35l1 -38q0 -44 1 -82q2 -217 4 -380q5 -500 5 -627q0 -8 4 -17l3 -7l2 -8h-74v-103h156q29 -12 67 -17q16 -3 33 -4q13 -1 30 -2l6 -1l22 -1h24q68 0 119 33q6 -2 13 -12q8 -12 15 -32
q19 -53 19 -149h102q0 205 -80 271l-3 2l-3 1q13 40 13 88z" />
    <glyph glyph-name="uni0427" unicode="&#x427;" horiz-adv-x="638" 
d="M352 1405h93v-91q0 -59 1 -111v-179q0 -41 -28 -69q-40 -39 -99 -37q-48 1 -70 15q-25 17 -40 67q-12 36 -14 163q-2 103 3 231h67v102h-235v-102h65q-2 -52 -3 -104q-1 -67 0 -123q3 -147 19 -198q25 -79 73 -116q49 -36 132 -38h5q60 0 125 39v-782h-94v-102h226v102
h-29v952q0 46 -1 179v110q0 49 -1 92h31v102h-226v-102z" />
    <glyph glyph-name="uni0428" unicode="&#x428;" horiz-adv-x="1157" 
d="M1072 1405v103h-246v-103h82q1 -49 1 -103q1 -71 2 -143q2 -192 4 -363q4 -489 4 -715q-36 -4 -67 -6q-42 -2 -71 0h-12h-12q-71 3 -93 19q-34 26 -34 113q0 214 -5 651q-1 148 -3 324q-1 59 -2 129v27l-1 25v42h76v103h-248v-103h69q1 -89 3 -232q2 -172 4 -339
q4 -450 4 -661q0 -58 -23 -80q-17 -16 -55 -19q-14 -2 -34 -1h-17l-17 1l-5 1q-64 3 -118 8q-1 166 -8 675q-2 156 -5 382l-1 41l-1 40q0 50 -1 73q-1 75 -1 111h61v103h-242v-103h78q1 -33 2 -110v-35l1 -37q0 -46 1 -81q3 -218 5 -379q7 -506 8 -675h-95v-103h144
q1 0 19 -2q10 0 18 -1q11 -1 21 -2q60 -5 109 -8h5q28 -2 47 -2q100 0 152 49q3 2 6 8l2 5l3 4q34 -35 86 -51q21 -6 44 -9q18 -2 38 -3l11 -1h10l31 -1q47 0 107 6q20 2 40 5l14 2l5 1h3h122v103h-75q0 227 -5 710q-1 172 -3 360q-1 73 -2 143q0 58 -1 104h61z" />
    <glyph glyph-name="uni0429" unicode="&#x429;" horiz-adv-x="1138" 
d="M840 1422h56v-43q1 -27 1 -53q1 -68 2 -134q2 -181 3 -341q5 -460 5 -669q0 -26 -4 -45q-6 -25 -18 -37q-15 -14 -48 -17q-14 -1 -31 -1l-31 2h-7h-11l-12 1q-72 2 -94 19q-33 26 -33 113q-1 217 -5 658q-2 154 -4 326q-1 64 -1 128q-1 46 -1 93h61v102h-218v-102h54v-43
q1 -27 1 -53q1 -68 2 -134q2 -181 3 -341q5 -460 5 -669q0 -58 -23 -79q-17 -17 -55 -20q-15 -1 -34 -1l-17 1l-17 1h-5q-74 4 -134 9q0 168 -1 675q-1 164 -1 382v81v38v34v111h43v103h-211v-103h65v-110v-35v-118q1 -217 1 -379q1 -505 1 -675h-67v-102h116q1 -1 20 -2
q11 -1 20 -2l24 -2q70 -5 118 -8h5l23 -1l25 -1q45 0 78 9q44 12 73 40q3 3 6 9l3 4l3 4q34 -35 86 -50q20 -7 43 -10q18 -2 38 -3h11l11 -1h6q28 -2 46 -2q75 0 126 38q1 -2 3 -5t4 -8q6 -13 10 -32q10 -53 5 -146l102 -6q13 223 -66 283h-1q12 40 12 79q0 209 -5 669
q-2 158 -4 340q0 66 -1 135q-1 25 -1 53v23v20h67v102h-226v-102z" />
    <glyph glyph-name="uni042A" unicode="&#x42a;" horiz-adv-x="625" 
d="M331 119q-45 -32 -101 -35q-2 66 -1 255q0 71 1 175l1 89v45l1 43v85q71 -15 122 -61q40 -37 67 -90q50 -100 42 -227q-7 -126 -69 -215q-27 -39 -63 -64zM232 1396q-3 77 -17 96l-2 3l-3 3q-4 5 -10 8q-14 10 -36 16q-66 17 -198 2l-46 -5v-184h103v91q69 4 105 -1
q5 -63 4 -300q0 -91 -1 -217l-1 -110q0 -41 -1 -106q-3 -343 -3 -456q0 -111 2 -149v-1v-1h-69l-1 -102l126 -1q21 -2 30 -2q165 0 265 145q77 112 86 266q10 154 -52 280q-89 179 -280 209q4 407 -1 516z" />
    <glyph glyph-name="uni042B" unicode="&#x42b;" horiz-adv-x="842" 
d="M339 119q-46 -32 -102 -36q-5 138 3 693q70 -15 121 -61q40 -37 67 -90q50 -100 43 -227q-8 -126 -69 -215q-28 -39 -63 -64zM241 880q2 134 5 294q2 114 6 275h75v103h-235v-103h57q-1 -49 -2 -114q-2 -79 -3 -162q-4 -217 -7 -405q-4 -293 -4 -505q0 -104 2 -168v-5
l1 -5h-75l-1 -102l131 -1q21 -2 30 -2q165 0 265 145q77 112 87 266q9 154 -53 280q-88 179 -279 209zM546 1428h60q3 -157 2 -674q-1 -181 -2 -390q-1 -79 -1 -155q0 -61 -1 -110h-58v-102h208v102h-47v49q0 30 1 61q0 78 1 155q1 209 2 387q1 515 -3 677h74v103h-236v-103
z" />
    <glyph glyph-name="uni042C" unicode="&#x42c;" horiz-adv-x="619" 
d="M325 109q-45 -32 -101 -36q-5 138 2 693q71 -15 122 -61q40 -37 67 -90q50 -100 42 -227q-7 -126 -69 -215q-27 -39 -63 -64zM238 1419h65v103h-217v-103h49q-2 -112 -5 -277q-4 -202 -6 -384q-5 -293 -5 -505q0 -104 2 -168l1 -5l1 -6h-63v-102h118q21 -2 30 -2
q165 0 265 145q77 112 86 266q10 154 -52 280q-89 179 -279 209q4 264 10 549z" />
    <glyph glyph-name="uni042D" unicode="&#x42d;" horiz-adv-x="539" 
d="M165 1463q-33 -23 -55 -60q-28 -48 -32 -115v-95h103v90q4 69 43 97q34 23 77 10q47 -12 62 -174q10 -108 11 -404q-64 3 -121 1v46h-103v-178h103v30q58 1 122 -1q1 -331 -18 -448q-20 -129 -89 -184q-6 -4 -18 -5q-15 -1 -30 5q-46 17 -57 80v101h-103v-105l1 -8
q20 -124 121 -164q31 -12 64 -12q50 0 86 27q97 77 125 236q22 130 21 496v44q-2 400 -21 517q-28 171 -128 199q-91 26 -164 -26z" />
    <glyph glyph-name="uni042E" unicode="&#x42e;" horiz-adv-x="880" 
d="M584 88q-7 -3 -16 -3h-4q-2 0 -5 1q-9 4 -18 13q-55 56 -88 236q-33 181 -31 412q3 303 50 477q41 153 97 153q7 0 15 -3q10 -4 20 -13q25 -23 46 -76q58 -151 63 -512q4 -259 -24 -437q-28 -177 -82 -233q-11 -11 -23 -15zM322 813q-24 0 -39 1q-22 0 -42 -1
q1 429 -2 576h55v102h-234v-102h76q4 -158 2 -664q0 -177 -2 -384v-156q-1 -59 -1 -112h-75v-103h249v103h-71v110q0 22 1 72v39v41q1 222 2 376q39 0 80 -1q0 -226 33 -400q39 -207 114 -283q25 -25 54 -36q23 -9 46 -9q63 0 112 49q81 83 115 316q25 177 21 428
q-5 313 -47 475q-59 229 -200 229q-230 0 -247 -666z" />
    <glyph glyph-name="uni042F" unicode="&#x42f;" horiz-adv-x="601" 
d="M272 1323q48 42 112 62q-3 -174 -9 -500q-36 15 -66 35q-38 26 -64 59q-66 85 -50 207q11 81 77 137zM437 1494q-40 3 -98 -17q-64 -21 -115 -60q-113 -85 -130 -217q-21 -153 54 -263q57 -83 164 -134q-43 -162 -115 -406q-25 -87 -54 -182q-10 -36 -21 -72
q-8 -27 -17 -56l-67 13l-18 -101l156 -29l14 44l1 4l2 5l2 7q2 8 5 17q3 12 7 24q22 71 43 144q70 234 121 413q-6 -320 -7 -539h-75v-103h240v103h-62q1 208 9 696q3 171 6 363q2 72 3 143q1 53 2 102h54v102h-104v-1z" />
    <glyph glyph-name="uni0430" unicode="&#x430;" horiz-adv-x="557" 
d="M304 1016q38 263 68 361q82 -224 131 -856q-79 4 -260 -2q30 281 61 497zM623 93q-1 369 -58 818q-64 502 -143 583q-13 14 -29 20q-12 4 -25 4q-43 0 -70 -54q-27 -53 -56 -194q-33 -166 -70 -468q-25 -196 -46 -417q-18 -191 -24 -292h-57v-103h241v103h-81
q6 106 27 323q191 7 279 2q10 -176 10 -324l-62 1v-103l227 -2v103h-63z" />
    <glyph glyph-name="uni0431" unicode="&#x431;" horiz-adv-x="641" 
d="M306 97q-30 -10 -65 -14q-1 40 0 117q0 30 1 70v36l1 34l1 84v79q1 85 0 126v1q-3 107 39 132q8 5 20 5q10 0 21 -4q8 -3 17 -8q58 -35 95 -124q41 -103 37 -237q-5 -178 -95 -256q-31 -27 -72 -41zM245 854q1 146 2 290q1 160 1 244q71 1 162 4q18 1 33 1v-79h103v184
l-52 -1q-14 0 -39 -1l-23 -1h-25q-48 -2 -81 -3q-47 -1 -84 -2q-97 -1 -142 2l-8 -102q9 0 25 -1l28 -1q0 -69 -1 -202q0 -106 -1 -250q0 -56 -1 -117v-97q-1 -92 -1 -93v-2q1 -39 1 -124q-1 -31 -1 -78l-1 -83q-3 -190 -2 -258h-78v-103h132h4l5 -1h17q22 0 44 3
q29 3 56 11q72 19 125 65q126 107 133 331q5 173 -55 301q-50 106 -127 152q-75 44 -149 11z" />
    <glyph glyph-name="uni0432" unicode="&#x432;" horiz-adv-x="674" 
d="M380 96q-42 -18 -144 -11h-8q-24 136 -22 678q43 -7 81 -23q53 -24 90 -66q127 -141 74 -468q-14 -85 -71 -110zM361 1337q84 -87 67 -242q-11 -106 -90 -166q-30 -23 -69 -38q-29 -11 -62 -18q5 406 24 523q80 -6 130 -59zM357 819q155 87 174 266q20 201 -95 323
q-93 97 -242 90v1h-133v-103h69l-1 -10l-2 -10q-2 -12 -3 -21q-9 -96 -13 -245q-11 -322 -6 -652q4 -199 13 -303q3 -46 6 -69l-63 1l-1 -103l171 -1q15 -2 27 -2q17 -1 32 -1q97 0 157 36q85 50 105 174q62 375 -98 553q-42 46 -97 76z" />
    <glyph glyph-name="uni0433" unicode="&#x433;" horiz-adv-x="541" 
d="M541 1314v171l-49 3q-82 4 -199 4h-76q-13 -1 -23 -1h-11h-123v-103h71q-6 -261 -7 -698q-2 -426 1 -607h-49v-103h215v103h-63q-4 180 -2 604q2 445 8 702q45 1 93 0q61 0 112 -1v-74h102z" />
    <glyph glyph-name="uni0434" unicode="&#x434;" horiz-adv-x="716" 
d="M218 255q27 118 47 260q51 370 47 864l144 -2q1 -175 8 -663q3 -179 6 -371q2 -160 4 -259q-77 10 -181 11q-38 1 -74 0q-29 -1 -46 -2q24 71 45 162zM575 156q0 38 -1 67q0 41 -1 78q-3 209 -6 378q-8 520 -9 697h78v103h-129l-299 5v-1h-62v-103h63q4 -550 -62 -945
q-23 -138 -53 -246q-11 -40 -22 -74q-9 -26 -17 -46q-43 -17 -56 -48q-13 -33 -31 -116q-6 -26 -12 -56l-4 -20l-1 -7l-1 -2v-2l101 -18q3 15 7 36q5 25 10 49q14 62 24 90q45 23 224 18q176 -5 228 -27q29 -48 55 -108q4 -11 8 -21q4 -8 6 -16l3 -6l1 -4l1 -3l1 -1l97 32v2
l-2 4q-2 6 -5 13q-8 21 -17 44q-31 70 -67 127q-10 16 -48 31q0 15 -2 96z" />
    <glyph glyph-name="uni0435" unicode="&#x435;" horiz-adv-x="608" 
d="M446 87l-230 -3v683q60 1 114 0v-31h102v205h-102v-71q-54 1 -114 0v520l20 -1l23 -1q29 -1 50 -1q63 -2 111 -3v-114h103v216h-52q-45 0 -103 2q-46 1 -98 2q-20 1 -41 2q-16 1 -32 1l-12 1h-9l-8 1l-54 2v-2h-54v-103h54v-1309h-43v-102h43v-1l51 1l383 5v218h-102
v-117z" />
    <glyph glyph-name="uni0436" unicode="&#x436;" horiz-adv-x="877" 
d="M765 1473q-133 -29 -190 -236q-46 -163 -44 -431q-24 1 -42 1q-2 349 -2 554h62v103h-238v-103h73q0 -134 2 -553q-12 0 -28 -1h-28q-5 452 -122 599q-50 62 -119 68h-84v-102h77l8 -2q5 -1 10 -4q14 -8 28 -24q82 -104 97 -449q14 -302 -26 -582l-5 -31
q-15 -116 -32 -153q-21 -48 -74 -64h-69v-103h83l6 2q102 28 144 115q26 53 44 190l4 30q27 179 31 407q37 1 56 1q1 -168 2 -353q0 -72 1 -142v-104h-54v-103h217v103h-60q-1 107 -2 245q-1 185 -2 353h43q5 -120 18 -247q5 -49 10 -95q5 -36 9 -65q38 -264 190 -321l8 -3
h93v103h-73q-50 23 -81 97q-24 56 -35 138q-56 391 -32 694q27 333 143 367h90v102h-102z" />
    <glyph glyph-name="uni0437" unicode="&#x437;" horiz-adv-x="525" 
d="M323 857l16 23q89 123 102 216q17 125 -3 220t-75 145q-58 52 -126 35q-22 -5 -44 -20q-8 -6 -18 -15l-18 -16l-5 27l-100 -19l31 -164l-1 -1v-1h1l1 -3l11 2l89 -8q9 103 77 119q9 2 19 -2q7 -4 14 -10q31 -28 44 -92q16 -76 1 -182q-9 -68 -83 -171l-25 -35
q-14 -20 -25 -38q-24 -38 -3 -74q7 -12 20 -25l11 -10l5 -4l5 -3l8 -7l10 -7q10 -9 19 -18q23 -23 38 -53q43 -79 41 -217q-1 -155 -39 -260q-33 -92 -80 -112q-27 -11 -63 6q-27 14 -58 43l-70 -75q85 -81 168 -81q33 0 64 13q83 36 131 159t50 306q2 170 -58 276
q-22 38 -52 69q-11 11 -25 22l-11 10l-11 8z" />
    <glyph glyph-name="uni0438" unicode="&#x438;" horiz-adv-x="755" 
d="M565 1488l-18 -6q-29 -14 -58 -113q-36 -118 -154 -605q-34 -139 -60 -243q-34 -139 -59 -236q-2 199 3 534q5 282 14 584l56 1l-3 103l-226 -5l2 -102l68 1q-1 -57 -3 -117q-2 -79 -4 -156q-5 -205 -7 -378q-5 -324 -2 -500q2 -179 13 -227q11 -47 50 -52l11 -1
q34 0 57 52q19 45 64 215q43 163 125 503l13 53l13 54l27 109q31 127 52 207q1 -181 -5 -491q-2 -112 -4 -249q-2 -49 -3 -110q0 -20 -1 -49l-1 -24v-22q0 -18 -1 -40v-20l-1 -18q-1 -45 -1 -67h-73v-103h237v103h-62l1 32l1 34q1 41 2 77q23 993 6 1170h61v102h-114h-16z
" />
    <glyph glyph-name="uni0439" unicode="&#x439;" horiz-adv-x="755" 
d="M565 1488l-18 -6q-29 -14 -58 -113q-36 -118 -154 -605q-34 -139 -60 -243q-34 -139 -59 -236q-2 199 3 534q5 282 14 584l56 1l-3 103l-226 -5l2 -102l68 1q-1 -57 -3 -117q-2 -79 -4 -156q-5 -205 -7 -378q-5 -324 -2 -500q2 -179 13 -227q11 -47 50 -52l11 -1
q34 0 57 52q19 45 64 215q43 163 125 503l13 53l13 54l27 109q31 127 52 207q1 -181 -5 -491q-2 -112 -4 -249q-2 -49 -3 -110q0 -20 -1 -49l-1 -24v-22q0 -18 -1 -40v-20l-1 -18q-1 -45 -1 -67h-73v-103h237v103h-62l1 32l1 34q1 41 2 77q23 993 6 1170h61v102h-114h-16z
M585 1811q-1 -1 -4 -8q-5 -8 -11 -18q-16 -28 -33 -57q-52 -88 -87 -139q-17 -26 -49 -25h-3l-5 1q-5 1 -11 4q-15 7 -35 26q-54 55 -136 204l90 50q51 -93 96 -154q16 26 35 58q15 25 32 53q6 11 13 22l10 18l4 6l2 5l3 5z" />
    <glyph glyph-name="uni043A" unicode="&#x43a;" horiz-adv-x="658" 
d="M458 1421h11q-95 -175 -243 -451q-4 315 -11 454h61v102h-216v-102h53q11 -185 11 -664q0 -478 -10 -665h-36v-103h198v103h-59q10 180 10 605l253 -647h-22v-103h176v103h-43l-313 798q10 19 36 67l20 37l21 38q50 95 87 162q104 193 144 266h62v103h-190v-103z" />
    <glyph glyph-name="uni043B" unicode="&#x43b;" horiz-adv-x="751" 
d="M586 1359l-3 12l-4 12h100v102h-202v0q-33 7 -72 8l-13 1h-13q-86 5 -155 -60q-43 -41 -69 -105q-33 -85 -33 -201q0 -38 1 -89l1 -46l1 -48l1 -62l1 -64q1 -74 0 -133q0 -152 -10 -261q-25 -285 -117 -352l60 -83q122 88 155 384q14 115 15 279q1 65 0 148l-1 73l-2 73
l-1 48v46q-1 50 -1 87q-1 92 22 155q18 48 48 76q21 21 46 29q10 3 19 4h13l15 -1h14q58 -2 71 -10q14 -10 15 -51q3 -144 14 -622q4 -175 8 -367q4 -158 6 -258h-85v-103h260v103h-72q-5 213 -15 624q-10 477 -13 625q-1 13 -5 27z" />
    <glyph glyph-name="uni043C" unicode="&#x43c;" horiz-adv-x="827" 
d="M766 1492l-110 -1q-30 -1 -46 -27q-12 -19 -34 -87q-11 -31 -27 -84q-5 -17 -15 -48l-16 -51q-6 -21 -10 -34l-11 -37q-14 -42 -24 -77q-29 -91 -48 -146q-15 44 -37 112l-19 60q-7 23 -18 58q-79 252 -107 315q-29 66 -63 67q-11 2 -33 3q-32 0 -88 -2l4 -103l26 1l25 1
l-2 -18l-2 -18q-2 -22 -2 -43q-3 -111 0 -316q2 -166 8 -391q4 -154 10 -366q1 -22 1 -53l1 -25l1 -24q1 -52 2 -80l-49 2l-3 -103l195 -7l3 103l-43 1q-1 28 -3 82v24l-1 26q-1 35 -2 57q-1 58 -3 98q-1 61 -3 115q-3 142 -6 260q-8 323 -7 499q22 -69 43 -135l20 -63
q11 -36 19 -62q22 -68 36 -110q28 -80 45 -105q26 -39 64 -31q18 5 28 15q14 14 30 52q30 71 121 367q3 -200 5 -523q1 -274 0 -567h-69v-103h215v103h-43v268q0 204 -1 372q-3 558 -11 676h55z" />
    <glyph glyph-name="uni043D" unicode="&#x43d;" horiz-adv-x="624" 
d="M357 1423h65q-3 -147 -3 -539q-105 3 -203 0l-1 74l-1 72q-3 261 -3 393h55v103h-206v-103h48q0 -58 1 -169q1 -40 1 -107l1 -58v-60l1 -64l1 -67q1 -78 1 -137q2 -158 2 -273q2 -303 -3 -416h-34v-102h187v102h-51q7 163 1 710q47 1 109 1q44 0 94 -1q1 -195 2 -418
q1 -169 2 -292h-39v-102h172v102h-31q0 113 -1 272q-1 205 -2 389q-1 514 3 690h39v103h-207v-103z" />
    <glyph glyph-name="uni043E" unicode="&#x43e;" 
d="M215 1222q-47 -174 -50 -477q-3 -231 31 -412q33 -181 87 -236q10 -9 18 -13q3 -1 6 -1h4q8 0 16 3q11 4 22 15q54 55 83 233q28 177 24 437q-6 361 -64 512q-20 53 -46 76q-9 9 -19 13q-8 3 -15 3q-57 0 -97 -153zM265 -11q-30 11 -54 36q-79 79 -118 301
q-33 187 -31 420q7 731 250 731q140 0 200 -229q42 -163 47 -475q4 -251 -22 -428q-33 -233 -115 -316q-48 -49 -111 -49q-24 0 -46 9z" />
    <glyph glyph-name="uni043F" unicode="&#x43f;" horiz-adv-x="698" 
d="M523 1490q-30 20 -72 27q-16 3 -35 4h-16l-15 1h-12l-12 1h-6l-22 1l-23 1q-27 0 -48 -3q-57 -9 -93 -43q-55 -52 -55 -157q0 -208 5 -669q1 -158 4 -340q0 -66 1 -135q0 -25 1 -53v-23v-20h-65v-102h223v102h-55q0 23 -1 43v53q-1 68 -2 134q-2 181 -3 341
q-5 460 -5 669q0 26 4 45q6 25 18 37q15 14 48 17q13 2 31 1l31 -1l7 -1h13l14 -1q67 -1 87 -17q30 -25 30 -111q0 -133 -3 -593q-3 -433 -5 -612h-65v-103h211v103h-43q0 33 1 106v34v35q1 45 1 78q1 210 3 359q3 473 3 593q0 147 -80 199z" />
    <glyph glyph-name="uni0440" unicode="&#x440;" horiz-adv-x="611" 
d="M221 1181q-2 62 -3 127q0 26 -1 52v43q26 -5 49 -15q29 -13 51 -33q70 -66 68 -209q-2 -111 -55 -188q-38 -56 -102 -93q-4 146 -7 316zM387 1429q-57 55 -140 73q-27 6 -54 7q-9 1 -18 1h-6l-4 -1h-102v-102h51q1 -49 2 -105q1 -72 2 -145q5 -194 9 -360l2 -60
q15 -464 10 -654h-71v-103h231v103h-57q4 187 -10 657l-1 13q141 62 205 182q50 91 51 209q4 188 -100 285z" />
    <glyph glyph-name="uni0441" unicode="&#x441;" horiz-adv-x="505" 
d="M219 34q-79 68 -109 260q-21 137 -28 451q-7 349 34 511q49 196 186 226q194 43 276 -168l4 -9v-158h-103v138q-29 72 -67 92q-32 17 -88 5q-80 -18 -113 -168q-33 -151 -26 -467q6 -278 22 -405q23 -182 79 -230q6 -5 11 -8q7 -4 15 -7q20 -7 47 -3q52 6 90 34
q33 23 33 42v187h103v-187q0 -64 -62 -115q-62 -52 -151 -63q-17 -2 -31 -2q-71 0 -122 44z" />
    <glyph glyph-name="uni0442" unicode="&#x442;" horiz-adv-x="582" 
d="M523 1518q-4 0 -21 -1q-21 -1 -46 -3q-73 -5 -140 -10q-206 -15 -267 -25l-44 -7v-137h103v48q39 4 132 12v-250q1 -182 1 -354q0 -465 -1 -688h-68v-103h241v103h-70v697v356q0 71 -1 142v105q32 2 72 5q13 1 33 3l14 1l13 1v-60h103v169z" />
    <glyph glyph-name="uni0443" unicode="&#x443;" horiz-adv-x="585" 
d="M349 1422h51q-23 -130 -86 -377q-38 202 -101 377h49v103h-210v-103h51q60 -155 101 -336q46 -209 35 -327q-13 -134 -56 -372q-15 -86 -33 -179q-7 -36 -14 -71q-5 -28 -11 -54h-95v-103h260v103h-60q13 64 26 130q17 91 31 174q40 224 53 357l1 5l2 6q3 10 6 19
q8 29 16 59q25 93 47 179q69 270 92 410h51v103h-206v-103z" />
    <glyph glyph-name="uni0444" unicode="&#x444;" horiz-adv-x="970" 
d="M701 178q-15 -3 -38 1q-65 14 -91 43q-27 28 -43 99v440v427h3q0 4 -2 9l-1 4v4v0q4 51 37 75q41 31 109 17q72 -15 102 -145q30 -131 24 -405q-6 -257 -16 -356q-18 -167 -64 -203q-9 -7 -20 -10zM426 316q0 -16 -4 -32q-4 -22 -15 -40q-30 -49 -100 -65q-22 -4 -38 -1
q-11 3 -19 10q-46 36 -64 203q-11 101 -16 356q-6 274 24 405q29 130 102 145q68 13 104 -17q24 -20 26 -78v-436q1 -268 0 -450v0zM528 1372v45h74v102h-236v-102h59v-39q-73 35 -150 19q-130 -26 -176 -200q-39 -143 -32 -452q6 -298 22 -408q25 -173 97 -230
q42 -33 98 -33q22 0 45 6q49 10 97 42v-59h-60v-103h223v103h-61q1 19 1 65q49 -35 113 -48q23 -6 45 -6q56 0 97 33q73 57 98 230q15 110 22 408q6 309 -32 452q-47 174 -176 200q-90 18 -168 -25z" />
    <glyph glyph-name="uni0445" unicode="&#x445;" horiz-adv-x="592" 
d="M494 83l-10 48q-7 32 -13 64q-17 84 -34 166q-48 229 -91 423q124 507 148 635h64v103h-246v-103h77q-24 -125 -93 -409q-62 272 -99 398h72v102h-239v-102h60q47 -149 151 -623q-136 -561 -161 -702h-48v-103h192v103h-40q23 125 107 472q28 -134 58 -278
q12 -55 23 -111q9 -42 17 -83h-60v-103h233v103h-68z" />
    <glyph glyph-name="uni0446" unicode="&#x446;" horiz-adv-x="736" 
d="M603 172q0 206 -5 661q-1 154 -3 339q-1 60 -2 135v28l-1 26v44h73v102h-247v-102h71q0 -14 1 -44v-26v-28q1 -73 2 -135q2 -184 4 -338q4 -456 4 -662q0 -25 -4 -45q-6 -25 -18 -37q-15 -14 -48 -17q-13 -1 -31 -1l-31 2h-8q-77 5 -101 16q-21 11 -21 41q-1 126 -6 626
q-1 160 -4 380v82l-1 38v35q-1 80 -1 113h57v102h-223v-102h63q0 -30 1 -113v-35l1 -38q0 -44 1 -82q2 -217 4 -380q5 -500 5 -627q0 -8 4 -17l3 -7l2 -8h-74v-103h156q29 -12 67 -17q16 -3 33 -4q13 -1 30 -2l6 -1l22 -1h24q68 0 119 33q6 -2 13 -12q8 -12 15 -32
q19 -53 19 -149h102q0 205 -80 271l-3 2l-3 1q13 40 13 88z" />
    <glyph glyph-name="uni0447" unicode="&#x447;" horiz-adv-x="638" 
d="M352 1405h93v-91q0 -59 1 -111v-179q0 -41 -28 -69q-40 -39 -99 -37q-48 1 -70 15q-25 17 -40 67q-12 36 -14 163q-2 103 3 231h67v102h-235v-102h65q-2 -52 -3 -104q-1 -67 0 -123q3 -147 19 -198q25 -79 73 -116q49 -36 132 -38h5q60 0 125 39v-782h-94v-102h226v102
h-29v952q0 46 -1 179v110q0 49 -1 92h31v102h-226v-102z" />
    <glyph glyph-name="uni0448" unicode="&#x448;" horiz-adv-x="1157" 
d="M1072 1405v103h-246v-103h82q1 -49 1 -103q1 -71 2 -143q2 -192 4 -363q4 -489 4 -715q-36 -4 -67 -6q-42 -2 -71 0h-12h-12q-71 3 -93 19q-34 26 -34 113q0 214 -5 651q-1 148 -3 324q-1 59 -2 129v27l-1 25v42h76v103h-248v-103h69q1 -89 3 -232q2 -172 4 -339
q4 -450 4 -661q0 -58 -23 -80q-17 -16 -55 -19q-14 -2 -34 -1h-17l-17 1l-5 1q-64 3 -118 8q-1 166 -8 675q-2 156 -5 382l-1 41l-1 40q0 50 -1 73q-1 75 -1 111h61v103h-242v-103h78q1 -33 2 -110v-35l1 -37q0 -46 1 -81q3 -218 5 -379q7 -506 8 -675h-95v-103h144
q1 0 19 -2q10 0 18 -1q11 -1 21 -2q60 -5 109 -8h5q28 -2 47 -2q100 0 152 49q3 2 6 8l2 5l3 4q34 -35 86 -51q21 -6 44 -9q18 -2 38 -3l11 -1h10l31 -1q47 0 107 6q20 2 40 5l14 2l5 1h3h122v103h-75q0 227 -5 710q-1 172 -3 360q-1 73 -2 143q0 58 -1 104h61z" />
    <glyph glyph-name="uni0449" unicode="&#x449;" horiz-adv-x="1138" 
d="M840 1422h56v-43q1 -27 1 -53q1 -68 2 -134q2 -181 3 -341q5 -460 5 -669q0 -26 -4 -45q-6 -25 -18 -37q-15 -14 -48 -17q-14 -1 -31 -1l-31 2h-7h-11l-12 1q-72 2 -94 19q-33 26 -33 113q-1 217 -5 658q-2 154 -4 326q-1 64 -1 128q-1 46 -1 93h61v102h-218v-102h54v-43
q1 -27 1 -53q1 -68 2 -134q2 -181 3 -341q5 -460 5 -669q0 -58 -23 -79q-17 -17 -55 -20q-15 -1 -34 -1l-17 1l-17 1h-5q-74 4 -134 9q0 168 -1 675q-1 164 -1 382v81v38v34v111h43v103h-211v-103h65v-110v-35v-118q1 -217 1 -379q1 -505 1 -675h-67v-102h116q1 -1 20 -2
q11 -1 20 -2l24 -2q70 -5 118 -8h5l23 -1l25 -1q45 0 78 9q44 12 73 40q3 3 6 9l3 4l3 4q34 -35 86 -50q20 -7 43 -10q18 -2 38 -3h11l11 -1h6q28 -2 46 -2q75 0 126 38q1 -2 3 -5t4 -8q6 -13 10 -32q10 -53 5 -146l102 -6q13 223 -66 283h-1q12 40 12 79q0 209 -5 669
q-2 158 -4 340q0 66 -1 135q-1 25 -1 53v23v20h67v102h-226v-102z" />
    <glyph glyph-name="uni044A" unicode="&#x44a;" horiz-adv-x="625" 
d="M331 119q-45 -32 -101 -35q-2 66 -1 255q0 71 1 175l1 89v45l1 43v85q71 -15 122 -61q40 -37 67 -90q50 -100 42 -227q-7 -126 -69 -215q-27 -39 -63 -64zM232 1396q-3 77 -17 96l-2 3l-3 3q-4 5 -10 8q-14 10 -36 16q-66 17 -198 2l-46 -5v-184h103v91q69 4 105 -1
q5 -63 4 -300q0 -91 -1 -217l-1 -110q0 -41 -1 -106q-3 -343 -3 -456q0 -111 2 -149v-1v-1h-69l-1 -102l126 -1q21 -2 30 -2q165 0 265 145q77 112 86 266q10 154 -52 280q-89 179 -280 209q4 407 -1 516z" />
    <glyph glyph-name="uni044B" unicode="&#x44b;" horiz-adv-x="842" 
d="M339 119q-46 -32 -102 -36q-5 138 3 693q70 -15 121 -61q40 -37 67 -90q50 -100 43 -227q-8 -126 -69 -215q-28 -39 -63 -64zM241 880q2 134 5 294q2 114 6 275h75v103h-235v-103h57q-1 -49 -2 -114q-2 -79 -3 -162q-4 -217 -7 -405q-4 -293 -4 -505q0 -104 2 -168v-5
l1 -5h-75l-1 -102l131 -1q21 -2 30 -2q165 0 265 145q77 112 87 266q9 154 -53 280q-88 179 -279 209zM546 1428h60q3 -157 2 -674q-1 -181 -2 -390q-1 -79 -1 -155q0 -61 -1 -110h-58v-102h208v102h-47v49q0 30 1 61q0 78 1 155q1 209 2 387q1 515 -3 677h74v103h-236v-103
z" />
    <glyph glyph-name="uni044C" unicode="&#x44c;" horiz-adv-x="619" 
d="M325 109q-45 -32 -101 -36q-5 138 2 693q71 -15 122 -61q40 -37 67 -90q50 -100 42 -227q-7 -126 -69 -215q-27 -39 -63 -64zM238 1419h65v103h-217v-103h49q-2 -112 -5 -277q-4 -202 -6 -384q-5 -293 -5 -505q0 -104 2 -168l1 -5l1 -6h-63v-102h118q21 -2 30 -2
q165 0 265 145q77 112 86 266q10 154 -52 280q-89 179 -279 209q4 264 10 549z" />
    <glyph glyph-name="uni044D" unicode="&#x44d;" horiz-adv-x="539" 
d="M165 1463q-33 -23 -55 -60q-28 -48 -32 -115v-95h103v90q4 69 43 97q34 23 77 10q47 -12 62 -174q10 -108 11 -404q-64 3 -121 1v46h-103v-178h103v30q58 1 122 -1q1 -331 -18 -448q-20 -129 -89 -184q-6 -4 -18 -5q-15 -1 -30 5q-46 17 -57 80v101h-103v-105l1 -8
q20 -124 121 -164q31 -12 64 -12q50 0 86 27q97 77 125 236q22 130 21 496v44q-2 400 -21 517q-28 171 -128 199q-91 26 -164 -26z" />
    <glyph glyph-name="uni044E" unicode="&#x44e;" horiz-adv-x="880" 
d="M584 88q-7 -3 -16 -3h-4q-2 0 -5 1q-9 4 -18 13q-55 56 -88 236q-33 181 -31 412q3 303 50 477q41 153 97 153q7 0 15 -3q10 -4 20 -13q25 -23 46 -76q58 -151 63 -512q4 -259 -24 -437q-28 -177 -82 -233q-11 -11 -23 -15zM322 813q-24 0 -39 1q-22 0 -42 -1
q1 429 -2 576h55v102h-234v-102h76q4 -158 2 -664q0 -177 -2 -384v-156q-1 -59 -1 -112h-75v-103h249v103h-71v110q0 22 1 72v39v41q1 222 2 376q39 0 80 -1q0 -226 33 -400q39 -207 114 -283q25 -25 54 -36q23 -9 46 -9q63 0 112 49q81 83 115 316q25 177 21 428
q-5 313 -47 475q-59 229 -200 229q-230 0 -247 -666z" />
    <glyph glyph-name="uni044F" unicode="&#x44f;" horiz-adv-x="601" 
d="M272 1323q48 42 112 62q-3 -174 -9 -500q-36 15 -66 35q-38 26 -64 59q-66 85 -50 207q11 81 77 137zM437 1494q-40 3 -98 -17q-64 -21 -115 -60q-113 -85 -130 -217q-21 -153 54 -263q57 -83 164 -134q-43 -162 -115 -406q-25 -87 -54 -182q-10 -36 -21 -72
q-8 -27 -17 -56l-67 13l-18 -101l156 -29l14 44l1 4l2 5l2 7q2 8 5 17q3 12 7 24q22 71 43 144q70 234 121 413q-6 -320 -7 -539h-75v-103h240v103h-62q1 208 9 696q3 171 6 363q2 72 3 143q1 53 2 102h54v102h-104v-1z" />
    <glyph glyph-name="uni0451" unicode="&#x451;" horiz-adv-x="597" 
d="M537 150h-102v-67h-193q-3 208 -12 695q48 1 104 0v-37h103v176h-103v-37q-49 2 -106 0q-1 56 -3 136q-1 54 -2 117q0 25 -1 55q0 19 -1 51q-2 122 -3 158l17 -1h20q22 0 42 -1q53 0 97 -1v-99h102v202h-51q-85 0 -188 2q-36 0 -64 1l-25 1l-53 1v-1h-55v-103h55
q3 -117 8 -384q5 -251 10 -531q5 -292 6 -399h-79v-103h131l346 -1v170zM118 1614q-23 24 -23 57q0 32 23 56q24 23 57 23q32 0 56 -23q23 -24 23 -56q0 -33 -23 -57q-24 -23 -56 -23q-33 0 -57 23zM356 1614q-24 24 -24 57q0 32 24 56q23 23 56 23t56 -23q23 -24 23 -56
q0 -33 -23 -57q-23 -23 -56 -23t-56 23z" />
    <glyph glyph-name="uni0454" unicode="&#x454;" horiz-adv-x="540" 
d="M211 1489q-101 -28 -128 -199q-19 -117 -21 -517v-44q-2 -366 21 -496q28 -159 125 -236q35 -27 86 -27q33 0 64 12q101 40 121 164l1 8v105h-103v-101q-12 -63 -57 -80q-15 -6 -30 -5q-12 1 -18 5q-69 55 -90 184q-18 117 -17 448q64 2 122 1v-30h102v178h-102v-46
q-58 2 -122 -1q2 296 12 404q15 162 61 174q44 13 77 -10q39 -28 44 -97v-90h103v95q-5 67 -33 115q-21 37 -54 60q-73 52 -164 26z" />
    <glyph glyph-name="uni0455" unicode="&#x455;" horiz-adv-x="512" 
d="M85 32l-9 13v121h102v-88q20 -23 47 -31q21 -6 45 -4q41 6 76 36q36 31 51 73q31 99 5 272q-26 142 -104 288q-38 71 -68 142q-43 98 -66 183q-64 272 19 399q41 53 90 75q38 17 77 15q97 -3 156 -93l9 -13v-125h-102v93q-31 35 -67 36q-41 2 -82 -51q-45 -78 -11 -270
q35 -153 136 -343q89 -167 116 -329q28 -192 -11 -313q-25 -70 -83 -118q-58 -49 -128 -58q-16 -2 -29 -2q-106 0 -169 92z" />
    <glyph glyph-name="quoteleft" unicode="&#x2018;" horiz-adv-x="236" 
d="M70 1201q-17 31 -27 73q-13 49 -11 100q5 130 100 228l74 -72q-78 -81 -71 -186q3 -33 13 -66q4 -10 8 -19q2 -3 3 -6l1 -2v-1z" />
    <glyph glyph-name="quoteright" unicode="&#x2019;" horiz-adv-x="235" 
d="M76 1250v1l1 2q1 3 3 6q4 9 7 19q11 33 14 66q7 105 -71 186l74 72q95 -98 100 -228q1 -51 -11 -100q-10 -42 -27 -73z" />
    <glyph glyph-name="quotesinglbase" unicode="&#x201a;" horiz-adv-x="259" 
d="M46 -145l1 1l1 2q2 2 5 4q7 7 13 16q21 27 35 58q41 97 -6 199l94 43q56 -124 18 -248q-14 -48 -42 -91q-23 -36 -50 -60z" />
    <glyph glyph-name="quotereversed" unicode="&#x201b;" horiz-adv-x="337" 
d="M219 1172l-6 10q-3 6 -6 11q-5 7 -9 14q-12 19 -23 38l-28 46q-79 130 -117 193l88 53q38 -64 117 -193q13 -22 28 -46q11 -18 23 -37q4 -7 8 -15q4 -5 7 -10l6 -10z" />
    <glyph glyph-name="quotedblleft" unicode="&#x201c;" horiz-adv-x="436" 
d="M70 1201q-17 31 -27 73q-13 49 -11 100q5 130 100 228l74 -72q-78 -81 -71 -186q3 -33 13 -66q4 -10 8 -19q2 -3 3 -6l1 -2v-1zM270 1201q-17 31 -27 73q-13 49 -11 100q5 130 100 228l74 -72q-78 -81 -71 -186q3 -33 13 -66q4 -10 8 -19q2 -3 3 -6l1 -2v-1z" />
    <glyph glyph-name="quotedblright" unicode="&#x201d;" horiz-adv-x="435" 
d="M366 1602q17 -31 27 -73q12 -49 11 -100q-5 -130 -100 -228l-74 72q78 81 71 186q-3 33 -14 66q-3 10 -7 19q-2 3 -3 6l-1 2v1zM166 1602q17 -31 27 -73q12 -49 11 -100q-5 -130 -100 -228l-74 72q78 81 71 186q-3 33 -14 66q-3 10 -7 19q-2 3 -3 6l-1 2v1z" />
    <glyph glyph-name="quotedblbase" unicode="&#x201e;" horiz-adv-x="435" 
d="M382 378q17 -31 27 -73q12 -49 11 -100q-5 -130 -100 -228l-74 72q78 81 71 186q-3 33 -14 66q-3 10 -7 19q-2 3 -3 6l-1 2v1zM182 378q17 -31 27 -73q12 -49 11 -100q-5 -130 -100 -228l-74 72q78 81 71 186q-3 33 -14 66q-3 10 -7 19q-2 3 -3 6l-1 2v1z" />
    <glyph glyph-name="guilsinglleft" unicode="&#x2039;" horiz-adv-x="450" 
d="M341 283l-1 1l-3 3q-3 4 -7 8q-12 13 -25 27q-39 45 -77 89q-119 138 -183 223l-5 7l-4 7q-4 8 -5 18q-1 25 21 68q57 110 291 373l77 -68q-123 -137 -200 -239q-64 -84 -81 -120q63 -82 176 -213q20 -22 40 -45q16 -18 32 -37q6 -7 12 -13q5 -5 10 -11l8 -9z" />
    <glyph glyph-name="guilsinglright" unicode="&#x203a;" horiz-adv-x="450" 
d="M33 352l8 9q5 6 9 11q7 6 13 13q16 19 32 37q20 23 39 45q113 131 177 213q-17 36 -81 120q-78 102 -200 239l77 68q234 -263 291 -373q22 -43 20 -68q0 -10 -4 -18l-5 -7l-4 -7q-64 -85 -183 -223q-38 -44 -78 -89q-13 -14 -24 -27l-8 -8l-2 -3l-1 -1z" />
    <glyph glyph-name="fraction" unicode="&#x2044;" horiz-adv-x="1149" 
d="M0 -21q1 1 4 5q3 5 8 13q14 19 32 45q52 75 111 159q181 261 339 490q500 726 565 844l90 -49q-67 -122 -558 -835q-155 -225 -339 -490q-57 -83 -115 -166q-10 -13 -20 -28q-7 -10 -16 -22q-15 -22 -17 -25z" />
    <glyph glyph-name="Euro" unicode="&#x20ac;" horiz-adv-x="690" 
d="M525 329v-138q1 -31 -34 -61q-44 -36 -123 -46q-26 -4 -46 2q-14 5 -24 14q-45 39 -64 174q-15 102 -20 314q75 4 170 10q34 2 65 5q25 2 35 3l-8 102q-55 -4 -117 -9q-83 -5 -148 -8v14l-1 14v3v7v7v13q74 3 173 10q31 2 65 5l12 1h11q10 1 13 1l-8 103q-49 -4 -117 -9
q-81 -5 -147 -8q2 245 34 367q33 123 103 138q52 12 92 -17q47 -35 55 -114v-101h102v107q-10 127 -96 191q-77 57 -175 34q-122 -26 -173 -189q-43 -138 -45 -419h-28h-22l-9 -102q15 -2 45 -2h6l7 1v-13l-1 -16l1 -15l1 -14q-19 0 -28 -1q-15 0 -22 1l-9 -102q15 -2 45 -2
l8 1h8q7 -244 27 -357q26 -148 93 -206q48 -42 119 -42q17 0 32 2q121 15 189 82q59 58 57 129v136h-103z" />
    <glyph glyph-name="minus" unicode="&#x2212;" horiz-adv-x="538" 
d="M508 538h-21h-48q-77 1 -144 1q-212 3 -265 8l10 102q50 -5 262 -7q67 -1 143 -1h45h18v-103z" />
    <glyph glyph-name="approxequal" unicode="&#x2248;" horiz-adv-x="824" 
d="M449 730q-27 16 -51 43q-9 11 -19 26l-17 25q-28 44 -45 56q-23 16 -64 12q-65 -8 -99 -74q-11 -21 -17 -45l-4 -16v-5l-1 -1v-1l-102 12q4 30 16 64q14 40 37 72q59 84 158 96q81 10 138 -33q21 -15 40 -40q8 -9 16 -21l7 -11l6 -10q32 -48 51 -59q58 -31 117 0
q65 34 76 136l102 -11q-16 -157 -131 -217q-48 -25 -105 -25q-59 0 -109 27zM449 487q-27 16 -51 43q-9 11 -19 26l-17 25q-28 44 -45 56q-23 16 -64 12q-65 -8 -99 -74q-11 -21 -17 -45l-4 -16v-5l-1 -1v-1l-102 12q4 30 16 64q14 40 37 72q59 84 158 96q81 9 138 -33
q21 -16 40 -40q8 -10 16 -21l7 -11l6 -10q32 -48 51 -59q58 -31 117 0q65 34 76 136l102 -11q-16 -157 -131 -217q-48 -25 -105 -25q-59 0 -109 27z" />
    </font>
</defs>
</svg>
